<?xml version="1.0" encoding="UTF-8"?>
<!DOCTYPE svg PUBLIC "-//W3C//DTD SVG 1.1//EN" "http://www.w3.org/Graphics/SVG/1.1/DTD/svg11.dtd">
<svg xmlns="http://www.w3.org/2000/svg" version="1.1" width="225px" height="225px" style="shape-rendering:geometricPrecision; text-rendering:geometricPrecision; image-rendering:optimizeQuality; fill-rule:evenodd; clip-rule:evenodd" xmlns:xlink="http://www.w3.org/1999/xlink">
<g><path style="opacity:1" fill="#34a9d4" d="M -0.5,-0.5 C 74.5,-0.5 149.5,-0.5 224.5,-0.5C 224.5,74.5 224.5,149.5 224.5,224.5C 149.5,224.5 74.5,224.5 -0.5,224.5C -0.5,149.5 -0.5,74.5 -0.5,-0.5 Z"/></g>
<g><path style="opacity:1" fill="#c2e0ef" d="M 5.5,5.5 C 76.5,5.5 147.5,5.5 218.5,5.5C 218.5,76.5 218.5,147.5 218.5,218.5C 147.5,218.5 76.5,218.5 5.5,218.5C 5.5,147.5 5.5,76.5 5.5,5.5 Z"/></g>
<g><path style="opacity:1" fill="#27a5d2" d="M 7.5,7.5 C 77.1667,7.5 146.833,7.5 216.5,7.5C 216.5,77.1667 216.5,146.833 216.5,216.5C 146.833,216.5 77.1667,216.5 7.5,216.5C 7.5,146.833 7.5,77.1667 7.5,7.5 Z"/></g>
<g><path style="opacity:1" fill="#37aad5" d="M 8.5,8.5 C 77.5,8.5 146.5,8.5 215.5,8.5C 215.5,77.5 215.5,146.5 215.5,215.5C 146.5,215.5 77.5,215.5 8.5,215.5C 8.5,146.5 8.5,77.5 8.5,8.5 Z"/></g>
<g><path style="opacity:1" fill="#f6fafc" d="M 59.5,118.5 C 58.5081,120.026 57.0081,120.693 55,120.5C 53.5643,120.441 52.231,120.108 51,119.5C 50.3333,116.167 50.3333,112.833 51,109.5C 52.4443,107.845 54.2776,107.178 56.5,107.5C 56.56,108.043 56.8933,108.376 57.5,108.5C 58.2978,106.922 58.7978,105.256 59,103.5C 59.4993,108.489 59.6659,113.489 59.5,118.5 Z"/></g>
<g><path style="opacity:1" fill="#c6e4f1" d="M 136.5,102.5 C 138.337,102.639 138.67,103.306 137.5,104.5C 136.702,104.043 136.369,103.376 136.5,102.5 Z"/></g>
<g><path style="opacity:1" fill="#c2e1ef" d="M 59.5,118.5 C 59.6659,113.489 59.4993,108.489 59,103.5C 58.7978,105.256 58.2978,106.922 57.5,108.5C 56.8933,108.376 56.56,108.043 56.5,107.5C 57.4511,106.081 57.7845,104.415 57.5,102.5C 58.5,102.5 59.5,102.5 60.5,102.5C 60.8214,108.026 60.4881,113.36 59.5,118.5 Z"/></g>
<g><path style="opacity:1" fill="#f6fafc" d="M 143.5,102.5 C 146.797,102.329 147.131,102.995 144.5,104.5C 143.571,105.689 143.238,107.022 143.5,108.5C 147.5,108.833 147.5,109.167 143.5,109.5C 143.665,113.182 143.499,116.848 143,120.5C 143.052,116.344 142.219,112.51 140.5,109C 142.165,107.174 143.165,105.007 143.5,102.5 Z"/></g>
<g><path style="opacity:1" fill="#e8f4f9" d="M 173.5,114.5 C 172.778,114.082 172.278,113.416 172,112.5C 171.667,113.167 171.333,113.833 171,114.5C 169.647,113.315 168.48,111.981 167.5,110.5C 165.729,111.035 165.396,111.869 166.5,113C 165.5,114.667 164.5,116.333 163.5,118C 164.094,118.464 164.761,118.631 165.5,118.5C 166.85,119.65 166.684,120.317 165,120.5C 160.055,117.687 159.221,113.853 162.5,109C 168.665,106.082 172.332,107.916 173.5,114.5 Z"/></g>
<g><path style="opacity:1" fill="#f6fbfd" d="M 187.5,115.5 C 188.562,114.425 188.562,113.425 187.5,112.5C 184.934,111.905 182.601,112.572 180.5,114.5C 179.034,115.347 178.2,116.68 178,118.5C 175.095,112.648 176.761,108.981 183,107.5C 188.608,108.107 190.608,111.107 189,116.5C 188.617,115.944 188.117,115.611 187.5,115.5 Z"/></g>
<g><path style="opacity:1" fill="#f4f9fc" d="M 21.5,107.5 C 29.1558,107.315 31.6558,110.982 29,118.5C 26,121.167 23,121.167 20,118.5C 19.1751,116.299 19.6751,114.466 21.5,113C 23.5767,112.808 25.5767,112.308 27.5,111.5C 25.4232,108.881 23.2565,108.881 21,111.5C 19.4132,110.154 19.5798,108.821 21.5,107.5 Z"/></g>
<g><path style="opacity:1" fill="#d9edf6" d="M 37.5,107.5 C 40.1569,107.162 42.4902,107.829 44.5,109.5C 45.4259,113.094 45.7592,116.76 45.5,120.5C 44.5,120.5 43.5,120.5 42.5,120.5C 42.665,117.15 42.4983,113.817 42,110.5C 40.6667,109.167 39.3333,109.167 38,110.5C 37.5017,113.817 37.335,117.15 37.5,120.5C 36.5,120.5 35.5,120.5 34.5,120.5C 33.738,115.607 34.738,111.274 37.5,107.5 Z"/></g>
<g><path style="opacity:1" fill="#eff7fb" d="M 78.5,107.5 C 81.0444,107.104 83.2111,107.771 85,109.5C 85.7886,113.091 85.6219,116.591 84.5,120C 75.9875,121.471 73.1541,117.971 76,109.5C 76.9947,108.934 77.828,108.267 78.5,107.5 Z"/></g>
<g><path style="opacity:1" fill="#f2f9fc" d="M 107.5,107.5 C 108.675,107.281 109.675,107.614 110.5,108.5C 109.009,109.244 107.509,109.91 106,110.5C 105.667,113.833 105.333,117.167 105,120.5C 104.501,116.514 104.334,112.514 104.5,108.5C 105.791,108.737 106.791,108.404 107.5,107.5 Z"/></g>
<g><path style="opacity:1" fill="#eaf5f9" d="M 113.5,108.5 C 116.119,108.232 118.619,108.565 121,109.5C 121.667,111.167 121.667,112.833 121,114.5C 118.645,115.808 116.145,116.808 113.5,117.5C 115.45,119.753 117.784,120.086 120.5,118.5C 121.696,118.846 121.696,119.346 120.5,120C 117.901,120.769 115.401,120.602 113,119.5C 112.245,115.745 112.411,112.078 113.5,108.5 Z"/></g>
<g><path style="opacity:1" fill="#eaf5fa" d="M 149.5,108.5 C 152.119,108.232 154.619,108.565 157,109.5C 157.667,111.167 157.667,112.833 157,114.5C 154.645,115.808 152.145,116.808 149.5,117.5C 151.45,119.753 153.784,120.086 156.5,118.5C 157.696,118.846 157.696,119.346 156.5,120C 153.901,120.769 151.401,120.602 149,119.5C 148.245,115.745 148.411,112.078 149.5,108.5 Z"/></g>
<g><path style="opacity:1" fill="#f9fcfd" d="M 67.5,107.5 C 73.8816,107.772 74.0482,108.772 68,110.5C 67.8236,113.882 67.3236,117.215 66.5,120.5C 64.9792,115.909 65.3125,111.576 67.5,107.5 Z"/></g>
<g><path style="opacity:1" fill="#bddfef" d="M 136.5,108.5 C 137.794,110.048 138.461,112.048 138.5,114.5C 138.167,116.5 137.833,118.5 137.5,120.5C 136.509,116.555 136.176,112.555 136.5,108.5 Z"/></g>
<g><path style="opacity:1" fill="#37aad5" d="M 150.5,109.5 C 152.199,109.34 153.866,109.506 155.5,110C 156.833,111.333 156.833,112.667 155.5,114C 153.527,114.495 151.527,114.662 149.5,114.5C 149.366,112.708 149.699,111.042 150.5,109.5 Z"/></g>
<g><path style="opacity:1" fill="#46add6" d="M 53.5,109.5 C 57.2403,108.741 58.907,110.241 58.5,114C 58.5699,117.992 56.5699,119.492 52.5,118.5C 52.2641,115.391 52.5975,112.391 53.5,109.5 Z"/></g>
<g><path style="opacity:1" fill="#45add6" d="M 78.5,109.5 C 80.1439,109.286 81.6439,109.62 83,110.5C 83.4974,113.146 83.6641,115.813 83.5,118.5C 81.5328,118.739 79.6995,118.406 78,117.5C 77.2782,114.739 77.4448,112.073 78.5,109.5 Z"/></g>
<g><path style="opacity:1" fill="#3cabd5" d="M 114.5,109.5 C 116.199,109.34 117.866,109.506 119.5,110C 120.833,111.333 120.833,112.667 119.5,114C 117.527,114.495 115.527,114.662 113.5,114.5C 113.366,112.708 113.699,111.042 114.5,109.5 Z"/></g>
<g><path style="opacity:1" fill="#b6dced" d="M 187.5,115.5 C 185.283,114.631 182.95,114.298 180.5,114.5C 182.601,112.572 184.934,111.905 187.5,112.5C 188.562,113.425 188.562,114.425 187.5,115.5 Z"/></g>
<g><path style="opacity:1" fill="#fdfefe" d="M 180.5,114.5 C 182.95,114.298 185.283,114.631 187.5,115.5C 188.245,118.93 186.911,120.597 183.5,120.5C 179.484,120.147 178.484,118.147 180.5,114.5 Z"/></g>
<g><path style="opacity:1" fill="#f1f8fb" d="M 200.5,111.5 C 198.788,113.651 196.788,114.651 194.5,114.5C 196.39,115.424 197.89,116.757 199,118.5C 199.617,117.551 199.451,116.718 198.5,116C 200.324,115.34 201.657,114.173 202.5,112.5C 203.189,111.226 204.023,111.226 205,112.5C 205.401,119.083 202.235,121.583 195.5,120C 192.277,116.888 191.777,113.388 194,109.5C 197.978,107.088 201.478,107.255 204.5,110C 202.634,108.992 201.301,109.492 200.5,111.5 Z"/></g>
<g><path style="opacity:1" fill="#a3d3e9" d="M 200.5,111.5 C 201.167,111.833 201.833,112.167 202.5,112.5C 201.657,114.173 200.324,115.34 198.5,116C 199.451,116.718 199.617,117.551 199,118.5C 197.89,116.757 196.39,115.424 194.5,114.5C 196.788,114.651 198.788,113.651 200.5,111.5 Z"/></g>
<g><path style="opacity:1" fill="#3dabd5" d="M 22.5,114.5 C 24.1667,114.5 25.8333,114.5 27.5,114.5C 27.2993,118.35 25.4659,119.35 22,117.5C 21.5304,116.423 21.6971,115.423 22.5,114.5 Z"/></g>
<g><path style="opacity:1" fill="#9bd0e7" d="M 173.5,114.5 C 173.5,114.833 173.5,115.167 173.5,115.5C 171.983,115.511 170.816,116.177 170,117.5C 168.097,115.179 166.597,115.513 165.5,118.5C 164.761,118.631 164.094,118.464 163.5,118C 164.5,116.333 165.5,114.667 166.5,113C 165.396,111.869 165.729,111.035 167.5,110.5C 168.48,111.981 169.647,113.315 171,114.5C 171.333,113.833 171.667,113.167 172,112.5C 172.278,113.416 172.778,114.082 173.5,114.5 Z"/></g>
<g><path style="opacity:1" fill="#ecf6fa" d="M 173.5,115.5 C 171.967,119.236 169.3,120.236 165.5,118.5C 166.597,115.513 168.097,115.179 170,117.5C 170.816,116.177 171.983,115.511 173.5,115.5 Z"/></g>
<g><path style="opacity:1" fill="#eff7fb" d="M 92.5,107.5 C 95.6646,106.964 98.3312,107.797 100.5,110C 100,110.5 99.5,111 99,111.5C 96.7435,108.881 94.5768,108.881 92.5,111.5C 94.4605,113.113 96.7939,114.113 99.5,114.5C 101.489,118.471 100.322,120.471 96,120.5C 93.6518,120.742 91.8185,119.908 90.5,118C 91,117.5 91.5,117 92,116.5C 93.7889,118.229 95.9556,118.896 98.5,118.5C 98.5,117.5 98.5,116.5 98.5,115.5C 91.187,116.227 89.187,113.56 92.5,107.5 Z"/></g>
<g><path style="opacity:1" fill="#eff7fb" d="M 125.5,108.5 C 128.119,108.232 130.619,108.565 133,109.5C 133.515,111.939 133.015,112.105 131.5,110C 127.098,108.431 125.098,109.931 125.5,114.5C 125.098,119.069 127.098,120.569 131.5,119C 133.429,117.172 133.762,117.505 132.5,120C 129.873,122.017 127.373,121.85 125,119.5C 124.245,115.745 124.411,112.078 125.5,108.5 Z"/></g>
</svg>
