<?xml version="1.0" encoding="UTF-8"?>
<!DOCTYPE svg PUBLIC "-//W3C//DTD SVG 1.1//EN" "http://www.w3.org/Graphics/SVG/1.1/DTD/svg11.dtd">
<svg xmlns="http://www.w3.org/2000/svg" version="1.1" width="500px" height="500px" style="shape-rendering:geometricPrecision; text-rendering:geometricPrecision; image-rendering:optimizeQuality; fill-rule:evenodd; clip-rule:evenodd" xmlns:xlink="http://www.w3.org/1999/xlink">
<g><path style="opacity:0.685" fill="#fefffe" d="M 294.5,32.5 C 308.504,32.3334 322.504,32.5001 336.5,33C 338.286,33.1962 339.619,34.0295 340.5,35.5C 342.743,36.4742 345.076,36.8076 347.5,36.5C 347.5,37.8333 347.5,39.1667 347.5,40.5C 349.527,40.3379 351.527,40.5045 353.5,41C 354.595,42.6753 356.095,43.842 358,44.5C 358.483,45.448 358.649,46.448 358.5,47.5C 359.675,47.281 360.675,47.6143 361.5,48.5C 362.137,50.3031 363.303,51.6364 365,52.5C 365.495,54.4727 365.662,56.4727 365.5,58.5C 366.833,58.5 368.167,58.5 369.5,58.5C 369.002,61.6808 369.835,64.3475 372,66.5C 372.833,82.5104 372.666,98.5104 371.5,114.5C 370.914,114.709 370.414,115.043 370,115.5C 369.667,117.5 369.333,119.5 369,121.5C 367.989,122.337 366.822,122.67 365.5,122.5C 365.5,124.833 365.5,127.167 365.5,129.5C 364.5,129.5 363.5,129.5 362.5,129.5C 362.682,131.591 362.348,133.591 361.5,135.5C 360.675,136.386 359.675,136.719 358.5,136.5C 357.945,140.58 356.612,144.247 354.5,147.5C 353.5,147.5 352.5,147.5 351.5,147.5C 349.431,153.734 345.931,159.068 341,163.5C 340.506,165.134 340.34,166.801 340.5,168.5C 339.5,168.5 338.5,168.5 337.5,168.5C 337.5,171.167 337.5,173.833 337.5,176.5C 341.211,176.614 344.545,177.614 347.5,179.5C 347.5,180.833 347.5,182.167 347.5,183.5C 348.5,183.5 349.5,183.5 350.5,183.5C 351.63,202.802 351.796,222.136 351,241.5C 350.29,242.973 349.124,243.64 347.5,243.5C 347.5,244.833 347.5,246.167 347.5,247.5C 346.167,247.5 344.833,247.5 343.5,247.5C 343.5,248.5 343.5,249.5 343.5,250.5C 341.5,250.833 339.5,251.167 337.5,251.5C 337.814,300.19 337.481,348.857 336.5,397.5C 335.5,397.5 334.5,397.5 333.5,397.5C 333.5,401.167 333.5,404.833 333.5,408.5C 332.167,408.5 330.833,408.5 329.5,408.5C 329.5,410.833 329.5,413.167 329.5,415.5C 328.5,415.5 327.5,415.5 326.5,415.5C 326.662,417.527 326.495,419.527 326,421.5C 324.989,422.337 323.822,422.67 322.5,422.5C 322.5,423.833 322.5,425.167 322.5,426.5C 321.5,426.5 320.5,426.5 319.5,426.5C 319.723,429.114 318.556,430.781 316,431.5C 315.846,434.525 314.346,436.191 311.5,436.5C 311.67,437.822 311.337,438.989 310.5,440C 308.527,440.495 306.527,440.662 304.5,440.5C 304.5,441.833 304.5,443.167 304.5,444.5C 303.5,444.5 302.5,444.5 301.5,444.5C 301.5,445.5 301.5,446.5 301.5,447.5C 300.167,447.5 298.833,447.5 297.5,447.5C 297.67,448.822 297.337,449.989 296.5,451C 294.527,451.495 292.527,451.662 290.5,451.5C 290.67,452.822 290.337,453.989 289.5,455C 287.527,455.495 285.527,455.662 283.5,455.5C 283.5,456.5 283.5,457.5 283.5,458.5C 279.089,457.66 275.423,458.827 272.5,462C 268.848,462.499 265.182,462.665 261.5,462.5C 261.5,463.5 261.5,464.5 261.5,465.5C 241.5,465.5 221.5,465.5 201.5,465.5C 201.5,464.5 201.5,463.5 201.5,462.5C 197.833,462.5 194.167,462.5 190.5,462.5C 190.5,461.167 190.5,459.833 190.5,458.5C 185.678,457.97 181.011,456.97 176.5,455.5C 176.5,454.167 176.5,452.833 176.5,451.5C 174.167,451.5 171.833,451.5 169.5,451.5C 169.833,448.5 168.5,447.167 165.5,447.5C 165.5,446.5 165.5,445.5 165.5,444.5C 164.167,444.5 162.833,444.5 161.5,444.5C 161.5,443.167 161.5,441.833 161.5,440.5C 160.5,440.5 159.5,440.5 158.5,440.5C 158.5,439.5 158.5,438.5 158.5,437.5C 157.167,437.5 155.833,437.5 154.5,437.5C 154.5,436.167 154.5,434.833 154.5,433.5C 153.5,433.5 152.5,433.5 151.5,433.5C 151.5,432.5 151.5,431.5 151.5,430.5C 148.5,430.833 147.167,429.5 147.5,426.5C 146.325,426.719 145.325,426.386 144.5,425.5C 143.652,423.591 143.318,421.591 143.5,419.5C 142.5,419.5 141.5,419.5 140.5,419.5C 140.5,418.167 140.5,416.833 140.5,415.5C 139.325,415.719 138.325,415.386 137.5,414.5C 137.148,411.691 135.982,409.358 134,407.5C 133.502,404.183 133.335,400.85 133.5,397.5C 132.167,397.5 130.833,397.5 129.5,397.5C 129.82,394.102 129.487,390.768 128.5,387.5C 127.029,386.619 126.196,385.286 126,383.5C 125.333,341.167 125.333,298.833 126,256.5C 131.536,254.575 137.369,253.908 143.5,254.5C 143.5,255.833 143.5,257.167 143.5,258.5C 144.833,258.5 146.167,258.5 147.5,258.5C 147.5,259.5 147.5,260.5 147.5,261.5C 148.5,261.5 149.5,261.5 150.5,261.5C 150.5,262.833 150.5,264.167 150.5,265.5C 151.833,265.5 153.167,265.5 154.5,265.5C 154.5,266.833 154.5,268.167 154.5,269.5C 155.833,269.5 157.167,269.5 158.5,269.5C 158.5,270.5 158.5,271.5 158.5,272.5C 159.5,272.5 160.5,272.5 161.5,272.5C 161.5,273.833 161.5,275.167 161.5,276.5C 162.833,276.5 164.167,276.5 165.5,276.5C 165.5,277.5 165.5,278.5 165.5,279.5C 166.5,279.5 167.5,279.5 168.5,279.5C 168.5,280.833 168.5,282.167 168.5,283.5C 169.833,283.5 171.167,283.5 172.5,283.5C 173.139,285.76 174.306,287.76 176,289.5C 177.011,290.337 178.178,290.67 179.5,290.5C 179.5,291.833 179.5,293.167 179.5,294.5C 180.833,294.5 182.167,294.5 183.5,294.5C 183.5,295.5 183.5,296.5 183.5,297.5C 184.5,297.5 185.5,297.5 186.5,297.5C 186.5,298.833 186.5,300.167 186.5,301.5C 187.833,301.5 189.167,301.5 190.5,301.5C 190.5,302.5 190.5,303.5 190.5,304.5C 191.5,304.5 192.5,304.5 193.5,304.5C 193.5,305.833 193.5,307.167 193.5,308.5C 194.833,308.5 196.167,308.5 197.5,308.5C 197.5,309.833 197.5,311.167 197.5,312.5C 198.833,312.5 200.167,312.5 201.5,312.5C 201.807,318.093 201.473,323.593 200.5,329C 191.173,329.5 181.839,329.666 172.5,329.5C 172.169,338.192 172.502,346.859 173.5,355.5C 174.086,355.709 174.586,356.043 175,356.5C 175.831,363.146 176.331,369.813 176.5,376.5C 177.5,376.5 178.5,376.5 179.5,376.5C 179.337,378.857 179.503,381.19 180,383.5C 183.106,388.369 186.44,393.036 190,397.5C 190.49,398.793 190.657,400.127 190.5,401.5C 191.5,401.5 192.5,401.5 193.5,401.5C 193.5,402.833 193.5,404.167 193.5,405.5C 197.333,406.025 201,407.025 204.5,408.5C 204.5,409.833 204.5,411.167 204.5,412.5C 206.833,412.5 209.167,412.5 211.5,412.5C 211.5,413.5 211.5,414.5 211.5,415.5C 224.833,415.5 238.167,415.5 251.5,415.5C 251.5,414.5 251.5,413.5 251.5,412.5C 254.247,412.813 256.914,412.48 259.5,411.5C 261.896,409.755 264.23,407.922 266.5,406C 268.473,405.505 270.473,405.338 272.5,405.5C 272.5,404.167 272.5,402.833 272.5,401.5C 273.833,401.5 275.167,401.5 276.5,401.5C 277.199,399.005 278.199,396.672 279.5,394.5C 280.833,394.5 282.167,394.5 283.5,394.5C 283.5,392.167 283.5,389.833 283.5,387.5C 284.5,387.5 285.5,387.5 286.5,387.5C 286.471,381.79 286.971,376.123 288,370.5C 288.414,370.043 288.914,369.709 289.5,369.5C 290.5,330.172 290.833,290.839 290.5,251.5C 286.256,251.259 282.756,249.592 280,246.5C 279.316,244.641 278.316,242.974 277,241.5C 276.333,222.5 276.333,203.5 277,184.5C 278.833,181.333 281.333,178.833 284.5,177C 286.473,176.505 288.473,176.338 290.5,176.5C 290.5,173.833 290.5,171.167 290.5,168.5C 289.5,168.5 288.5,168.5 287.5,168.5C 287.175,163.519 284.842,159.853 280.5,157.5C 278.687,154.355 277.354,151.022 276.5,147.5C 275.178,147.67 274.011,147.337 273,146.5C 271.086,143.423 269.919,140.089 269.5,136.5C 268.167,136.5 266.833,136.5 265.5,136.5C 265.5,134.167 265.5,131.833 265.5,129.5C 264.178,129.67 263.011,129.337 262,128.5C 261.505,126.527 261.338,124.527 261.5,122.5C 260.5,122.5 259.5,122.5 258.5,122.5C 259.074,118.733 257.907,115.733 255,113.5C 254.667,107.833 254.333,102.167 254,96.5C 253.056,95.737 252.556,94.737 252.5,93.5C 254.194,85.9676 255.027,78.301 255,70.5C 257.907,68.2666 259.074,65.2666 258.5,61.5C 259.5,61.5 260.5,61.5 261.5,61.5C 261.993,59.1944 262.326,56.861 262.5,54.5C 263.5,54.5 264.5,54.5 265.5,54.5C 265.167,51.5 266.5,50.1667 269.5,50.5C 269.5,49.5 269.5,48.5 269.5,47.5C 270.5,47.5 271.5,47.5 272.5,47.5C 272.167,44.5 273.5,43.1667 276.5,43.5C 276.5,42.5 276.5,41.5 276.5,40.5C 278.833,40.5 281.167,40.5 283.5,40.5C 283.5,39.1667 283.5,37.8333 283.5,36.5C 285.833,36.5 288.167,36.5 290.5,36.5C 290.5,35.5 290.5,34.5 290.5,33.5C 292.099,33.7678 293.432,33.4345 294.5,32.5 Z M 283.5,115.5 C 282.167,115.5 280.833,115.5 279.5,115.5C 279.5,113.167 279.5,110.833 279.5,108.5C 278.5,108.5 277.5,108.5 276.5,108.5C 276.334,98.4944 276.5,88.4944 277,78.5C 278.527,76.779 279.527,74.779 280,72.5C 283.044,71.1971 284.211,68.8638 283.5,65.5C 284.5,65.5 285.5,65.5 286.5,65.5C 286.5,64.1667 286.5,62.8333 286.5,61.5C 288.527,61.6621 290.527,61.4955 292.5,61C 293.337,59.9887 293.67,58.8221 293.5,57.5C 295.831,57.5023 297.831,56.669 299.5,55C 309.828,54.5002 320.161,54.3335 330.5,54.5C 330.5,55.5 330.5,56.5 330.5,57.5C 332.833,57.5 335.167,57.5 337.5,57.5C 337.5,58.8333 337.5,60.1667 337.5,61.5C 339.995,62.1989 342.328,63.1989 344.5,64.5C 344.5,65.8333 344.5,67.1667 344.5,68.5C 345.5,68.5 346.5,68.5 347.5,68.5C 347.674,70.861 348.007,73.1944 348.5,75.5C 349.5,75.5 350.5,75.5 351.5,75.5C 351.5,86.5 351.5,97.5 351.5,108.5C 350.167,108.5 348.833,108.5 347.5,108.5C 347.5,110.833 347.5,113.167 347.5,115.5C 346.5,115.5 345.5,115.5 344.5,115.5C 344.908,118.599 343.741,120.933 341,122.5C 339.703,118.846 340.703,116.179 344,114.5C 344.667,100.833 344.667,87.1667 344,73.5C 342.989,72.6634 341.822,72.33 340.5,72.5C 341.028,67.1886 338.694,64.8553 333.5,65.5C 333.5,64.1667 333.5,62.8333 333.5,61.5C 320.5,61.5 307.5,61.5 294.5,61.5C 294.5,62.8333 294.5,64.1667 294.5,65.5C 289.362,64.9701 286.695,67.3035 286.5,72.5C 285.5,72.5 284.5,72.5 283.5,72.5C 283.5,86.8333 283.5,101.167 283.5,115.5 Z M 304.5,82.5 C 310.5,82.5 316.5,82.5 322.5,82.5C 322.5,91.1667 322.5,99.8333 322.5,108.5C 321.5,108.5 320.5,108.5 319.5,108.5C 319.5,110.833 319.5,113.167 319.5,115.5C 315.833,115.5 312.167,115.5 308.5,115.5C 308.5,113.167 308.5,110.833 308.5,108.5C 307.167,108.5 305.833,108.5 304.5,108.5C 304.5,99.8333 304.5,91.1667 304.5,82.5 Z M 283.5,115.5 C 284.496,115.414 285.329,115.748 286,116.5C 286.696,119.478 287.196,122.478 287.5,125.5C 291.172,126.045 290.838,126.378 286.5,126.5C 286.5,125.167 286.5,123.833 286.5,122.5C 285.5,122.5 284.5,122.5 283.5,122.5C 283.5,120.167 283.5,117.833 283.5,115.5 Z M 337.5,126.5 C 338.172,125.733 339.005,125.066 340,124.5C 340.188,126.061 339.355,126.728 337.5,126.5 Z M 337.5,126.5 C 337.5,128.833 337.5,131.167 337.5,133.5C 336.167,133.5 334.833,133.5 333.5,133.5C 333.5,134.5 333.5,135.5 333.5,136.5C 332.325,136.281 331.325,136.614 330.5,137.5C 329.652,139.409 329.318,141.409 329.5,143.5C 328.5,143.5 327.5,143.5 326.5,143.5C 326.5,144.833 326.5,146.167 326.5,147.5C 325.178,147.33 324.011,147.663 323,148.5C 322.964,150.941 322.131,152.941 320.5,154.5C 319.503,161.803 319.169,169.137 319.5,176.5C 315.833,176.5 312.167,176.5 308.5,176.5C 308.831,169.137 308.497,161.803 307.5,154.5C 304.907,152.929 303.907,150.596 304.5,147.5C 303.5,147.5 302.5,147.5 301.5,147.5C 298.679,143.154 296.346,138.487 294.5,133.5C 293.167,133.5 291.833,133.5 290.5,133.5C 290.5,132.167 290.5,130.833 290.5,129.5C 291.833,129.5 293.167,129.5 294.5,129.5C 294.351,130.552 294.517,131.552 295,132.5C 296.5,133.333 297.667,134.5 298.5,136C 308.828,136.5 319.161,136.666 329.5,136.5C 329.5,135.5 329.5,134.5 329.5,133.5C 332.5,133.833 333.833,132.5 333.5,129.5C 334.5,129.5 335.5,129.5 336.5,129.5C 336.263,128.209 336.596,127.209 337.5,126.5 Z M 301.5,193.5 C 309.833,193.5 318.167,193.5 326.5,193.5C 326.5,194.833 326.5,196.167 326.5,197.5C 327.5,197.5 328.5,197.5 329.5,197.5C 329.5,198.833 329.5,200.167 329.5,201.5C 328.5,201.5 327.5,201.5 326.5,201.5C 326.5,202.5 326.5,203.5 326.5,204.5C 318.14,204.831 309.807,204.498 301.5,203.5C 300.68,201.889 299.346,201.222 297.5,201.5C 297.5,200.167 297.5,198.833 297.5,197.5C 300.5,197.833 301.833,196.5 301.5,193.5 Z M 301.5,222.5 C 309.833,222.5 318.167,222.5 326.5,222.5C 326.888,224.685 327.888,226.518 329.5,228C 327.424,229.244 326.424,231.077 326.5,233.5C 318.167,233.5 309.833,233.5 301.5,233.5C 301.833,230.5 300.5,229.167 297.5,229.5C 298.833,227.167 300.167,224.833 301.5,222.5 Z M 308.5,251.5 C 312.167,251.5 315.833,251.5 319.5,251.5C 319.5,290.833 319.5,330.167 319.5,369.5C 317.876,369.36 316.71,370.027 316,371.5C 315.696,381.827 314.53,391.827 312.5,401.5C 311.167,401.5 309.833,401.5 308.5,401.5C 306.388,404.753 305.055,408.42 304.5,412.5C 303.5,412.5 302.5,412.5 301.5,412.5C 301.5,413.5 301.5,414.5 301.5,415.5C 298.5,415.167 297.167,416.5 297.5,419.5C 296.5,419.5 295.5,419.5 294.5,419.5C 293.167,421.833 291.833,424.167 290.5,426.5C 288.41,426.45 287.077,427.45 286.5,429.5C 282.173,430.377 278.173,431.877 274.5,434C 272.267,436.907 269.267,438.074 265.5,437.5C 265.5,438.5 265.5,439.5 265.5,440.5C 262.15,440.335 258.817,440.502 255.5,441C 254.663,442.011 254.33,443.178 254.5,444.5C 239.163,444.667 223.83,444.5 208.5,444C 205.539,440.966 201.872,439.799 197.5,440.5C 197.5,439.5 197.5,438.5 197.5,437.5C 195.167,437.5 192.833,437.5 190.5,437.5C 190.649,436.448 190.483,435.448 190,434.5C 188.095,433.842 186.595,432.675 185.5,431C 183.527,430.505 181.527,430.338 179.5,430.5C 179.5,429.167 179.5,427.833 179.5,426.5C 178.167,426.5 176.833,426.5 175.5,426.5C 174.801,424.005 173.801,421.672 172.5,419.5C 171.167,419.5 169.833,419.5 168.5,419.5C 168.5,418.167 168.5,416.833 168.5,415.5C 167.5,415.5 166.5,415.5 165.5,415.5C 164.521,411.912 163.188,408.579 161.5,405.5C 160.5,405.5 159.5,405.5 158.5,405.5C 158.326,403.139 157.993,400.806 157.5,398.5C 156.5,398.5 155.5,398.5 154.5,398.5C 154.663,396.143 154.497,393.81 154,391.5C 152.989,390.663 151.822,390.33 150.5,390.5C 150.5,387.167 150.5,383.833 150.5,380.5C 149.5,380.5 148.5,380.5 147.5,380.5C 147.74,372.125 147.407,363.792 146.5,355.5C 145.5,355.5 144.5,355.5 143.5,355.5C 143.5,333.833 143.5,312.167 143.5,290.5C 144.833,290.5 146.167,290.5 147.5,290.5C 147.167,293.5 148.5,294.833 151.5,294.5C 151.5,295.5 151.5,296.5 151.5,297.5C 152.5,297.5 153.5,297.5 154.5,297.5C 154.5,298.833 154.5,300.167 154.5,301.5C 155.833,301.5 157.167,301.5 158.5,301.5C 158.5,302.5 158.5,303.5 158.5,304.5C 159.5,304.5 160.5,304.5 161.5,304.5C 161.5,305.833 161.5,307.167 161.5,308.5C 162.833,308.5 164.167,308.5 165.5,308.5C 165.5,309.5 165.5,310.5 165.5,311.5C 163.958,312.609 160.291,312.943 154.5,312.5C 154.5,336.167 154.5,359.833 154.5,383.5C 155.833,383.5 157.167,383.5 158.5,383.5C 158.335,386.85 158.502,390.183 159,393.5C 160.952,395.337 161.952,397.671 162,400.5C 163.011,401.337 164.178,401.67 165.5,401.5C 165.343,402.873 165.51,404.207 166,405.5C 168.045,409.019 170.211,412.352 172.5,415.5C 173.833,415.5 175.167,415.5 176.5,415.5C 176.5,416.833 176.5,418.167 176.5,419.5C 177.5,419.5 178.5,419.5 179.5,419.5C 179.5,420.5 179.5,421.5 179.5,422.5C 180.833,422.5 182.167,422.5 183.5,422.5C 183.5,423.833 183.5,425.167 183.5,426.5C 185.833,426.5 188.167,426.5 190.5,426.5C 190.351,427.552 190.517,428.552 191,429.5C 192.905,430.158 194.405,431.325 195.5,433C 198.482,433.498 201.482,433.665 204.5,433.5C 204.33,434.822 204.663,435.989 205.5,437C 222.5,437.667 239.5,437.667 256.5,437C 257.973,436.29 258.64,435.124 258.5,433.5C 261.833,433.5 265.167,433.5 268.5,433.5C 268.5,432.5 268.5,431.5 268.5,430.5C 270.527,430.662 272.527,430.495 274.5,430C 275.973,429.29 276.64,428.124 276.5,426.5C 278.527,426.662 280.527,426.495 282.5,426C 283.337,424.989 283.67,423.822 283.5,422.5C 284.5,422.5 285.5,422.5 286.5,422.5C 286.5,421.5 286.5,420.5 286.5,419.5C 287.833,419.5 289.167,419.5 290.5,419.5C 290.5,418.167 290.5,416.833 290.5,415.5C 291.833,415.5 293.167,415.5 294.5,415.5C 294.5,414.5 294.5,413.5 294.5,412.5C 295.5,412.5 296.5,412.5 297.5,412.5C 297.5,411.167 297.5,409.833 297.5,408.5C 298.822,408.67 299.989,408.337 301,407.5C 301.495,405.527 301.662,403.527 301.5,401.5C 302.5,401.5 303.5,401.5 304.5,401.5C 304.5,399.167 304.5,396.833 304.5,394.5C 305.822,394.67 306.989,394.337 308,393.5C 308.5,346.168 308.667,298.835 308.5,251.5 Z"/></g>
</svg>
