<?xml version="1.0" encoding="UTF-8"?>
<!DOCTYPE svg PUBLIC "-//W3C//DTD SVG 1.1//EN" "http://www.w3.org/Graphics/SVG/1.1/DTD/svg11.dtd">
<svg xmlns="http://www.w3.org/2000/svg" version="1.1" width="500px" height="500px" style="shape-rendering:geometricPrecision; text-rendering:geometricPrecision; image-rendering:optimizeQuality; fill-rule:evenodd; clip-rule:evenodd" xmlns:xlink="http://www.w3.org/1999/xlink">
<g><path style="opacity:0.643" fill="#fefffe" d="M 141.5,63.5 C 149.84,63.3336 158.173,63.5003 166.5,64C 167.973,64.7096 168.64,65.8762 168.5,67.5C 169.833,67.5 171.167,67.5 172.5,67.5C 172.5,68.5 172.5,69.5 172.5,70.5C 173.5,70.5 174.5,70.5 175.5,70.5C 175.461,72.3588 176.294,73.6921 178,74.5C 178.667,83.8333 178.667,93.1667 178,102.5C 176.237,105.962 174.237,109.295 172,112.5C 171,113.167 170,113.833 169,114.5C 168.667,116.833 168.333,119.167 168,121.5C 166.213,124.054 164.713,126.72 163.5,129.5C 160.615,135.47 158.782,141.804 158,148.5C 157.586,148.957 157.086,149.291 156.5,149.5C 155.672,154.132 155.172,158.798 155,163.5C 154.333,164.167 153.667,164.833 153,165.5C 152.333,180.5 152.333,195.5 153,210.5C 153.414,210.957 153.914,211.291 154.5,211.5C 155.328,216.132 155.828,220.798 156,225.5C 157,226.5 158,227.5 159,228.5C 159.498,231.817 159.665,235.15 159.5,238.5C 160.5,238.5 161.5,238.5 162.5,238.5C 163.5,243.833 164.5,249.167 165.5,254.5C 166.5,254.5 167.5,254.5 168.5,254.5C 168.5,256.833 168.5,259.167 168.5,261.5C 169.833,261.5 171.167,261.5 172.5,261.5C 173.5,264.833 174.5,268.167 175.5,271.5C 176.5,271.5 177.5,271.5 178.5,271.5C 178.5,273.5 178.5,275.5 178.5,277.5C 179.833,277.5 181.167,277.5 182.5,277.5C 183.801,279.672 184.801,282.005 185.5,284.5C 186.5,284.5 187.5,284.5 188.5,284.5C 188.238,285.978 188.571,287.311 189.5,288.5C 191.276,291.832 193.276,294.832 195.5,297.5C 196.5,297.5 197.5,297.5 198.5,297.5C 198.5,298.5 198.5,299.5 198.5,300.5C 199.5,300.5 200.5,300.5 201.5,300.5C 201.5,301.5 201.5,302.5 201.5,303.5C 203.308,303.491 204.975,303.991 206.5,305C 209.059,307.111 211.726,308.944 214.5,310.5C 214.5,311.5 214.5,312.5 214.5,313.5C 215.833,313.5 217.167,313.5 218.5,313.5C 218.5,314.833 218.5,316.167 218.5,317.5C 220.5,317.5 222.5,317.5 224.5,317.5C 224.5,318.5 224.5,319.5 224.5,320.5C 225.833,320.5 227.167,320.5 228.5,320.5C 228.5,321.5 228.5,322.5 228.5,323.5C 230.5,323.5 232.5,323.5 234.5,323.5C 234.5,324.5 234.5,325.5 234.5,326.5C 236.591,326.318 238.591,326.652 240.5,327.5C 241.386,328.325 241.719,329.325 241.5,330.5C 243.5,330.5 245.5,330.5 247.5,330.5C 247.5,331.5 247.5,332.5 247.5,333.5C 249.833,333.5 252.167,333.5 254.5,333.5C 254.5,334.5 254.5,335.5 254.5,336.5C 257.518,336.335 260.518,336.502 263.5,337C 264.337,338.011 264.67,339.178 264.5,340.5C 267.833,340.5 271.167,340.5 274.5,340.5C 274.5,341.5 274.5,342.5 274.5,343.5C 279.833,343.5 285.167,343.5 290.5,343.5C 290.5,344.5 290.5,345.5 290.5,346.5C 305.848,346.833 321.181,346.499 336.5,345.5C 336.709,344.914 337.043,344.414 337.5,344C 342.167,343.667 346.833,343.333 351.5,343C 352.167,342.333 352.833,341.667 353.5,341C 356.817,340.502 360.15,340.335 363.5,340.5C 363.5,339.167 363.5,337.833 363.5,336.5C 368.524,334.582 373.857,333.582 379.5,333.5C 379.5,332.5 379.5,331.5 379.5,330.5C 381.833,330.5 384.167,330.5 386.5,330.5C 386.5,329.167 386.5,327.833 386.5,326.5C 389.427,324.382 392.76,323.382 396.5,323.5C 396.5,322.5 396.5,321.5 396.5,320.5C 405.839,320.334 415.173,320.5 424.5,321C 425.308,322.706 426.641,323.539 428.5,323.5C 428.5,324.5 428.5,325.5 428.5,326.5C 429.552,326.351 430.552,326.517 431.5,327C 432.158,328.905 433.325,330.405 435,331.5C 435.5,340.827 435.666,350.161 435.5,359.5C 434.5,359.5 433.5,359.5 432.5,359.5C 431.167,361.833 429.833,364.167 428.5,366.5C 427.5,366.5 426.5,366.5 425.5,366.5C 426.113,369.969 424.779,371.969 421.5,372.5C 421.5,373.5 421.5,374.5 421.5,375.5C 420.5,375.5 419.5,375.5 418.5,375.5C 416.98,379.681 413.98,382.015 409.5,382.5C 409.833,385.5 408.5,386.833 405.5,386.5C 405.5,387.5 405.5,388.5 405.5,389.5C 404.5,389.5 403.5,389.5 402.5,389.5C 402.5,390.5 402.5,391.5 402.5,392.5C 397.923,394.393 393.59,396.726 389.5,399.5C 389.5,400.5 389.5,401.5 389.5,402.5C 386.348,403.957 383.015,404.957 379.5,405.5C 379.719,406.675 379.386,407.675 378.5,408.5C 376.591,409.348 374.591,409.682 372.5,409.5C 372.5,410.5 372.5,411.5 372.5,412.5C 370.5,412.5 368.5,412.5 366.5,412.5C 366.5,413.5 366.5,414.5 366.5,415.5C 364.167,415.5 361.833,415.5 359.5,415.5C 359.5,416.5 359.5,417.5 359.5,418.5C 357.5,418.5 355.5,418.5 353.5,418.5C 353.67,419.822 353.337,420.989 352.5,422C 349.044,421.907 346.044,422.907 343.5,425C 341.167,425.333 338.833,425.667 336.5,426C 336.043,426.414 335.709,426.914 335.5,427.5C 331.555,428.491 327.555,428.824 323.5,428.5C 323.64,430.124 322.973,431.29 321.5,432C 317.5,432.333 313.5,432.667 309.5,433C 308.672,433.915 307.672,434.581 306.5,435C 281.833,435.667 257.167,435.667 232.5,435C 232.043,434.586 231.709,434.086 231.5,433.5C 226.171,432.681 220.838,432.014 215.5,431.5C 215.5,430.5 215.5,429.5 215.5,428.5C 212.167,428.5 208.833,428.5 205.5,428.5C 205.5,427.5 205.5,426.5 205.5,425.5C 202.167,425.5 198.833,425.5 195.5,425.5C 195.5,424.5 195.5,423.5 195.5,422.5C 193.143,422.663 190.81,422.497 188.5,422C 185.261,419.813 181.928,417.813 178.5,416C 176.527,415.505 174.527,415.338 172.5,415.5C 172.5,414.5 172.5,413.5 172.5,412.5C 167.742,411.948 163.742,409.781 160.5,406C 159.167,405.667 157.833,405.333 156.5,405C 153.78,402.619 150.78,400.619 147.5,399C 146.663,397.989 146.33,396.822 146.5,395.5C 145.167,395.5 143.833,395.5 142.5,395.5C 142.5,394.5 142.5,393.5 142.5,392.5C 138.051,390.353 133.717,388.019 129.5,385.5C 129.5,384.5 129.5,383.5 129.5,382.5C 128.5,382.5 127.5,382.5 126.5,382.5C 126.5,381.5 126.5,380.5 126.5,379.5C 125.5,379.5 124.5,379.5 123.5,379.5C 122.167,377.167 120.833,374.833 119.5,372.5C 118.5,372.5 117.5,372.5 116.5,372.5C 116.539,370.641 115.706,369.308 114,368.5C 113.506,366.866 113.34,365.199 113.5,363.5C 110.5,363.833 109.167,362.5 109.5,359.5C 108.5,359.5 107.5,359.5 106.5,359.5C 106.5,358.5 106.5,357.5 106.5,356.5C 105.5,356.5 104.5,356.5 103.5,356.5C 103.908,353.401 102.741,351.067 100,349.5C 99.5172,348.552 99.3505,347.552 99.5,346.5C 98.5,346.5 97.5,346.5 96.5,346.5C 95.5,343.167 94.5,339.833 93.5,336.5C 92.5,336.5 91.5,336.5 90.5,336.5C 90.5,334.5 90.5,332.5 90.5,330.5C 89.1779,330.67 88.0113,330.337 87,329.5C 86.5045,327.527 86.3379,325.527 86.5,323.5C 85.5,323.5 84.5,323.5 83.5,323.5C 83.5,321.167 83.5,318.833 83.5,316.5C 82.5,316.5 81.5,316.5 80.5,316.5C 80.5,314.5 80.5,312.5 80.5,310.5C 79.5,310.5 78.5,310.5 77.5,310.5C 76.7929,307.214 76.4595,303.881 76.5,300.5C 75.5,300.5 74.5,300.5 73.5,300.5C 73.5,297.167 73.5,293.833 73.5,290.5C 72.5,290.5 71.5,290.5 70.5,290.5C 70.5,287.167 70.5,283.833 70.5,280.5C 69.5,280.5 68.5,280.5 67.5,280.5C 67.8282,275.125 67.4948,269.792 66.5,264.5C 65.5224,264.023 64.6891,263.357 64,262.5C 63.3333,238.5 63.3333,214.5 64,190.5C 64.6891,189.643 65.5224,188.977 66.5,188.5C 67.3283,183.868 67.8283,179.202 68,174.5C 68.6667,173.833 69.3333,173.167 70,172.5C 70.4983,169.183 70.665,165.85 70.5,162.5C 71.5,162.5 72.5,162.5 73.5,162.5C 73.3354,159.482 73.502,156.482 74,153.5C 76.1025,151.697 76.9358,149.364 76.5,146.5C 77.8221,146.67 78.9887,146.337 80,145.5C 82.0001,139.086 84.1668,132.753 86.5,126.5C 87.8333,126.5 89.1667,126.5 90.5,126.5C 90.5,124.167 90.5,121.833 90.5,119.5C 91.5,119.5 92.5,119.5 93.5,119.5C 93.3398,117.801 93.5065,116.134 94,114.5C 98.1675,110.464 101.334,105.797 103.5,100.5C 104.5,100.5 105.5,100.5 106.5,100.5C 106.5,99.1667 106.5,97.8333 106.5,96.5C 107.5,96.5 108.5,96.5 109.5,96.5C 109.5,95.5 109.5,94.5 109.5,93.5C 110.833,93.5 112.167,93.5 113.5,93.5C 113.5,92.5 113.5,91.5 113.5,90.5C 114.5,90.5 115.5,90.5 116.5,90.5C 117.616,87.444 119.116,84.444 121,81.5C 124.722,77.9013 128.556,74.4013 132.5,71C 133.793,70.51 135.127,70.3433 136.5,70.5C 136.5,69.5 136.5,68.5 136.5,67.5C 137.5,67.5 138.5,67.5 139.5,67.5C 139.527,65.8007 140.194,64.4674 141.5,63.5 Z M 149.5,83.5 C 152.833,83.5 156.167,83.5 159.5,83.5C 159.5,86.8333 159.5,90.1667 159.5,93.5C 157.328,94.8011 154.995,95.8011 152.5,96.5C 152.5,95.5 152.5,94.5 152.5,93.5C 151.5,93.5 150.5,93.5 149.5,93.5C 149.5,92.5 149.5,91.5 149.5,90.5C 148.167,90.5 146.833,90.5 145.5,90.5C 145.5,89.1667 145.5,87.8333 145.5,86.5C 146.833,86.5 148.167,86.5 149.5,86.5C 149.5,85.5 149.5,84.5 149.5,83.5 Z M 129.5,103.5 C 130.5,103.5 131.5,103.5 132.5,103.5C 132.5,104.5 132.5,105.5 132.5,106.5C 133.833,106.5 135.167,106.5 136.5,106.5C 136.5,107.5 136.5,108.5 136.5,109.5C 137.5,109.5 138.5,109.5 139.5,109.5C 139.5,110.833 139.5,112.167 139.5,113.5C 140.5,113.5 141.5,113.5 142.5,113.5C 142.5,114.5 142.5,115.5 142.5,116.5C 143.5,116.5 144.5,116.5 145.5,116.5C 143.926,120.676 142.593,125.01 141.5,129.5C 140.914,129.709 140.414,130.043 140,130.5C 139.667,133.5 139.333,136.5 139,139.5C 138.586,139.957 138.086,140.291 137.5,140.5C 136.671,145.467 136.171,150.467 136,155.5C 134.667,156.167 133.667,157.167 133,158.5C 132.203,178.198 132.37,197.864 133.5,217.5C 134.5,217.5 135.5,217.5 136.5,217.5C 136.5,222.167 136.5,226.833 136.5,231.5C 137.5,231.5 138.5,231.5 139.5,231.5C 139.335,235.182 139.501,238.848 140,242.5C 141.677,246.428 143.511,250.261 145.5,254C 146.077,256.137 146.41,258.304 146.5,260.5C 147.5,260.5 148.5,260.5 149.5,260.5C 149.5,262.833 149.5,265.167 149.5,267.5C 150.5,267.5 151.5,267.5 152.5,267.5C 152.614,271.211 153.614,274.545 155.5,277.5C 156.833,277.5 158.167,277.5 159.5,277.5C 158.901,282.397 160.735,286.063 165,288.5C 165.494,290.134 165.66,291.801 165.5,293.5C 166.833,293.5 168.167,293.5 169.5,293.5C 169.5,294.833 169.5,296.167 169.5,297.5C 170.5,297.5 171.5,297.5 172.5,297.5C 172.5,298.5 172.5,299.5 172.5,300.5C 173.5,300.5 174.5,300.5 175.5,300.5C 175.357,302.262 175.691,303.929 176.5,305.5C 178.395,306.973 180.061,308.64 181.5,310.5C 182.386,311.325 182.719,312.325 182.5,313.5C 183.5,313.5 184.5,313.5 185.5,313.5C 185.5,314.5 185.5,315.5 185.5,316.5C 188.548,318.033 191.215,320.2 193.5,323C 195.134,323.494 196.801,323.66 198.5,323.5C 198.5,324.5 198.5,325.5 198.5,326.5C 199.5,326.5 200.5,326.5 201.5,326.5C 201.167,329.5 202.5,330.833 205.5,330.5C 205.5,331.5 205.5,332.5 205.5,333.5C 209.211,333.614 212.545,334.614 215.5,336.5C 215.5,337.5 215.5,338.5 215.5,339.5C 218.969,338.887 220.969,340.221 221.5,343.5C 222.833,343.5 224.167,343.5 225.5,343.5C 225.5,344.5 225.5,345.5 225.5,346.5C 227.5,346.5 229.5,346.5 231.5,346.5C 231.5,347.5 231.5,348.5 231.5,349.5C 233.833,349.5 236.167,349.5 238.5,349.5C 238.281,350.675 238.614,351.675 239.5,352.5C 241.776,353.213 244.109,353.713 246.5,354C 249.574,355.563 252.574,357.23 255.5,359C 259.486,359.499 263.486,359.666 267.5,359.5C 267.5,360.5 267.5,361.5 267.5,362.5C 272.179,362.987 276.846,363.653 281.5,364.5C 281.709,365.086 282.043,365.586 282.5,366C 302.5,366.667 322.5,366.667 342.5,366C 342.957,365.586 343.291,365.086 343.5,364.5C 347.819,363.714 352.153,363.047 356.5,362.5C 357.91,362.132 358.91,361.299 359.5,360C 362.817,359.502 366.15,359.335 369.5,359.5C 369.5,358.5 369.5,357.5 369.5,356.5C 372.983,357.084 375.983,356.251 378.5,354C 379.793,353.51 381.127,353.343 382.5,353.5C 382.5,354.5 382.5,355.5 382.5,356.5C 383.833,356.5 385.167,356.5 386.5,356.5C 386.5,357.5 386.5,358.5 386.5,359.5C 387.5,359.5 388.5,359.5 389.5,359.5C 390.199,361.995 391.199,364.328 392.5,366.5C 393.5,366.5 394.5,366.5 395.5,366.5C 395.5,367.5 395.5,368.5 395.5,369.5C 394.5,369.5 393.5,369.5 392.5,369.5C 391.199,371.672 390.199,374.005 389.5,376.5C 385.985,377.043 382.652,378.043 379.5,379.5C 379.5,380.5 379.5,381.5 379.5,382.5C 378.5,382.5 377.5,382.5 376.5,382.5C 376.5,383.833 376.5,385.167 376.5,386.5C 374.167,386.5 371.833,386.5 369.5,386.5C 369.5,387.5 369.5,388.5 369.5,389.5C 366.339,390.976 363.005,391.976 359.5,392.5C 359.5,393.5 359.5,394.5 359.5,395.5C 355.759,394.599 353.759,395.932 353.5,399.5C 351.167,399.5 348.833,399.5 346.5,399.5C 346.5,400.5 346.5,401.5 346.5,402.5C 342.685,401.918 339.351,402.752 336.5,405C 332.752,404.78 329.752,406.113 327.5,409C 324.183,409.498 320.85,409.665 317.5,409.5C 317.5,410.5 317.5,411.5 317.5,412.5C 302.821,414.714 287.821,415.88 272.5,416C 271.5,419.333 270.5,419.333 269.5,416C 253.186,415.816 237.186,414.65 221.5,412.5C 221.5,411.5 221.5,410.5 221.5,409.5C 218.167,409.5 214.833,409.5 211.5,409.5C 211.67,408.178 211.337,407.011 210.5,406C 207.518,405.502 204.518,405.335 201.5,405.5C 201.5,404.5 201.5,403.5 201.5,402.5C 199.396,402.799 197.396,402.466 195.5,401.5C 190.831,399.48 186.164,397.48 181.5,395.5C 181.5,394.5 181.5,393.5 181.5,392.5C 179.5,392.5 177.5,392.5 175.5,392.5C 175.5,391.5 175.5,390.5 175.5,389.5C 173.167,389.5 170.833,389.5 168.5,389.5C 168.5,388.5 168.5,387.5 168.5,386.5C 167.5,386.5 166.5,386.5 165.5,386.5C 165.67,385.178 165.337,384.011 164.5,383C 161.765,381.085 158.765,379.918 155.5,379.5C 155.5,378.5 155.5,377.5 155.5,376.5C 154.5,376.5 153.5,376.5 152.5,376.5C 151.861,374.24 150.694,372.24 149,370.5C 141.934,366.245 136.434,360.578 132.5,353.5C 131.5,353.5 130.5,353.5 129.5,353.5C 128.801,351.005 127.801,348.672 126.5,346.5C 125.167,346.5 123.833,346.5 122.5,346.5C 120.646,342.048 118.646,337.715 116.5,333.5C 115.5,333.5 114.5,333.5 113.5,333.5C 110.87,328.338 108.536,323.005 106.5,317.5C 105.5,317.5 104.5,317.5 103.5,317.5C 103.5,315.167 103.5,312.833 103.5,310.5C 102.167,310.5 100.833,310.5 99.5,310.5C 99.4177,304.857 98.4177,299.524 96.5,294.5C 95.5,294.5 94.5,294.5 93.5,294.5C 93.5,291.167 93.5,287.833 93.5,284.5C 92.5,284.5 91.5,284.5 90.5,284.5C 90.6641,281.813 90.4974,279.146 90,276.5C 89.2904,275.027 88.1238,274.36 86.5,274.5C 86.8282,269.125 86.4948,263.792 85.5,258.5C 84.914,258.291 84.414,257.957 84,257.5C 83.1669,236.825 83.3336,216.159 84.5,195.5C 85.086,195.291 85.586,194.957 86,194.5C 86.3333,190.167 86.6667,185.833 87,181.5C 90.0209,177.747 91.1876,173.414 90.5,168.5C 91.5,168.5 92.5,168.5 93.5,168.5C 93.6204,162.818 94.6204,157.484 96.5,152.5C 97.5,152.5 98.5,152.5 99.5,152.5C 99.5,150.167 99.5,147.833 99.5,145.5C 103.068,145.241 104.401,143.241 103.5,139.5C 104.5,139.5 105.5,139.5 106.5,139.5C 106.5,137.167 106.5,134.833 106.5,132.5C 107.5,132.5 108.5,132.5 109.5,132.5C 109.5,131.5 109.5,130.5 109.5,129.5C 110.5,129.5 111.5,129.5 112.5,129.5C 112.674,127.139 113.007,124.806 113.5,122.5C 114.5,122.5 115.5,122.5 116.5,122.5C 116.5,121.5 116.5,120.5 116.5,119.5C 117.5,119.5 118.5,119.5 119.5,119.5C 119.614,115.789 120.614,112.455 122.5,109.5C 123.833,109.5 125.167,109.5 126.5,109.5C 126.5,108.5 126.5,107.5 126.5,106.5C 127.5,106.5 128.5,106.5 129.5,106.5C 129.5,105.5 129.5,104.5 129.5,103.5 Z M 407.5,339.5 C 412.535,338.234 415.201,340.067 415.5,345C 415.029,348.146 414.029,350.979 412.5,353.5C 411.5,353.5 410.5,353.5 409.5,353.5C 409.833,350.5 408.5,349.167 405.5,349.5C 405.5,348.5 405.5,347.5 405.5,346.5C 404.5,346.5 403.5,346.5 402.5,346.5C 403.735,343.92 405.401,341.587 407.5,339.5 Z"/></g>
<g><path style="opacity:0.621" fill="#fefffe" d="M 99.5,218.5 C 103.514,218.334 107.514,218.501 111.5,219C 112.493,221.854 113.993,224.354 116,226.5C 116.12,241.821 117.286,256.821 119.5,271.5C 120.5,271.5 121.5,271.5 122.5,271.5C 122.5,274.5 122.5,277.5 122.5,280.5C 123.822,280.33 124.989,280.663 126,281.5C 129.024,290.4 132.524,299.067 136.5,307.5C 137.5,307.5 138.5,307.5 139.5,307.5C 139.5,309.5 139.5,311.5 139.5,313.5C 140.5,313.5 141.5,313.5 142.5,313.5C 142.5,314.833 142.5,316.167 142.5,317.5C 143.5,317.5 144.5,317.5 145.5,317.5C 147.599,320.041 148.932,323.041 149.5,326.5C 150.5,326.5 151.5,326.5 152.5,326.5C 152.5,327.833 152.5,329.167 152.5,330.5C 153.5,330.5 154.5,330.5 155.5,330.5C 155.5,331.5 155.5,332.5 155.5,333.5C 156.552,333.351 157.552,333.517 158.5,334C 159.333,335.5 160.5,336.667 162,337.5C 162.483,338.448 162.649,339.448 162.5,340.5C 163.5,340.5 164.5,340.5 165.5,340.5C 165.5,341.5 165.5,342.5 165.5,343.5C 166.5,343.5 167.5,343.5 168.5,343.5C 168.5,344.5 168.5,345.5 168.5,346.5C 169.833,346.5 171.167,346.5 172.5,346.5C 172.5,347.5 172.5,348.5 172.5,349.5C 174.308,349.491 175.975,349.991 177.5,351C 180.059,353.111 182.726,354.944 185.5,356.5C 185.5,357.5 185.5,358.5 185.5,359.5C 187.5,359.5 189.5,359.5 191.5,359.5C 191.5,360.833 191.5,362.167 191.5,363.5C 193.527,363.338 195.527,363.505 197.5,364C 199.708,365.775 202.042,367.275 204.5,368.5C 208.915,369.897 213.248,371.397 217.5,373C 218.337,374.011 218.67,375.178 218.5,376.5C 221.833,376.5 225.167,376.5 228.5,376.5C 228.5,377.5 228.5,378.5 228.5,379.5C 232.833,379.5 237.167,379.5 241.5,379.5C 241.5,380.5 241.5,381.5 241.5,382.5C 251.839,382.334 262.172,382.5 272.5,383C 274.363,385.516 276.863,387.016 280,387.5C 280.499,391.486 280.666,395.486 280.5,399.5C 279.5,399.5 278.5,399.5 277.5,399.5C 277.5,400.5 277.5,401.5 277.5,402.5C 264.5,402.5 251.5,402.5 238.5,402.5C 238.5,401.5 238.5,400.5 238.5,399.5C 233.12,399.676 227.787,399.342 222.5,398.5C 222.5,397.5 222.5,396.5 222.5,395.5C 219.15,395.665 215.817,395.498 212.5,395C 209.972,392.943 206.972,391.943 203.5,392C 200.11,390.269 196.776,388.435 193.5,386.5C 191.865,385.954 190.199,385.62 188.5,385.5C 188.5,384.5 188.5,383.5 188.5,382.5C 186.5,382.5 184.5,382.5 182.5,382.5C 182.5,381.5 182.5,380.5 182.5,379.5C 179.545,377.614 176.211,376.614 172.5,376.5C 172.5,375.167 172.5,373.833 172.5,372.5C 169.515,370.555 166.182,369.555 162.5,369.5C 162.5,368.5 162.5,367.5 162.5,366.5C 161.5,366.5 160.5,366.5 159.5,366.5C 158.167,364.167 156.833,361.833 155.5,359.5C 154.5,359.5 153.5,359.5 152.5,359.5C 152.5,358.5 152.5,357.5 152.5,356.5C 150.24,355.861 148.24,354.694 146.5,353C 144.747,351.001 143.413,348.835 142.5,346.5C 141.5,346.5 140.5,346.5 139.5,346.5C 139.5,345.5 139.5,344.5 139.5,343.5C 138.5,343.5 137.5,343.5 136.5,343.5C 136.5,342.167 136.5,340.833 136.5,339.5C 135.167,339.5 133.833,339.5 132.5,339.5C 132.5,338.5 132.5,337.5 132.5,336.5C 131.5,336.5 130.5,336.5 129.5,336.5C 129.386,332.789 128.386,329.455 126.5,326.5C 125.325,326.719 124.325,326.386 123.5,325.5C 121.986,322.477 120.653,319.477 119.5,316.5C 118.5,316.5 117.5,316.5 116.5,316.5C 116.5,314.5 116.5,312.5 116.5,310.5C 115.5,310.5 114.5,310.5 113.5,310.5C 113.5,308.167 113.5,305.833 113.5,303.5C 112.178,303.67 111.011,303.337 110,302.5C 109.952,299.671 108.952,297.337 107,295.5C 106.503,292.854 106.336,290.187 106.5,287.5C 105.5,287.5 104.5,287.5 103.5,287.5C 103.82,284.102 103.487,280.768 102.5,277.5C 101.029,276.619 100.196,275.286 100,273.5C 99.501,269.179 99.3343,264.846 99.5,260.5C 98.5,260.5 97.5,260.5 96.5,260.5C 96.1675,247.483 96.5009,234.483 97.5,221.5C 98.9185,220.995 99.5852,219.995 99.5,218.5 Z"/></g>
</svg>
