<?xml version="1.0" encoding="UTF-8"?>
<!DOCTYPE svg PUBLIC "-//W3C//DTD SVG 1.1//EN" "http://www.w3.org/Graphics/SVG/1.1/DTD/svg11.dtd">
<svg xmlns="http://www.w3.org/2000/svg" version="1.1" width="500px" height="500px" style="shape-rendering:geometricPrecision; text-rendering:geometricPrecision; image-rendering:optimizeQuality; fill-rule:evenodd; clip-rule:evenodd" xmlns:xlink="http://www.w3.org/1999/xlink">
<g><path style="opacity:0.861" fill="#fdfdfd" d="M 220.5,32.5 C 231.826,30.505 238.993,34.8384 242,45.5C 242.167,95.5033 242.667,145.503 243.5,195.5C 252.153,202.331 261.82,207.164 272.5,210C 283.958,211.97 295.458,213.47 307,214.5C 317.399,213.53 327.732,212.197 338,210.5C 342.209,211.079 343.543,213.746 342,218.5C 340.338,223.823 337.004,227.49 332,229.5C 315.099,230.723 298.266,230.723 281.5,229.5C 281.333,265.168 281.5,300.835 282,336.5C 283.446,341.607 286.112,345.94 290,349.5C 292.482,356.554 294.315,363.721 295.5,371C 294.316,378.291 292.482,385.458 290,392.5C 286.518,395.977 283.852,399.977 282,404.5C 281.308,421.975 280.975,439.308 281,456.5C 279.028,460.825 275.694,463.492 271,464.5C 263.574,465.461 257.574,462.795 253,456.5C 251.734,438.21 251.067,419.877 251,401.5C 247.897,396.731 245.231,391.731 243,386.5C 242.667,408.833 242.333,431.167 242,453.5C 241.243,459.181 238.076,462.681 232.5,464C 229.852,464.099 227.352,464.265 225,464.5C 222.106,463.303 219.273,461.97 216.5,460.5C 214.473,457.779 212.973,454.779 212,451.5C 211.667,405.833 211.333,360.167 211,314.5C 208.874,308.373 205.874,302.707 202,297.5C 196.633,284.924 196.633,272.59 202,260.5C 205.265,255.633 208.265,250.633 211,245.5C 211.667,238.167 211.667,230.833 211,223.5C 195.181,229.959 178.681,232.792 161.5,232C 156.561,227.955 153.895,222.788 153.5,216.5C 173.81,217.38 192.81,213.88 210.5,206C 211.554,204.612 211.72,203.112 211,201.5C 192.123,207.768 172.623,210.602 152.5,210C 150.988,204.932 151.655,200.099 154.5,195.5C 173.849,193.599 192.849,189.933 211.5,184.5C 211.333,136.166 211.5,87.8322 212,39.5C 213.883,38.3474 214.716,36.6807 214.5,34.5C 216.786,34.405 218.786,33.7384 220.5,32.5 Z M 242.5,215.5 C 245.014,217.013 247.68,218.346 250.5,219.5C 251.666,234.822 251.833,250.156 251,265.5C 249.211,259.716 246.545,254.383 243,249.5C 242.5,238.172 242.333,226.838 242.5,215.5 Z M 216.5,258.5 C 227.64,258.571 234.307,264.071 236.5,275C 235.055,279.333 233.222,283.499 231,287.5C 226.739,291.221 221.906,292.221 216.5,290.5C 210.029,284.897 207.529,277.897 209,269.5C 211.33,265.678 213.83,262.012 216.5,258.5 Z M 250.5,292.5 C 251.661,307.995 251.828,323.661 251,339.5C 249.185,343.796 246.852,347.796 244,351.5C 243.667,353.167 243.333,354.833 243,356.5C 242.333,340.5 242.333,324.5 243,308.5C 244.497,304.835 246.497,301.502 249,298.5C 249.813,296.564 250.313,294.564 250.5,292.5 Z M 232.5,294.5 C 236.175,296.358 237.175,299.191 235.5,303C 230.338,304.424 228.171,302.59 229,297.5C 230.145,296.364 231.312,295.364 232.5,294.5 Z M 271.5,346.5 C 272.873,346.343 274.207,346.51 275.5,347C 276.257,348.512 277.257,349.846 278.5,351C 276.356,356.168 273.523,356.668 270,352.5C 269.252,350.16 269.752,348.16 271.5,346.5 Z M 263.5,360.5 C 269.369,360.066 274.202,362.066 278,366.5C 279.336,375.706 276.503,383.206 269.5,389C 265.239,390.363 260.905,390.696 256.5,390C 249.225,382.993 248.058,375.16 253,366.5C 256.676,364.585 260.176,362.585 263.5,360.5 Z"/></g>
<g><path style="opacity:0.882" fill="#fcfcfc" d="M 259.5,32.5 C 266.061,31.9186 272.395,32.752 278.5,35C 279.46,36.4194 280.293,37.9194 281,39.5C 281.167,84.1704 281.667,128.837 282.5,173.5C 295.78,178.276 308.78,180.11 321.5,179C 327.909,182.244 333.243,186.744 337.5,192.5C 337.291,193.086 336.957,193.586 336.5,194C 317.924,196.504 299.591,195.671 281.5,191.5C 281.665,194.85 281.498,198.183 281,201.5C 280.275,202.059 279.442,202.392 278.5,202.5C 268.374,200.043 259.707,195.043 252.5,187.5C 251.333,138.17 251.167,88.8367 252,39.5C 252.707,37.9194 253.54,36.4194 254.5,35C 256.491,34.6264 258.158,33.793 259.5,32.5 Z"/></g>
<g><path style="opacity:0.863" fill="#fdfdfd" d="M 124.5,79.5 C 148.265,75.5387 167.432,82.872 182,101.5C 197.143,129.135 193.31,153.635 170.5,175C 160.417,181.088 151.583,188.588 144,197.5C 140.877,205.447 140.877,213.447 144,221.5C 151.75,229.586 159.75,237.253 168,244.5C 172.721,250.221 177.054,256.221 181,262.5C 191.108,289.71 185.275,312.543 163.5,331C 157.93,334.553 151.93,337.22 145.5,339C 137.167,339.667 128.833,339.667 120.5,339C 95.399,332.236 75.5657,318.069 61,296.5C 33.5138,253.897 27.1805,208.23 42,159.5C 54.2907,129.888 73.7907,106.388 100.5,89C 108.497,85.4185 116.497,82.2518 124.5,79.5 Z M 132.5,99.5 C 148.925,98.2898 160.759,104.956 168,119.5C 169.557,126.753 169.89,134.086 169,141.5C 167.33,147.083 164.496,151.916 160.5,156C 148.736,164.099 137.903,173.266 128,183.5C 117.879,201.323 118.213,218.989 129,236.5C 139.436,246.754 149.603,257.087 159.5,267.5C 169.235,287.058 165.235,303.225 147.5,316C 142.76,317.56 137.927,318.727 133,319.5C 115.76,317.213 101.093,309.88 89,297.5C 60.8382,264.03 50.1715,225.696 57,182.5C 65.7916,147.728 85.7916,121.728 117,104.5C 122.183,102.51 127.35,100.843 132.5,99.5 Z"/></g>
<g><path style="opacity:0.864" fill="#fdfdfd" d="M 343.5,79.5 C 356.398,78.6112 369.065,79.7779 381.5,83C 422.089,102.604 447.589,134.437 458,178.5C 462.919,207.139 460.585,235.139 451,262.5C 442.447,286.38 428.28,306.547 408.5,323C 397.557,330.65 385.557,335.984 372.5,339C 346.733,342.847 327.233,333.681 314,311.5C 304.869,288.068 308.203,266.735 324,247.5C 332.733,239.266 341.233,230.933 349.5,222.5C 351.955,218.357 352.955,213.857 352.5,209C 353.118,203.972 351.951,199.472 349,195.5C 339.386,186.87 329.553,178.703 319.5,171C 303.829,153.768 299.663,133.935 307,111.5C 314.681,95.6484 326.848,84.9818 343.5,79.5 Z M 352.5,99.5 C 361.523,99.7254 370.19,101.559 378.5,105C 403.309,118.48 421.142,138.313 432,164.5C 445.509,206.388 440.509,246.055 417,283.5C 407.177,297.997 394.344,308.83 378.5,316C 362.664,322.412 348.831,319.579 337,307.5C 326.027,290.843 327.36,275.176 341,260.5C 348.793,253.14 356.459,245.806 364,238.5C 373.49,225.106 376.157,210.44 372,194.5C 368.165,184.653 361.998,176.486 353.5,170C 346.102,164.875 338.935,159.375 332,153.5C 319.635,133.787 322.802,116.953 341.5,103C 345.333,101.966 348.999,100.8 352.5,99.5 Z"/></g>
</svg>
