<?xml version="1.0" encoding="UTF-8"?>
<!DOCTYPE svg PUBLIC "-//W3C//DTD SVG 1.1//EN" "http://www.w3.org/Graphics/SVG/1.1/DTD/svg11.dtd">
<svg xmlns="http://www.w3.org/2000/svg" version="1.1" width="500px" height="500px" style="shape-rendering:geometricPrecision; text-rendering:geometricPrecision; image-rendering:optimizeQuality; fill-rule:evenodd; clip-rule:evenodd" xmlns:xlink="http://www.w3.org/1999/xlink">
<g><path style="opacity:0.952" fill="#fefffe" d="M 142.5,41.5 C 213.834,41.3333 285.167,41.5 356.5,42C 365.436,46.0379 368.936,52.8713 367,62.5C 364.85,66.6568 362.684,70.8235 360.5,75C 363.042,77.8817 365.209,81.0484 367,84.5C 367.667,88.1667 367.667,91.8333 367,95.5C 364.05,100.118 360.716,104.452 357,108.5C 356.333,110.833 356.333,113.167 357,115.5C 371.487,128.47 380.82,144.47 385,163.5C 385.667,238.5 385.667,313.5 385,388.5C 378.846,427.987 356.013,450.82 316.5,457C 269.472,457.965 222.472,457.632 175.5,456C 140.118,447.617 119.618,425.451 114,389.5C 113.333,314.167 113.333,238.833 114,163.5C 117.671,144.152 127.004,128.152 142,115.5C 142.667,113.167 142.667,110.833 142,108.5C 138.284,104.452 134.95,100.118 132,95.5C 131.333,91.8333 131.333,88.1667 132,84.5C 133.791,81.0484 135.958,77.8817 138.5,75C 136.75,70.9202 134.583,67.0869 132,63.5C 129.89,53.3893 133.39,46.056 142.5,41.5 Z M 158.5,111.5 C 219.5,111.5 280.5,111.5 341.5,111.5C 340.908,117.105 341.741,122.439 344,127.5C 347.5,131 351,134.5 354.5,138C 323.502,138.5 292.502,138.667 261.5,138.5C 261.5,141.5 261.5,144.5 261.5,147.5C 294.835,147.333 328.168,147.5 361.5,148C 365.25,154.747 367.916,161.914 369.5,169.5C 289.5,170.833 209.5,170.833 129.5,169.5C 131.084,161.914 133.75,154.747 137.5,148C 171.165,147.5 204.832,147.333 238.5,147.5C 238.5,144.5 238.5,141.5 238.5,138.5C 207.165,138.667 175.832,138.5 144.5,138C 149.415,133.756 153.581,128.923 157,123.5C 158.015,119.56 158.515,115.56 158.5,111.5 Z M 129.5,189.5 C 209.5,189.5 289.5,189.5 369.5,189.5C 369.667,253.168 369.5,316.834 369,380.5C 365.206,411.628 348.039,430.795 317.5,438C 272.167,438.667 226.833,438.667 181.5,438C 151.439,430.938 134.272,412.105 130,381.5C 129.5,317.501 129.333,253.501 129.5,189.5 Z M 246.5,246.5 C 252.328,246.05 257.995,246.716 263.5,248.5C 265.436,251.208 265.936,254.208 265,257.5C 254.397,263.558 244.563,262.392 235.5,254C 238.818,250.825 242.485,248.325 246.5,246.5 Z M 201.5,295.5 C 210.748,294.882 219.748,296.049 228.5,299C 230.378,300.543 231.878,302.376 233,304.5C 233.896,309.949 233.563,315.282 232,320.5C 229.9,323.467 227.066,325.3 223.5,326C 205.447,330.866 190.281,326.366 178,312.5C 177.333,311.833 177.333,311.167 178,310.5C 184.57,303.311 192.403,298.311 201.5,295.5 Z M 250.5,361.5 C 254.831,362.151 259.165,362.984 263.5,364C 265.745,366.896 266.078,370.063 264.5,373.5C 256.15,377.566 247.817,377.4 239.5,373C 238.167,371.667 236.833,370.333 235.5,369C 240.06,365.386 245.06,362.886 250.5,361.5 Z"/></g>
<g><path style="opacity:0.946" fill="#fefffe" d="M 243.5,229.5 C 251.238,229.144 258.905,229.644 266.5,231C 272.808,233.143 277.808,236.977 281.5,242.5C 285.108,241.407 288.775,241.24 292.5,242C 297.203,243.438 301.703,245.271 306,247.5C 314.762,242.451 323.596,242.284 332.5,247C 334.684,249.016 336.684,251.183 338.5,253.5C 334.849,257.652 331.016,261.652 327,265.5C 325.261,263.259 323.094,261.592 320.5,260.5C 312.83,265.341 304.83,266.175 296.5,263C 292.402,258.931 287.736,257.931 282.5,260C 280.694,267.808 276.027,273.141 268.5,276C 249.912,281.896 234.079,277.729 221,263.5C 215.539,253.525 217.372,245.025 226.5,238C 231.731,234.102 237.397,231.269 243.5,229.5 Z M 246.5,246.5 C 242.485,248.325 238.818,250.825 235.5,254C 244.563,262.392 254.397,263.558 265,257.5C 265.936,254.208 265.436,251.208 263.5,248.5C 257.995,246.716 252.328,246.05 246.5,246.5 Z"/></g>
<g><path style="opacity:0.943" fill="#fefffe" d="M 198.5,278.5 C 210.054,277.755 221.387,278.922 232.5,282C 241.033,285.538 247.199,291.371 251,299.5C 264.294,295.295 276.461,297.462 287.5,306C 288.833,306.167 290.167,306.333 291.5,306.5C 297.345,305.246 303.011,303.413 308.5,301C 320.416,299.527 330.249,303.36 338,312.5C 338.667,313.5 338.667,314.5 338,315.5C 334.621,319.216 330.954,322.549 327,325.5C 324.551,324.056 322.385,322.222 320.5,320C 318.275,318.869 315.942,318.036 313.5,317.5C 308.91,318.797 304.577,320.63 300.5,323C 294.5,325 288.5,325 282.5,323C 276.534,318.934 270.034,316.1 263,314.5C 258.796,315.426 254.629,316.426 250.5,317.5C 248.556,331.613 240.556,340.113 226.5,343C 202.231,348.907 181.731,342.74 165,324.5C 158.754,315.28 159.088,306.28 166,297.5C 175.149,288.179 185.982,281.846 198.5,278.5 Z M 201.5,295.5 C 192.403,298.311 184.57,303.311 178,310.5C 177.333,311.167 177.333,311.833 178,312.5C 190.281,326.366 205.447,330.866 223.5,326C 227.066,325.3 229.9,323.467 232,320.5C 233.563,315.282 233.896,309.949 233,304.5C 231.878,302.376 230.378,300.543 228.5,299C 219.748,296.049 210.748,294.882 201.5,295.5 Z"/></g>
<g><path style="opacity:0.943" fill="#fefffe" d="M 246.5,344.5 C 256.877,343.832 266.544,345.999 275.5,351C 277.7,353.234 279.533,355.734 281,358.5C 285.413,357.368 289.913,357.201 294.5,358C 298.547,359.44 302.38,361.274 306,363.5C 314.279,358.879 322.779,358.379 331.5,362C 334.513,363.679 336.846,366.013 338.5,369C 335.333,373.5 331.5,377.333 327,380.5C 324.952,378.947 322.785,377.614 320.5,376.5C 314.264,380.083 307.597,381.249 300.5,380C 296.116,378.137 291.783,376.304 287.5,374.5C 285.701,374.577 284.034,375.077 282.5,376C 279.924,383.577 274.924,388.91 267.5,392C 248.279,397.589 232.446,392.756 220,377.5C 215.995,367.505 218.495,359.339 227.5,353C 233.446,349.022 239.779,346.188 246.5,344.5 Z M 250.5,361.5 C 245.06,362.886 240.06,365.386 235.5,369C 236.833,370.333 238.167,371.667 239.5,373C 247.817,377.4 256.15,377.566 264.5,373.5C 266.078,370.063 265.745,366.896 263.5,364C 259.165,362.984 254.831,362.151 250.5,361.5 Z"/></g>
</svg>
