<?xml version="1.0" encoding="UTF-8"?>
<!DOCTYPE svg PUBLIC "-//W3C//DTD SVG 1.1//EN" "http://www.w3.org/Graphics/SVG/1.1/DTD/svg11.dtd">
<svg xmlns="http://www.w3.org/2000/svg" version="1.1" width="500px" height="500px" style="shape-rendering:geometricPrecision; text-rendering:geometricPrecision; image-rendering:optimizeQuality; fill-rule:evenodd; clip-rule:evenodd" xmlns:xlink="http://www.w3.org/1999/xlink">
<g><path style="opacity:0.641" fill="#fefffe" d="M 221.5,37.5 C 227.509,37.3338 233.509,37.5005 239.5,38C 240.337,39.0113 240.67,40.1779 240.5,41.5C 243.833,41.5 247.167,41.5 250.5,41.5C 250.5,42.5 250.5,43.5 250.5,44.5C 251.833,44.5 253.167,44.5 254.5,44.5C 254.5,45.8333 254.5,47.1667 254.5,48.5C 255.5,48.5 256.5,48.5 257.5,48.5C 257.5,49.5 257.5,50.5 257.5,51.5C 258.822,51.33 259.989,51.6634 261,52.5C 261.048,55.3294 262.048,57.6627 264,59.5C 264.667,68.8333 264.667,78.1667 264,87.5C 263.586,87.9574 263.086,88.2907 262.5,88.5C 261.511,92.1073 261.177,95.774 261.5,99.5C 260.167,99.5 258.833,99.5 257.5,99.5C 257.808,101.924 257.474,104.257 256.5,106.5C 254.976,108.483 253.976,110.816 253.5,113.5C 250.907,115.071 249.907,117.404 250.5,120.5C 249.5,120.5 248.5,120.5 247.5,120.5C 247.5,121.5 247.5,122.5 247.5,123.5C 246.5,123.5 245.5,123.5 244.5,123.5C 244.657,124.873 244.49,126.207 244,127.5C 242.306,129.24 241.139,131.24 240.5,133.5C 237.886,133.277 236.219,134.444 235.5,137C 233.866,137.494 232.199,137.66 230.5,137.5C 230.5,138.5 230.5,139.5 230.5,140.5C 227.618,140.608 225.285,141.774 223.5,144C 221.19,144.497 218.857,144.663 216.5,144.5C 216.5,145.5 216.5,146.5 216.5,147.5C 206.167,147.5 195.833,147.5 185.5,147.5C 185.5,148.833 185.5,150.167 185.5,151.5C 184.5,151.5 183.5,151.5 182.5,151.5C 182.5,152.5 182.5,153.5 182.5,154.5C 179.482,154.335 176.482,154.502 173.5,155C 171.771,156.789 171.104,158.956 171.5,161.5C 170.5,161.5 169.5,161.5 168.5,161.5C 166.867,164.169 165.7,167.169 165,170.5C 161.986,173.447 160.652,177.113 161,181.5C 159.099,185.434 156.932,189.101 154.5,192.5C 153.167,192.5 151.833,192.5 150.5,192.5C 150.5,193.5 150.5,194.5 150.5,195.5C 146.389,194.022 142.055,192.689 137.5,191.5C 135.066,192.91 132.732,194.41 130.5,196C 133.817,196.498 137.15,196.665 140.5,196.5C 140.5,200.833 140.5,205.167 140.5,209.5C 139.5,209.5 138.5,209.5 137.5,209.5C 137.67,210.822 137.337,211.989 136.5,213C 134.226,213.47 132.226,214.47 130.5,216C 128.19,216.497 125.857,216.663 123.5,216.5C 123.5,217.5 123.5,218.5 123.5,219.5C 115.51,220.072 107.51,220.738 99.5,221.5C 99.2907,222.086 98.9574,222.586 98.5,223C 95.8333,223.333 93.1667,223.667 90.5,224C 89.3826,225.892 87.7159,226.725 85.5,226.5C 85.5,227.833 85.5,229.167 85.5,230.5C 84.5,230.5 83.5,230.5 82.5,230.5C 82.5,231.5 82.5,232.5 82.5,233.5C 80.1667,234.833 77.8333,236.167 75.5,237.5C 75.5,238.5 75.5,239.5 75.5,240.5C 74.5,240.5 73.5,240.5 72.5,240.5C 72.9215,243.657 71.7548,245.99 69,247.5C 68.5172,248.448 68.3505,249.448 68.5,250.5C 67.5,250.5 66.5,250.5 65.5,250.5C 65.5,251.833 65.5,253.167 65.5,254.5C 64.1667,254.5 62.8333,254.5 61.5,254.5C 61.9167,257.079 61.25,259.246 59.5,261C 53.5837,261.807 47.7504,261.641 42,260.5C 41.3333,251.833 41.3333,243.167 42,234.5C 44.1985,228.438 47.1985,222.771 51,217.5C 51.49,216.207 51.6567,214.873 51.5,213.5C 52.8333,213.5 54.1667,213.5 55.5,213.5C 55.5549,209.818 56.5549,206.485 58.5,203.5C 61.5,203.833 62.8333,202.5 62.5,199.5C 64.3588,199.539 65.6921,198.706 66.5,197C 68.4727,196.505 70.4727,196.338 72.5,196.5C 72.5,195.167 72.5,193.833 72.5,192.5C 75.2257,192.736 77.559,191.903 79.5,190C 82.8168,189.502 86.1501,189.335 89.5,189.5C 89.33,188.178 89.6634,187.011 90.5,186C 97.1915,185.831 103.858,185.331 110.5,184.5C 114.162,182.914 117.495,180.914 120.5,178.5C 120.5,177.5 120.5,176.5 120.5,175.5C 121.5,175.5 122.5,175.5 123.5,175.5C 123.338,173.473 123.505,171.473 124,169.5C 125.011,168.663 126.178,168.33 127.5,168.5C 127.5,166.167 127.5,163.833 127.5,161.5C 128.5,161.5 129.5,161.5 130.5,161.5C 130.338,159.473 130.505,157.473 131,155.5C 132.011,154.663 133.178,154.33 134.5,154.5C 134.5,152.167 134.5,149.833 134.5,147.5C 135.5,147.5 136.5,147.5 137.5,147.5C 137.5,145.5 137.5,143.5 137.5,141.5C 138.833,141.5 140.167,141.5 141.5,141.5C 140.945,136.75 142.611,133.083 146.5,130.5C 147.445,127.212 148.112,123.879 148.5,120.5C 149.5,120.5 150.5,120.5 151.5,120.5C 151.5,119.5 151.5,118.5 151.5,117.5C 152.5,117.5 153.5,117.5 154.5,117.5C 154.167,114.5 155.5,113.167 158.5,113.5C 158.5,112.167 158.5,110.833 158.5,109.5C 157.178,109.67 156.011,109.337 155,108.5C 154.333,103.167 154.333,97.8333 155,92.5C 157.985,88.7803 159.152,84.447 158.5,79.5C 159.5,79.5 160.5,79.5 161.5,79.5C 161.338,77.4727 161.505,75.4727 162,73.5C 163.011,72.6634 164.178,72.33 165.5,72.5C 165.5,71.1667 165.5,69.8333 165.5,68.5C 166.5,68.5 167.5,68.5 168.5,68.5C 168.5,67.5 168.5,66.5 168.5,65.5C 169.5,65.5 170.5,65.5 171.5,65.5C 171.167,62.5 172.5,61.1667 175.5,61.5C 175.5,60.5 175.5,59.5 175.5,58.5C 176.5,58.5 177.5,58.5 178.5,58.5C 178.5,57.5 178.5,56.5 178.5,55.5C 182.158,54.2323 185.824,52.8989 189.5,51.5C 189.5,50.5 189.5,49.5 189.5,48.5C 191.833,48.5 194.167,48.5 196.5,48.5C 196.33,47.1779 196.663,46.0113 197.5,45C 200.482,44.502 203.482,44.3354 206.5,44.5C 206.5,43.5 206.5,42.5 206.5,41.5C 210.514,41.6655 214.514,41.4988 218.5,41C 219.71,39.9609 220.71,38.7942 221.5,37.5 Z M 216.5,58.5 C 223.863,58.1694 231.197,58.5027 238.5,59.5C 240.395,60.973 242.061,62.6397 243.5,64.5C 244.665,72.145 244.831,79.8117 244,87.5C 241.093,89.7334 239.926,92.7334 240.5,96.5C 239.5,96.5 238.5,96.5 237.5,96.5C 237.5,98.8333 237.5,101.167 237.5,103.5C 236.178,103.33 235.011,103.663 234,104.5C 233.35,107.784 232.184,110.784 230.5,113.5C 229.448,113.351 228.448,113.517 227.5,114C 226.667,115.5 225.5,116.667 224,117.5C 223.517,118.448 223.351,119.448 223.5,120.5C 222.5,120.5 221.5,120.5 220.5,120.5C 220.5,121.5 220.5,122.5 220.5,123.5C 218.473,123.338 216.473,123.505 214.5,124C 213.663,125.011 213.33,126.178 213.5,127.5C 206.5,127.5 199.5,127.5 192.5,127.5C 192.67,126.178 192.337,125.011 191.5,124C 189.527,123.505 187.527,123.338 185.5,123.5C 185.5,122.5 185.5,121.5 185.5,120.5C 184.5,120.5 183.5,120.5 182.5,120.5C 182.833,117.5 181.5,116.167 178.5,116.5C 178.5,114.5 178.5,112.5 178.5,110.5C 177.5,110.5 176.5,110.5 175.5,110.5C 175.17,104.132 175.504,97.7985 176.5,91.5C 178.086,89.8273 178.753,87.8273 178.5,85.5C 179.675,85.719 180.675,85.3857 181.5,84.5C 183.014,81.4769 184.347,78.4769 185.5,75.5C 189.256,75.4667 192.589,74.4667 195.5,72.5C 195.5,71.1667 195.5,69.8333 195.5,68.5C 197.199,68.6602 198.866,68.4935 200.5,68C 203.808,66.4292 206.808,64.4292 209.5,62C 211.81,61.5034 214.143,61.3367 216.5,61.5C 216.5,60.5 216.5,59.5 216.5,58.5 Z"/></g>
<g><path style="opacity:0.606" fill="#fefffe" d="M 375.5,41.5 C 390.837,41.3334 406.17,41.5001 421.5,42C 423.653,44.1651 426.319,44.9984 429.5,44.5C 429.5,45.8333 429.5,47.1667 429.5,48.5C 431.833,48.5 434.167,48.5 436.5,48.5C 436.5,49.5 436.5,50.5 436.5,51.5C 439.5,51.1667 440.833,52.5 440.5,55.5C 441.5,55.5 442.5,55.5 443.5,55.5C 443.5,56.5 443.5,57.5 443.5,58.5C 444.5,58.5 445.5,58.5 446.5,58.5C 446.45,60.5901 447.45,61.9234 449.5,62.5C 450.466,64.396 450.799,66.396 450.5,68.5C 451.5,68.5 452.5,68.5 453.5,68.5C 453.5,71.1667 453.5,73.8333 453.5,76.5C 454.5,76.5 455.5,76.5 456.5,76.5C 457.616,90.8011 457.782,105.134 457,119.5C 456.311,120.357 455.478,121.023 454.5,121.5C 453.672,126.132 453.172,130.798 453,135.5C 450.943,138.028 449.943,141.028 450,144.5C 449.632,145.91 448.799,146.91 447.5,147.5C 446.526,149.743 446.192,152.076 446.5,154.5C 445.5,154.5 444.5,154.5 443.5,154.5C 443.5,156.833 443.5,159.167 443.5,161.5C 442.5,161.5 441.5,161.5 440.5,161.5C 440.682,163.591 440.348,165.591 439.5,167.5C 438.675,168.386 437.675,168.719 436.5,168.5C 436.5,170.833 436.5,173.167 436.5,175.5C 435.5,175.5 434.5,175.5 433.5,175.5C 432.521,179.088 431.188,182.421 429.5,185.5C 428.5,185.5 427.5,185.5 426.5,185.5C 426.723,188.114 425.556,189.781 423,190.5C 422.506,192.134 422.34,193.801 422.5,195.5C 421.5,195.5 420.5,195.5 419.5,195.5C 419.5,196.833 419.5,198.167 419.5,199.5C 418.167,199.5 416.833,199.5 415.5,199.5C 415.5,200.5 415.5,201.5 415.5,202.5C 414.5,202.5 413.5,202.5 412.5,202.5C 412.5,203.833 412.5,205.167 412.5,206.5C 410.328,207.801 407.995,208.801 405.5,209.5C 405.649,210.552 405.483,211.552 405,212.5C 403.513,213.155 402.347,214.155 401.5,215.5C 399.604,216.466 397.604,216.799 395.5,216.5C 395.833,219.5 394.5,220.833 391.5,220.5C 391.5,221.5 391.5,222.5 391.5,223.5C 389.167,223.5 386.833,223.5 384.5,223.5C 384.5,224.5 384.5,225.5 384.5,226.5C 382.076,226.192 379.743,226.526 377.5,227.5C 376.91,228.799 375.91,229.632 374.5,230C 371.183,230.498 367.85,230.665 364.5,230.5C 364.5,231.5 364.5,232.5 364.5,233.5C 352.149,233.832 339.815,233.499 327.5,232.5C 327.291,231.914 326.957,231.414 326.5,231C 324.833,230.833 323.167,230.667 321.5,230.5C 318.096,230.762 315.096,231.762 312.5,233.5C 311.801,235.995 310.801,238.328 309.5,240.5C 308.167,240.5 306.833,240.5 305.5,240.5C 304.587,242.835 303.253,245.001 301.5,247C 296.847,246.921 292.68,248.087 289,250.5C 287.347,250.18 286.347,249.18 286,247.5C 285.517,248.448 285.351,249.448 285.5,250.5C 284.167,250.5 282.833,250.5 281.5,250.5C 281.662,252.527 281.495,254.527 281,256.5C 279.179,259.263 277.012,261.763 274.5,264C 273.552,264.483 272.552,264.649 271.5,264.5C 271.5,266.833 271.5,269.167 271.5,271.5C 270.5,271.5 269.5,271.5 268.5,271.5C 268.682,273.591 268.348,275.591 267.5,277.5C 266.675,278.386 265.675,278.719 264.5,278.5C 264.5,280.833 264.5,283.167 264.5,285.5C 263.5,285.5 262.5,285.5 261.5,285.5C 261.662,287.527 261.495,289.527 261,291.5C 259.989,292.337 258.822,292.67 257.5,292.5C 257.5,295.833 257.5,299.167 257.5,302.5C 256.5,302.5 255.5,302.5 254.5,302.5C 254.5,304.833 254.5,307.167 254.5,309.5C 253.167,309.5 251.833,309.5 250.5,309.5C 249.751,314.304 248.751,318.97 247.5,323.5C 246.5,323.5 245.5,323.5 244.5,323.5C 245.401,327.241 244.068,329.241 240.5,329.5C 240.5,330.833 240.5,332.167 240.5,333.5C 239.5,333.5 238.5,333.5 237.5,333.5C 237.682,335.591 237.348,337.591 236.5,339.5C 235.675,340.386 234.675,340.719 233.5,340.5C 233.5,341.5 233.5,342.5 233.5,343.5C 232.5,343.5 231.5,343.5 230.5,343.5C 230.833,346.5 229.5,347.833 226.5,347.5C 226.5,348.5 226.5,349.5 226.5,350.5C 225.5,350.5 224.5,350.5 223.5,350.5C 223.833,353.5 222.5,354.833 219.5,354.5C 219.5,355.5 219.5,356.5 219.5,357.5C 215.789,357.614 212.455,358.614 209.5,360.5C 209.5,361.833 209.5,363.167 209.5,364.5C 207.167,364.5 204.833,364.5 202.5,364.5C 202.5,365.5 202.5,366.5 202.5,367.5C 200.167,367.5 197.833,367.5 195.5,367.5C 195.67,368.822 195.337,369.989 194.5,371C 190.707,370.908 187.373,371.908 184.5,374C 172.171,374.5 159.838,374.667 147.5,374.5C 147.5,375.5 147.5,376.5 147.5,377.5C 140.501,378.1 133.834,379.433 127.5,381.5C 127.5,382.5 127.5,383.5 127.5,384.5C 125.139,384.674 122.806,385.007 120.5,385.5C 120.5,386.5 120.5,387.5 120.5,388.5C 119.167,388.5 117.833,388.5 116.5,388.5C 116.5,389.5 116.5,390.5 116.5,391.5C 113.768,393.035 111.102,394.869 108.5,397C 106.975,398.009 105.308,398.509 103.5,398.5C 103.5,399.833 103.5,401.167 103.5,402.5C 102.178,402.33 101.011,402.663 100,403.5C 98.5,406.333 97,409.167 95.5,412C 94.552,412.483 93.552,412.649 92.5,412.5C 92.5,413.5 92.5,414.5 92.5,415.5C 91.5,415.5 90.5,415.5 89.5,415.5C 89.5,416.833 89.5,418.167 89.5,419.5C 88.1667,419.5 86.8333,419.5 85.5,419.5C 85.5,421.5 85.5,423.5 85.5,425.5C 84.5,425.5 83.5,425.5 82.5,425.5C 82.5,426.833 82.5,428.167 82.5,429.5C 81.5,429.5 80.5,429.5 79.5,429.5C 79.7229,432.114 78.5562,433.781 76,434.5C 75.5065,436.134 75.3398,437.801 75.5,439.5C 74.5,439.5 73.5,439.5 72.5,439.5C 72.5,440.833 72.5,442.167 72.5,443.5C 71.1667,443.5 69.8333,443.5 68.5,443.5C 68.6621,445.527 68.4955,447.527 68,449.5C 66.2942,450.308 65.4609,451.641 65.5,453.5C 64.1667,453.5 62.8333,453.5 61.5,453.5C 61.67,454.822 61.3366,455.989 60.5,457C 55.8333,457.667 51.1667,457.667 46.5,457C 45.4911,454.828 43.8244,453.662 41.5,453.5C 41.5,443.5 41.5,433.5 41.5,423.5C 42.5,423.5 43.5,423.5 44.5,423.5C 44.335,420.15 44.5017,416.817 45,413.5C 46.0113,412.663 47.1779,412.33 48.5,412.5C 48.5,409.167 48.5,405.833 48.5,402.5C 49.5,402.5 50.5,402.5 51.5,402.5C 51.5,400.167 51.5,397.833 51.5,395.5C 52.8333,395.5 54.1667,395.5 55.5,395.5C 55.5,393.167 55.5,390.833 55.5,388.5C 56.5,388.5 57.5,388.5 58.5,388.5C 57.88,383.006 60.2133,379.672 65.5,378.5C 65.5,376.167 65.5,373.833 65.5,371.5C 66.5,371.5 67.5,371.5 68.5,371.5C 68.1667,368.5 69.5,367.167 72.5,367.5C 72.3398,365.801 72.5065,364.134 73,362.5C 74.6965,361.636 75.8632,360.303 76.5,358.5C 77.325,357.614 78.325,357.281 79.5,357.5C 79.5,356.5 79.5,355.5 79.5,354.5C 80.5,354.5 81.5,354.5 82.5,354.5C 82.33,353.178 82.6634,352.011 83.5,351C 85.6942,348.825 88.3608,347.492 91.5,347C 92.2191,344.444 93.8858,343.277 96.5,343.5C 96.5,342.5 96.5,341.5 96.5,340.5C 98.1992,340.66 99.8659,340.494 101.5,340C 105.436,335.399 110.436,333.066 116.5,333C 116.957,332.586 117.291,332.086 117.5,331.5C 121.783,330.508 126.116,330.174 130.5,330.5C 130.33,329.178 130.663,328.011 131.5,327C 142.828,326.5 154.162,326.333 165.5,326.5C 165.5,325.5 165.5,324.5 165.5,323.5C 168.833,323.5 172.167,323.5 175.5,323.5C 175.5,322.167 175.5,320.833 175.5,319.5C 177.833,319.5 180.167,319.5 182.5,319.5C 182.5,318.5 182.5,317.5 182.5,316.5C 183.5,316.5 184.5,316.5 185.5,316.5C 185.281,315.325 185.614,314.325 186.5,313.5C 188.984,311.517 191.317,309.35 193.5,307C 194.448,306.517 195.448,306.351 196.5,306.5C 196.5,305.167 196.5,303.833 196.5,302.5C 197.5,302.5 198.5,302.5 199.5,302.5C 201.184,299.784 202.35,296.784 203,293.5C 204.011,292.663 205.178,292.33 206.5,292.5C 208.272,287.45 209.439,282.116 210,276.5C 211.011,275.663 212.178,275.33 213.5,275.5C 213.337,273.143 213.503,270.81 214,268.5C 215.946,265.861 216.946,262.861 217,259.5C 218.011,258.663 219.178,258.33 220.5,258.5C 220.5,256.167 220.5,253.833 220.5,251.5C 221.5,251.5 222.5,251.5 223.5,251.5C 223.338,249.473 223.505,247.473 224,245.5C 225.675,244.405 226.842,242.905 227.5,241C 228.448,240.517 229.448,240.351 230.5,240.5C 230.338,238.473 230.505,236.473 231,234.5C 232.706,233.692 233.539,232.359 233.5,230.5C 234.833,230.5 236.167,230.5 237.5,230.5C 237.338,228.473 237.505,226.473 238,224.5C 239.706,223.692 240.539,222.359 240.5,220.5C 241.833,220.5 243.167,220.5 244.5,220.5C 244.5,219.167 244.5,217.833 244.5,216.5C 245.5,216.5 246.5,216.5 247.5,216.5C 247.833,212.332 247.833,207.999 247.5,203.5C 248.822,203.67 249.989,203.337 251,202.5C 251.495,200.527 251.662,198.527 251.5,196.5C 252.5,196.5 253.5,196.5 254.5,196.5C 254.5,195.167 254.5,193.833 254.5,192.5C 256.672,191.199 259.005,190.199 261.5,189.5C 261.5,188.167 261.5,186.833 261.5,185.5C 262.5,185.5 263.5,185.5 264.5,185.5C 264.5,184.5 264.5,183.5 264.5,182.5C 265.833,182.5 267.167,182.5 268.5,182.5C 268.5,178.833 268.5,175.167 268.5,171.5C 267.178,171.67 266.011,171.337 265,170.5C 264.333,157.5 264.333,144.5 265,131.5C 266.011,130.663 267.178,130.33 268.5,130.5C 268.5,127.167 268.5,123.833 268.5,120.5C 269.5,120.5 270.5,120.5 271.5,120.5C 271.5,118.167 271.5,115.833 271.5,113.5C 272.833,113.5 274.167,113.5 275.5,113.5C 275.5,111.167 275.5,108.833 275.5,106.5C 276.5,106.5 277.5,106.5 278.5,106.5C 278.34,104.801 278.506,103.134 279,101.5C 280.697,100.636 281.863,99.3031 282.5,97.5C 283.325,96.6143 284.325,96.281 285.5,96.5C 285.5,95.1667 285.5,93.8333 285.5,92.5C 286.5,92.5 287.5,92.5 288.5,92.5C 288.5,91.5 288.5,90.5 288.5,89.5C 289.833,89.5 291.167,89.5 292.5,89.5C 292.5,88.5 292.5,87.5 292.5,86.5C 293.5,86.5 294.5,86.5 295.5,86.5C 295.5,85.1667 295.5,83.8333 295.5,82.5C 296.833,82.5 298.167,82.5 299.5,82.5C 299.5,81.5 299.5,80.5 299.5,79.5C 300.5,79.5 301.5,79.5 302.5,79.5C 302.167,76.5 303.5,75.1667 306.5,75.5C 306.5,74.5 306.5,73.5 306.5,72.5C 308.5,72.5 310.5,72.5 312.5,72.5C 312.351,71.448 312.517,70.448 313,69.5C 316.69,65.7399 321.19,64.5733 326.5,66C 329.012,68.2372 331.179,70.7372 333,73.5C 333.494,75.1341 333.66,76.8008 333.5,78.5C 332.5,78.5 331.5,78.5 330.5,78.5C 330.326,80.861 329.993,83.1944 329.5,85.5C 327.5,85.5 325.5,85.5 323.5,85.5C 323.833,88.5 322.5,89.8333 319.5,89.5C 319.5,90.5 319.5,91.5 319.5,92.5C 316.685,94.0935 313.685,95.5935 310.5,97C 308,99.5 305.5,102 303,104.5C 302.667,105.833 302.333,107.167 302,108.5C 300.303,109.364 299.137,110.697 298.5,112.5C 297.675,113.386 296.675,113.719 295.5,113.5C 295.5,114.5 295.5,115.5 295.5,116.5C 294.5,116.5 293.5,116.5 292.5,116.5C 292.5,118.833 292.5,121.167 292.5,123.5C 291.167,123.5 289.833,123.5 288.5,123.5C 286.273,131.232 284.94,139.232 284.5,147.5C 283.5,147.5 282.5,147.5 281.5,147.5C 281.5,151.167 281.5,154.833 281.5,158.5C 282.833,158.5 284.167,158.5 285.5,158.5C 285.277,165.546 286.277,172.212 288.5,178.5C 289.822,178.33 290.989,178.663 292,179.5C 292.495,181.473 292.662,183.473 292.5,185.5C 293.5,185.5 294.5,185.5 295.5,185.5C 295.5,186.833 295.5,188.167 295.5,189.5C 297.995,190.199 300.328,191.199 302.5,192.5C 302.5,193.833 302.5,195.167 302.5,196.5C 303.5,196.5 304.5,196.5 305.5,196.5C 305.5,197.5 305.5,198.5 305.5,199.5C 306.833,199.5 308.167,199.5 309.5,199.5C 309.5,200.5 309.5,201.5 309.5,202.5C 311.5,202.833 313.5,203.167 315.5,203.5C 315.5,204.5 315.5,205.5 315.5,206.5C 316.833,206.5 318.167,206.5 319.5,206.5C 319.5,207.5 319.5,208.5 319.5,209.5C 322.187,209.336 324.854,209.503 327.5,210C 328.973,210.71 329.64,211.876 329.5,213.5C 341.167,213.5 352.833,213.5 364.5,213.5C 364.33,212.178 364.663,211.011 365.5,210C 370.046,209.295 374.379,208.129 378.5,206.5C 378.5,205.5 378.5,204.5 378.5,203.5C 380.806,203.007 383.139,202.674 385.5,202.5C 385.5,201.5 385.5,200.5 385.5,199.5C 386.5,199.5 387.5,199.5 388.5,199.5C 388.5,198.5 388.5,197.5 388.5,196.5C 389.833,196.5 391.167,196.5 392.5,196.5C 392.351,195.448 392.517,194.448 393,193.5C 394.791,191.587 396.791,189.92 399,188.5C 400.694,186.76 401.861,184.76 402.5,182.5C 403.5,182.5 404.5,182.5 405.5,182.5C 405.167,179.5 406.5,178.167 409.5,178.5C 410.561,175.136 411.561,171.803 412.5,168.5C 413.833,168.5 415.167,168.5 416.5,168.5C 416.5,166.5 416.5,164.5 416.5,162.5C 417.5,162.5 418.5,162.5 419.5,162.5C 419.5,161.167 419.5,159.833 419.5,158.5C 420.5,158.5 421.5,158.5 422.5,158.5C 422.5,156.167 422.5,153.833 422.5,151.5C 423.833,151.5 425.167,151.5 426.5,151.5C 427.487,145.84 428.487,140.173 429.5,134.5C 430.833,134.5 432.167,134.5 433.5,134.5C 435.378,125.817 436.545,116.817 437,107.5C 438.011,106.663 439.178,106.33 440.5,106.5C 441.309,100.258 440.142,94.5915 437,89.5C 436.501,83.4977 435.334,77.831 433.5,72.5C 432.167,72.5 430.833,72.5 429.5,72.5C 429.5,71.1667 429.5,69.8333 429.5,68.5C 428.5,68.5 427.5,68.5 426.5,68.5C 426.5,67.5 426.5,66.5 426.5,65.5C 424.167,65.5 421.833,65.5 419.5,65.5C 419.5,64.1667 419.5,62.8333 419.5,61.5C 415.818,61.6653 412.152,61.4986 408.5,61C 407.833,60.3333 407.167,59.6667 406.5,59C 400.509,58.5005 394.509,58.3338 388.5,58.5C 388.5,59.5 388.5,60.5 388.5,61.5C 383.833,61.5 379.167,61.5 374.5,61.5C 374.67,62.8221 374.337,63.9887 373.5,65C 370.5,65.3333 367.5,65.6667 364.5,66C 364.043,66.414 363.709,66.914 363.5,67.5C 360.5,68.1667 357.5,68.8333 354.5,69.5C 354.167,70.1667 353.833,70.8333 353.5,71.5C 349.541,72.6599 345.541,72.8265 341.5,72C 340.663,70.9887 340.33,69.8221 340.5,68.5C 339.5,68.5 338.5,68.5 337.5,68.5C 336.009,64.4391 336.176,60.4391 338,56.5C 339.699,55.5939 341.533,55.2606 343.5,55.5C 343.33,54.1779 343.663,53.0113 344.5,52C 347.329,51.9525 349.663,50.9525 351.5,49C 354.817,48.5017 358.15,48.335 361.5,48.5C 361.33,47.1779 361.663,46.0113 362.5,45C 366.541,44.8265 370.541,44.3265 374.5,43.5C 374.863,42.8165 375.196,42.1499 375.5,41.5 Z M 278.5,199.5 C 279.496,199.414 280.329,199.748 281,200.5C 282.05,203.876 283.55,206.876 285.5,209.5C 288.548,211.033 291.215,213.2 293.5,216C 295.473,216.495 297.473,216.662 299.5,216.5C 299.5,217.833 299.5,219.167 299.5,220.5C 298.167,220.5 296.833,220.5 295.5,220.5C 295.5,221.5 295.5,222.5 295.5,223.5C 294.5,223.5 293.5,223.5 292.5,223.5C 292.157,227.438 290.157,228.438 286.5,226.5C 285.614,225.675 285.281,224.675 285.5,223.5C 284.167,223.5 282.833,223.5 281.5,223.5C 281.5,222.5 281.5,221.5 281.5,220.5C 280.5,220.5 279.5,220.5 278.5,220.5C 278.5,219.167 278.5,217.833 278.5,216.5C 276.328,215.199 273.995,214.199 271.5,213.5C 271.39,209.39 272.39,205.723 274.5,202.5C 275.833,202.5 277.167,202.5 278.5,202.5C 278.5,201.5 278.5,200.5 278.5,199.5 Z M 261.5,230.5 C 263.424,232.485 265.424,234.485 267.5,236.5C 268.429,237.689 268.762,239.022 268.5,240.5C 267.167,240.5 265.833,240.5 264.5,240.5C 264.5,241.833 264.5,243.167 264.5,244.5C 263.5,244.5 262.5,244.5 261.5,244.5C 259.22,247.318 257.886,250.651 257.5,254.5C 256.5,254.5 255.5,254.5 254.5,254.5C 254.657,255.873 254.49,257.207 254,258.5C 252.113,260.026 251.113,262.026 251,264.5C 250,265.167 249,265.833 248,266.5C 247.952,269.329 246.952,271.663 245,273.5C 244.818,276.226 244.318,278.893 243.5,281.5C 242.833,281.833 242.167,282.167 241.5,282.5C 241.037,285.583 239.871,288.249 238,290.5C 237.502,293.482 237.335,296.482 237.5,299.5C 236.167,299.5 234.833,299.5 233.5,299.5C 233.5,301.833 233.5,304.167 233.5,306.5C 232.5,306.5 231.5,306.5 230.5,306.5C 230.5,308.5 230.5,310.5 230.5,312.5C 229.325,312.281 228.325,312.614 227.5,313.5C 226.731,315.737 225.564,317.737 224,319.5C 223.51,320.793 223.343,322.127 223.5,323.5C 222.5,323.5 221.5,323.5 220.5,323.5C 220.5,324.5 220.5,325.5 220.5,326.5C 217.5,326.167 216.167,327.5 216.5,330.5C 215.5,330.5 214.5,330.5 213.5,330.5C 213.5,331.5 213.5,332.5 213.5,333.5C 211.167,334.833 208.833,336.167 206.5,337.5C 206.5,338.5 206.5,339.5 206.5,340.5C 205.448,340.351 204.448,340.517 203.5,341C 201.077,342.826 198.744,344.826 196.5,347C 195.207,347.49 193.873,347.657 192.5,347.5C 192.5,348.5 192.5,349.5 192.5,350.5C 189.119,350.46 185.786,350.793 182.5,351.5C 182.5,352.5 182.5,353.5 182.5,354.5C 178.365,353.89 174.699,354.723 171.5,357C 159.153,357.167 146.82,357.667 134.5,358.5C 133.91,359.799 132.91,360.632 131.5,361C 124.558,363.165 117.558,365.331 110.5,367.5C 110.5,368.833 110.5,370.167 110.5,371.5C 108.167,371.5 105.833,371.5 103.5,371.5C 103.5,372.5 103.5,373.5 103.5,374.5C 100.5,374.167 99.1667,375.5 99.5,378.5C 98.5,378.5 97.5,378.5 96.5,378.5C 96.5,379.5 96.5,380.5 96.5,381.5C 93.5,381.167 92.1667,382.5 92.5,385.5C 91.5,385.5 90.5,385.5 89.5,385.5C 89.5,386.5 89.5,387.5 89.5,388.5C 88.5,388.5 87.5,388.5 86.5,388.5C 86.5,389.5 86.5,390.5 86.5,391.5C 83.5,391.167 82.1667,392.5 82.5,395.5C 81.5,395.5 80.5,395.5 79.5,395.5C 79.5,396.5 79.5,397.5 79.5,398.5C 78.448,398.351 77.448,398.517 76.5,399C 75.842,400.905 74.6753,402.405 73,403.5C 72.8333,403 72.6667,402.5 72.5,402C 74.2155,398.76 76.2155,395.76 78.5,393C 79.1476,391.56 79.4809,390.06 79.5,388.5C 80.5,388.5 81.5,388.5 82.5,388.5C 84.3863,385.545 85.3863,382.211 85.5,378.5C 86.8333,378.5 88.1667,378.5 89.5,378.5C 89.5,377.167 89.5,375.833 89.5,374.5C 90.5,374.5 91.5,374.5 92.5,374.5C 92.5,373.5 92.5,372.5 92.5,371.5C 95.5,371.833 96.8333,370.5 96.5,367.5C 97.5,367.5 98.5,367.5 99.5,367.5C 99.5,366.5 99.5,365.5 99.5,364.5C 102.5,364.833 103.833,363.5 103.5,360.5C 106.485,358.555 109.818,357.555 113.5,357.5C 113.5,356.5 113.5,355.5 113.5,354.5C 115.591,354.682 117.591,354.348 119.5,353.5C 120.386,352.675 120.719,351.675 120.5,350.5C 123.807,350.937 126.807,350.27 129.5,348.5C 137.479,347.668 145.479,347.168 153.5,347C 154.337,345.989 154.67,344.822 154.5,343.5C 162.174,343.666 169.841,343.5 177.5,343C 179.653,340.835 182.319,340.002 185.5,340.5C 185.5,339.167 185.5,337.833 185.5,336.5C 187.833,336.5 190.167,336.5 192.5,336.5C 192.5,335.5 192.5,334.5 192.5,333.5C 194.527,333.662 196.527,333.495 198.5,333C 200.253,331.001 201.587,328.835 202.5,326.5C 203.833,326.5 205.167,326.5 206.5,326.5C 206.5,325.5 206.5,324.5 206.5,323.5C 207.5,323.5 208.5,323.5 209.5,323.5C 209.5,322.167 209.5,320.833 209.5,319.5C 210.552,319.649 211.552,319.483 212.5,319C 213.155,317.513 214.155,316.347 215.5,315.5C 216.466,313.604 216.799,311.604 216.5,309.5C 217.5,309.5 218.5,309.5 219.5,309.5C 219.993,307.194 220.326,304.861 220.5,302.5C 221.5,302.5 222.5,302.5 223.5,302.5C 223.5,300.167 223.5,297.833 223.5,295.5C 224.5,295.5 225.5,295.5 226.5,295.5C 226.192,293.076 226.526,290.743 227.5,288.5C 228.799,287.91 229.632,286.91 230,285.5C 230.497,283.19 230.663,280.857 230.5,278.5C 231.5,278.5 232.5,278.5 233.5,278.5C 233.5,276.167 233.5,273.833 233.5,271.5C 234.675,271.719 235.675,271.386 236.5,270.5C 236.852,267.691 238.018,265.358 240,263.5C 240.495,261.527 240.662,259.527 240.5,257.5C 241.5,257.5 242.5,257.5 243.5,257.5C 243.993,255.194 244.326,252.861 244.5,250.5C 245.5,250.5 246.5,250.5 247.5,250.5C 247.461,248.641 248.294,247.308 250,246.5C 250.495,244.527 250.662,242.527 250.5,240.5C 251.833,240.5 253.167,240.5 254.5,240.5C 255.801,238.328 256.801,235.995 257.5,233.5C 259.973,233.912 261.306,232.912 261.5,230.5 Z M 70.5,405.5 C 72.1765,406.183 72.8432,407.517 72.5,409.5C 68.1547,409.702 67.488,408.369 70.5,405.5 Z"/></g>
<g><path style="opacity:0.642" fill="#fefffe" d="M 409.5,233.5 C 418.506,233.334 427.506,233.5 436.5,234C 441.117,236.344 445.617,238.844 450,241.5C 450.26,243.618 451.26,245.284 453,246.5C 453.333,248.5 453.667,250.5 454,252.5C 454.689,253.357 455.522,254.023 456.5,254.5C 457.666,264.483 457.832,274.483 457,284.5C 455.989,285.337 454.822,285.67 453.5,285.5C 453.411,292.106 452.244,298.439 450,304.5C 448.989,305.337 447.822,305.67 446.5,305.5C 446.662,307.527 446.495,309.527 446,311.5C 444.108,312.617 443.275,314.284 443.5,316.5C 441.328,317.801 438.995,318.801 436.5,319.5C 436.66,321.199 436.494,322.866 436,324.5C 433.17,327.188 430.004,329.188 426.5,330.5C 426.5,331.5 426.5,332.5 426.5,333.5C 425.167,333.5 423.833,333.5 422.5,333.5C 422.5,334.5 422.5,335.5 422.5,336.5C 420.167,336.5 417.833,336.5 415.5,336.5C 415.5,337.833 415.5,339.167 415.5,340.5C 408.763,340.576 402.263,341.576 396,343.5C 391.175,342.548 386.342,341.548 381.5,340.5C 381.5,341.5 381.5,342.5 381.5,343.5C 380.5,343.5 379.5,343.5 378.5,343.5C 378.833,346.5 377.5,347.833 374.5,347.5C 374.5,348.5 374.5,349.5 374.5,350.5C 371.167,350.5 367.833,350.5 364.5,350.5C 364.662,352.527 364.495,354.527 364,356.5C 362.989,357.337 361.822,357.67 360.5,357.5C 358.687,361.211 357.52,365.211 357,369.5C 352.818,375.231 349.651,381.564 347.5,388.5C 346.167,388.5 344.833,388.5 343.5,388.5C 343.5,389.5 343.5,390.5 343.5,391.5C 340.017,392.084 337.017,391.251 334.5,389C 333.207,388.51 331.873,388.343 330.5,388.5C 330.549,383.461 329.882,383.295 328.5,388C 329.667,389.833 331.167,391.333 333,392.5C 333.499,396.821 333.666,401.154 333.5,405.5C 332.167,405.5 330.833,405.5 329.5,405.5C 329.719,406.675 329.386,407.675 328.5,408.5C 326.009,408.909 324.009,410.076 322.5,412C 319.183,412.498 315.85,412.665 312.5,412.5C 312.5,413.5 312.5,414.5 312.5,415.5C 304.5,415.5 296.5,415.5 288.5,415.5C 288.5,416.833 288.5,418.167 288.5,419.5C 286.167,419.5 283.833,419.5 281.5,419.5C 281.5,420.5 281.5,421.5 281.5,422.5C 280.5,422.5 279.5,422.5 278.5,422.5C 278.833,425.5 277.5,426.833 274.5,426.5C 274.5,427.5 274.5,428.5 274.5,429.5C 273.5,429.5 272.5,429.5 271.5,429.5C 270.801,431.995 269.801,434.328 268.5,436.5C 267.167,436.5 265.833,436.5 264.5,436.5C 263.5,439.833 262.5,443.167 261.5,446.5C 260.167,446.5 258.833,446.5 257.5,446.5C 257.5,447.833 257.5,449.167 257.5,450.5C 256.5,450.5 255.5,450.5 254.5,450.5C 254.167,452.5 253.833,454.5 253.5,456.5C 248.213,457.342 242.88,457.676 237.5,457.5C 237.5,456.167 237.5,454.833 237.5,453.5C 236.167,453.5 234.833,453.5 233.5,453.5C 233.269,445.791 233.602,438.124 234.5,430.5C 235.5,430.5 236.5,430.5 237.5,430.5C 237.5,427.833 237.5,425.167 237.5,422.5C 238.5,422.5 239.5,422.5 240.5,422.5C 241.775,418.175 243.109,413.842 244.5,409.5C 245.5,409.5 246.5,409.5 247.5,409.5C 247.318,407.409 247.652,405.409 248.5,403.5C 249.325,402.614 250.325,402.281 251.5,402.5C 252.199,400.005 253.199,397.672 254.5,395.5C 255.552,395.649 256.552,395.483 257.5,395C 259.923,393.174 262.256,391.174 264.5,389C 265.793,388.51 267.127,388.343 268.5,388.5C 268.5,387.5 268.5,386.5 268.5,385.5C 271.833,385.5 275.167,385.5 278.5,385.5C 278.5,384.167 278.5,382.833 278.5,381.5C 286.5,381.5 294.5,381.5 302.5,381.5C 302.5,380.5 302.5,379.5 302.5,378.5C 304.833,378.5 307.167,378.5 309.5,378.5C 309.5,377.167 309.5,375.833 309.5,374.5C 311.672,373.199 314.005,372.199 316.5,371.5C 316.5,369.167 316.5,366.833 316.5,364.5C 317.5,364.5 318.5,364.5 319.5,364.5C 319.338,362.473 319.505,360.473 320,358.5C 321.011,357.663 322.178,357.33 323.5,357.5C 323.5,355.167 323.5,352.833 323.5,350.5C 324.5,350.5 325.5,350.5 326.5,350.5C 326.338,348.473 326.505,346.473 327,344.5C 328.011,343.663 329.178,343.33 330.5,343.5C 330.338,341.473 330.505,339.473 331,337.5C 332.871,336.003 333.871,334.003 334,331.5C 335.011,330.663 336.178,330.33 337.5,330.5C 337.5,329.167 337.5,327.833 337.5,326.5C 338.5,326.5 339.5,326.5 340.5,326.5C 340.335,323.482 340.502,320.482 341,317.5C 342.675,316.405 343.842,314.905 344.5,313C 345.448,312.517 346.448,312.351 347.5,312.5C 347.5,311.5 347.5,310.5 347.5,309.5C 348.5,309.5 349.5,309.5 350.5,309.5C 350.665,306.482 350.498,303.482 350,300.5C 346.686,297.236 346.686,293.902 350,290.5C 350.333,285.833 350.667,281.167 351,276.5C 352.011,275.663 353.178,275.33 354.5,275.5C 354.5,273.167 354.5,270.833 354.5,268.5C 355.5,268.5 356.5,268.5 357.5,268.5C 357.5,267.167 357.5,265.833 357.5,264.5C 358.833,264.5 360.167,264.5 361.5,264.5C 361.5,263.5 361.5,262.5 361.5,261.5C 362.5,261.5 363.5,261.5 364.5,261.5C 364.5,260.167 364.5,258.833 364.5,257.5C 365.5,257.5 366.5,257.5 367.5,257.5C 367.5,256.5 367.5,255.5 367.5,254.5C 368.833,254.5 370.167,254.5 371.5,254.5C 371.5,253.5 371.5,252.5 371.5,251.5C 373.59,251.55 374.923,250.55 375.5,248.5C 377.396,247.534 379.396,247.201 381.5,247.5C 381.5,246.5 381.5,245.5 381.5,244.5C 383.833,244.5 386.167,244.5 388.5,244.5C 388.5,243.167 388.5,241.833 388.5,240.5C 390.833,240.5 393.167,240.5 395.5,240.5C 395.5,239.5 395.5,238.5 395.5,237.5C 398.85,237.665 402.183,237.498 405.5,237C 406.591,235.45 407.924,234.283 409.5,233.5 Z M 422.5,250.5 C 423.833,250.5 425.167,250.5 426.5,250.5C 426.5,251.833 426.5,253.167 426.5,254.5C 428.833,254.5 431.167,254.5 433.5,254.5C 433.5,255.5 433.5,256.5 433.5,257.5C 434.5,257.5 435.5,257.5 436.5,257.5C 436.5,259.833 436.5,262.167 436.5,264.5C 437.833,264.5 439.167,264.5 440.5,264.5C 440.5,266.833 440.5,269.167 440.5,271.5C 439.178,271.33 438.011,271.663 437,272.5C 436.501,276.821 436.334,281.154 436.5,285.5C 435.5,285.5 434.5,285.5 433.5,285.5C 433.5,287.833 433.5,290.167 433.5,292.5C 432.178,292.33 431.011,292.663 430,293.5C 429.505,295.473 429.338,297.473 429.5,299.5C 428.5,299.5 427.5,299.5 426.5,299.5C 425.18,302.826 423.847,306.16 422.5,309.5C 421.5,309.5 420.5,309.5 419.5,309.5C 419.5,310.5 419.5,311.5 419.5,312.5C 418.5,312.5 417.5,312.5 416.5,312.5C 416.5,313.833 416.5,315.167 416.5,316.5C 414.801,316.34 413.134,316.506 411.5,317C 408.595,318.547 405.929,320.381 403.5,322.5C 396.964,324.33 390.964,323.496 385.5,320C 384.207,319.51 382.873,319.343 381.5,319.5C 381.5,318.5 381.5,317.5 381.5,316.5C 380.167,316.5 378.833,316.5 377.5,316.5C 377.5,315.5 377.5,314.5 377.5,313.5C 376.5,313.5 375.5,313.5 374.5,313.5C 374.5,312.167 374.5,310.833 374.5,309.5C 373.5,309.5 372.5,309.5 371.5,309.5C 371.662,307.473 371.495,305.473 371,303.5C 369.989,302.663 368.822,302.33 367.5,302.5C 367.5,297.833 367.5,293.167 367.5,288.5C 368.822,288.67 369.989,288.337 371,287.5C 371.495,285.527 371.662,283.527 371.5,281.5C 372.5,281.5 373.5,281.5 374.5,281.5C 374.5,279.5 374.5,277.5 374.5,275.5C 377.5,275.833 378.833,274.5 378.5,271.5C 382.924,269.357 387.257,267.024 391.5,264.5C 391.5,263.5 391.5,262.5 391.5,261.5C 393.833,261.5 396.167,261.5 398.5,261.5C 398.5,260.167 398.5,258.833 398.5,257.5C 405.31,255.915 412.31,254.748 419.5,254C 421.426,253.578 422.426,252.411 422.5,250.5 Z"/></g>
</svg>
