<?xml version="1.0" encoding="UTF-8"?>
<!DOCTYPE svg PUBLIC "-//W3C//DTD SVG 1.1//EN" "http://www.w3.org/Graphics/SVG/1.1/DTD/svg11.dtd">
<svg xmlns="http://www.w3.org/2000/svg" version="1.1" width="500px" height="500px" style="shape-rendering:geometricPrecision; text-rendering:geometricPrecision; image-rendering:optimizeQuality; fill-rule:evenodd; clip-rule:evenodd" xmlns:xlink="http://www.w3.org/1999/xlink">
<g><path style="opacity:0.655" fill="#fefffe" d="M 339.5,49.5 C 351.505,49.3335 363.505,49.5001 375.5,50C 378.306,50.9915 380.972,52.3248 383.5,54C 389.714,59.4645 394.881,65.6311 399,72.5C 399.009,78.5449 399.842,84.3782 401.5,90C 399.923,95.3707 399.09,100.871 399,106.5C 397.11,109.857 395.277,113.19 393.5,116.5C 392.5,116.5 391.5,116.5 390.5,116.5C 390.5,120.5 388.5,122.5 384.5,122.5C 384.5,123.5 384.5,124.5 384.5,125.5C 381.19,127.277 377.857,129.11 374.5,131C 383.156,131.43 391.49,132.597 399.5,134.5C 399.5,135.5 399.5,136.5 399.5,137.5C 402.882,137.726 405.882,138.726 408.5,140.5C 408.5,141.5 408.5,142.5 408.5,143.5C 409.5,143.5 410.5,143.5 411.5,143.5C 413.385,146.734 415.719,149.734 418.5,152.5C 419.452,154.045 419.785,155.712 419.5,157.5C 420.5,157.5 421.5,157.5 422.5,157.5C 422.5,160.5 422.5,163.5 422.5,166.5C 423.5,166.5 424.5,166.5 425.5,166.5C 425.5,172.5 425.5,178.5 425.5,184.5C 424.5,184.5 423.5,184.5 422.5,184.5C 422.5,185.5 422.5,186.5 422.5,187.5C 418.833,187.5 415.167,187.5 411.5,187.5C 411.716,185.319 410.883,183.653 409,182.5C 408.501,178.179 408.334,173.846 408.5,169.5C 407.5,169.5 406.5,169.5 405.5,169.5C 405.5,167.5 405.5,165.5 405.5,163.5C 404.5,163.5 403.5,163.5 402.5,163.5C 402.5,162.5 402.5,161.5 402.5,160.5C 401.5,160.5 400.5,160.5 399.5,160.5C 399.5,159.5 399.5,158.5 399.5,157.5C 398.5,157.5 397.5,157.5 396.5,157.5C 396.5,156.5 396.5,155.5 396.5,154.5C 395.5,154.5 394.5,154.5 393.5,154.5C 393.5,153.5 393.5,152.5 393.5,151.5C 390.813,151.664 388.146,151.497 385.5,151C 385.043,150.586 384.709,150.086 384.5,149.5C 366.512,148.5 348.512,148.167 330.5,148.5C 330.5,149.5 330.5,150.5 330.5,151.5C 327.5,151.5 324.5,151.5 321.5,151.5C 321.5,152.5 321.5,153.5 321.5,154.5C 320.5,154.5 319.5,154.5 318.5,154.5C 316.595,157.304 314.929,160.304 313.5,163.5C 312.5,163.5 311.5,163.5 310.5,163.5C 310.97,166.346 310.137,168.679 308,170.5C 307.5,204.832 307.333,239.165 307.5,273.5C 311.5,273.5 315.5,273.5 319.5,273.5C 319.5,239.833 319.5,206.167 319.5,172.5C 320.5,172.5 321.5,172.5 322.5,172.5C 322.5,171.5 322.5,170.5 322.5,169.5C 325.167,169.5 327.833,169.5 330.5,169.5C 330.5,170.5 330.5,171.5 330.5,172.5C 331.5,172.5 332.5,172.5 333.5,172.5C 333.5,252.833 333.5,333.167 333.5,413.5C 334.5,413.5 335.5,413.5 336.5,413.5C 336.5,414.5 336.5,415.5 336.5,416.5C 340.5,416.5 344.5,416.5 348.5,416.5C 348.5,384.833 348.5,353.167 348.5,321.5C 349.5,321.5 350.5,321.5 351.5,321.5C 351.5,320.5 351.5,319.5 351.5,318.5C 355.5,318.5 359.5,318.5 363.5,318.5C 363.5,319.5 363.5,320.5 363.5,321.5C 364.5,321.5 365.5,321.5 366.5,321.5C 366.5,353.167 366.5,384.833 366.5,416.5C 370.5,416.5 374.5,416.5 378.5,416.5C 378.5,415.5 378.5,414.5 378.5,413.5C 379.5,413.5 380.5,413.5 381.5,413.5C 381.5,333.167 381.5,252.833 381.5,172.5C 382.5,172.5 383.5,172.5 384.5,172.5C 384.5,171.5 384.5,170.5 384.5,169.5C 387.187,169.336 389.854,169.503 392.5,170C 393.308,171.706 394.641,172.539 396.5,172.5C 396.5,206.167 396.5,239.833 396.5,273.5C 400.5,273.5 404.5,273.5 408.5,273.5C 408.5,246.833 408.5,220.167 408.5,193.5C 409.5,193.5 410.5,193.5 411.5,193.5C 411.5,192.5 411.5,191.5 411.5,190.5C 413.6,190.523 415.433,189.856 417,188.5C 419.515,189.872 422.182,190.872 425,191.5C 425.5,221.832 425.667,252.165 425.5,282.5C 424.5,282.5 423.5,282.5 422.5,282.5C 422.5,283.5 422.5,284.5 422.5,285.5C 421.5,285.5 420.5,285.5 419.5,285.5C 419.5,286.5 419.5,287.5 419.5,288.5C 417.641,288.461 416.308,289.294 415.5,291C 409.175,291.5 402.842,291.666 396.5,291.5C 396.833,335.838 396.5,380.172 395.5,424.5C 394.101,426.103 392.435,427.437 390.5,428.5C 368.5,429.833 346.5,429.833 324.5,428.5C 323.158,427.124 321.825,425.791 320.5,424.5C 319.5,380.172 319.167,335.838 319.5,291.5C 315.154,291.334 310.821,291.501 306.5,292C 310.141,298.574 311.308,305.741 310,313.5C 306.388,317.734 302.555,321.734 298.5,325.5C 295.398,329.906 292.398,334.239 289.5,338.5C 288.5,338.5 287.5,338.5 286.5,338.5C 286.5,339.5 286.5,340.5 286.5,341.5C 285.5,341.5 284.5,341.5 283.5,341.5C 283.5,350.5 283.5,359.5 283.5,368.5C 282.5,368.5 281.5,368.5 280.5,368.5C 280.643,370.262 280.309,371.929 279.5,373.5C 275.893,374.489 272.226,374.823 268.5,374.5C 268.5,373.5 268.5,372.5 268.5,371.5C 267.5,371.5 266.5,371.5 265.5,371.5C 265.5,358.833 265.5,346.167 265.5,333.5C 266.5,333.5 267.5,333.5 268.5,333.5C 268.5,332.5 268.5,331.5 268.5,330.5C 256.5,330.5 244.5,330.5 232.5,330.5C 232.128,333.022 232.961,335.022 235,336.5C 235.5,363.165 235.667,389.831 235.5,416.5C 237.5,416.5 239.5,416.5 241.5,416.5C 241.333,399.83 241.5,383.163 242,366.5C 245.172,363.334 249.005,362 253.5,362.5C 253.5,363.5 253.5,364.5 253.5,365.5C 254.5,365.5 255.5,365.5 256.5,365.5C 256.5,366.5 256.5,367.5 256.5,368.5C 257.5,368.5 258.5,368.5 259.5,368.5C 259.5,384.5 259.5,400.5 259.5,416.5C 261.5,416.5 263.5,416.5 265.5,416.5C 265.333,403.829 265.5,391.162 266,378.5C 269.018,377.972 271.851,376.972 274.5,375.5C 276.173,377.086 278.173,377.753 280.5,377.5C 280.461,379.359 281.294,380.692 283,381.5C 283.833,393.847 283.666,406.18 282.5,418.5C 281.11,421.245 279.777,424.079 278.5,427C 276.956,427.29 275.623,427.956 274.5,429C 256.706,430.081 239.039,429.581 221.5,427.5C 221.884,425.335 221.217,423.668 219.5,422.5C 218.5,395.508 218.167,368.508 218.5,341.5C 217.5,341.5 216.5,341.5 215.5,341.5C 215.5,340.5 215.5,339.5 215.5,338.5C 214.5,338.5 213.5,338.5 212.5,338.5C 212.5,337.5 212.5,336.5 212.5,335.5C 211.5,335.5 210.5,335.5 209.5,335.5C 209.5,334.5 209.5,333.5 209.5,332.5C 208.5,332.5 207.5,332.5 206.5,332.5C 206.5,331.5 206.5,330.5 206.5,329.5C 205.5,329.5 204.5,329.5 203.5,329.5C 203.5,328.5 203.5,327.5 203.5,326.5C 202.5,326.5 201.5,326.5 200.5,326.5C 200.5,325.5 200.5,324.5 200.5,323.5C 199.5,323.5 198.5,323.5 197.5,323.5C 197.5,322.5 197.5,321.5 197.5,320.5C 196.5,320.5 195.5,320.5 194.5,320.5C 194.5,318.833 194.5,317.167 194.5,315.5C 193.5,315.5 192.5,315.5 191.5,315.5C 191.5,311.5 191.5,307.5 191.5,303.5C 190.5,303.5 189.5,303.5 188.5,303.5C 188.5,304.5 188.5,305.5 188.5,306.5C 186.5,306.5 184.5,306.5 182.5,306.5C 182.168,315.525 182.502,324.525 183.5,333.5C 184.086,333.709 184.586,334.043 185,334.5C 185.498,337.817 185.665,341.15 185.5,344.5C 184.5,344.5 183.5,344.5 182.5,344.5C 182.5,345.5 182.5,346.5 182.5,347.5C 181.5,347.5 180.5,347.5 179.5,347.5C 179.5,348.5 179.5,349.5 179.5,350.5C 176.5,350.5 173.5,350.5 170.5,350.5C 170.666,357.175 170.5,363.842 170,370.5C 168.294,371.308 167.461,372.641 167.5,374.5C 162.786,374.827 158.12,374.493 153.5,373.5C 152.533,365.89 152.2,358.223 152.5,350.5C 148.5,350.5 144.5,350.5 140.5,350.5C 140.5,371.5 140.5,392.5 140.5,413.5C 141.5,413.5 142.5,413.5 143.5,413.5C 143.5,414.5 143.5,415.5 143.5,416.5C 146.972,417.037 149.805,416.037 152,413.5C 152.042,401.737 152.708,390.07 154,378.5C 158.401,377.533 162.901,377.2 167.5,377.5C 167.284,379.681 168.117,381.347 170,382.5C 170.667,394.5 170.667,406.5 170,418.5C 167.749,421.017 166.916,424.017 167.5,427.5C 145.949,429.764 124.282,430.097 102.5,428.5C 101.758,427.713 100.925,427.047 100,426.5C 99.5026,423.854 99.3359,421.187 99.5,418.5C 98.5,418.5 97.5,418.5 96.5,418.5C 96.5,395.833 96.5,373.167 96.5,350.5C 93.5,350.5 90.5,350.5 87.5,350.5C 87.5,349.5 87.5,348.5 87.5,347.5C 86.5,347.5 85.5,347.5 84.5,347.5C 84.5391,345.641 83.7058,344.308 82,343.5C 81.5034,341.19 81.3367,338.857 81.5,336.5C 82.5,336.5 83.5,336.5 84.5,336.5C 84.1822,327.249 84.5155,318.083 85.5,309C 83.6975,306.897 81.3641,306.064 78.5,306.5C 78.5,305.5 78.5,304.5 78.5,303.5C 77.5,303.5 76.5,303.5 75.5,303.5C 75.5391,301.641 74.7058,300.308 73,299.5C 72.3333,265.5 72.3333,231.5 73,197.5C 74.6667,194.833 76.3333,192.167 78,189.5C 78.4935,187.866 78.6602,186.199 78.5,184.5C 79.5,184.5 80.5,184.5 81.5,184.5C 82.7036,182.266 83.8703,179.933 85,177.5C 86.5843,176.139 88.4176,175.472 90.5,175.5C 90.5,174.5 90.5,173.5 90.5,172.5C 93.8858,170.65 97.5524,169.483 101.5,169C 101.957,168.586 102.291,168.086 102.5,167.5C 108.463,166.504 114.463,166.171 120.5,166.5C 120.5,165.5 120.5,164.5 120.5,163.5C 118.5,163.5 116.5,163.5 114.5,163.5C 114.5,162.5 114.5,161.5 114.5,160.5C 112.5,160.5 110.5,160.5 108.5,160.5C 108.5,159.5 108.5,158.5 108.5,157.5C 107.5,157.5 106.5,157.5 105.5,157.5C 105.5,156.5 105.5,155.5 105.5,154.5C 104.5,154.5 103.5,154.5 102.5,154.5C 102.5,153.5 102.5,152.5 102.5,151.5C 101.5,151.5 100.5,151.5 99.5,151.5C 99.5,150.5 99.5,149.5 99.5,148.5C 98.5,148.5 97.5,148.5 96.5,148.5C 96.5,146.5 96.5,144.5 96.5,142.5C 95.5,142.5 94.5,142.5 93.5,142.5C 93.9358,139.636 93.1025,137.303 91,135.5C 90.3333,127.5 90.3333,119.5 91,111.5C 93.1025,109.697 93.9358,107.364 93.5,104.5C 94.5,104.5 95.5,104.5 96.5,104.5C 96.5,102.5 96.5,100.5 96.5,98.5C 97.5,98.5 98.5,98.5 99.5,98.5C 99.5,97.5 99.5,96.5 99.5,95.5C 100.5,95.5 101.5,95.5 102.5,95.5C 102.5,94.5 102.5,93.5 102.5,92.5C 103.5,92.5 104.5,92.5 105.5,92.5C 105.5,91.5 105.5,90.5 105.5,89.5C 106.5,89.5 107.5,89.5 108.5,89.5C 108.5,88.5 108.5,87.5 108.5,86.5C 110.5,86.5 112.5,86.5 114.5,86.5C 114.5,85.5 114.5,84.5 114.5,83.5C 117.364,83.9358 119.697,83.1025 121.5,81C 129.5,80.3333 137.5,80.3333 145.5,81C 148.167,82.6667 150.833,84.3333 153.5,86C 155.134,86.4935 156.801,86.6602 158.5,86.5C 158.5,87.5 158.5,88.5 158.5,89.5C 159.5,89.5 160.5,89.5 161.5,89.5C 161.5,90.5 161.5,91.5 161.5,92.5C 162.675,92.281 163.675,92.6143 164.5,93.5C 166.297,94.6951 167.297,96.3618 167.5,98.5C 168.5,98.5 169.5,98.5 170.5,98.5C 172.634,102.138 173.634,106.138 173.5,110.5C 174.5,110.5 175.5,110.5 176.5,110.5C 176.5,119.167 176.5,127.833 176.5,136.5C 175.5,136.5 174.5,136.5 173.5,136.5C 173.664,139.187 173.497,141.854 173,144.5C 171.294,145.308 170.461,146.641 170.5,148.5C 169.5,148.5 168.5,148.5 167.5,148.5C 167.167,152.167 165.167,154.167 161.5,154.5C 161.5,155.5 161.5,156.5 161.5,157.5C 160.5,157.5 159.5,157.5 158.5,157.5C 158.5,158.5 158.5,159.5 158.5,160.5C 154.823,162.453 150.823,163.453 146.5,163.5C 146.5,164.5 146.5,165.5 146.5,166.5C 152.509,166.334 158.509,166.501 164.5,167C 168.468,168.894 172.468,170.728 176.5,172.5C 176.5,173.5 176.5,174.5 176.5,175.5C 180.155,175.472 182.822,177.139 184.5,180.5C 185.246,181.736 185.579,183.07 185.5,184.5C 186.5,184.5 187.5,184.5 188.5,184.5C 190.634,188.138 191.634,192.138 191.5,196.5C 192.5,196.5 193.5,196.5 194.5,196.5C 194.5,228.167 194.5,259.833 194.5,291.5C 195.5,291.5 196.5,291.5 197.5,291.5C 197.5,290.5 197.5,289.5 197.5,288.5C 204.175,288.334 210.842,288.5 217.5,289C 219.667,291.167 221.833,293.333 224,295.5C 224.333,287.5 224.667,279.5 225,271.5C 228.779,266.532 233.279,262.365 238.5,259C 246.493,258.5 254.493,258.334 262.5,258.5C 262.5,259.5 262.5,260.5 262.5,261.5C 265.765,261.299 268.431,262.466 270.5,265C 271.406,266.699 271.739,268.533 271.5,270.5C 272.5,270.5 273.5,270.5 274.5,270.5C 276.404,274.837 277.404,279.504 277.5,284.5C 277.757,288.922 276.924,292.922 275,296.5C 276.529,295.271 277.696,293.771 278.5,292C 280.134,291.506 281.801,291.34 283.5,291.5C 283.5,290.5 283.5,289.5 283.5,288.5C 287.5,288.5 291.5,288.5 295.5,288.5C 295.5,287.5 295.5,286.5 295.5,285.5C 294.5,285.5 293.5,285.5 292.5,285.5C 292.539,283.641 291.706,282.308 290,281.5C 289.333,243.5 289.333,205.5 290,167.5C 290.414,167.043 290.914,166.709 291.5,166.5C 292.025,161.419 293.358,156.752 295.5,152.5C 296.5,152.5 297.5,152.5 298.5,152.5C 298.351,151.448 298.517,150.448 299,149.5C 301.688,147.092 304.521,145.092 307.5,143.5C 307.5,142.5 307.5,141.5 307.5,140.5C 308.5,140.5 309.5,140.5 310.5,140.5C 310.5,139.5 310.5,138.5 310.5,137.5C 312.5,137.5 314.5,137.5 316.5,137.5C 316.5,136.5 316.5,135.5 316.5,134.5C 319.5,134.5 322.5,134.5 325.5,134.5C 325.5,133.5 325.5,132.5 325.5,131.5C 330.511,131.666 335.511,131.499 340.5,131C 336.005,127.688 331.339,124.522 326.5,121.5C 325.096,118.793 323.762,116.126 322.5,113.5C 321.5,113.5 320.5,113.5 319.5,113.5C 319.5,111.5 319.5,109.5 319.5,107.5C 318.5,107.5 317.5,107.5 316.5,107.5C 316.828,102.125 316.495,96.7921 315.5,91.5C 313.164,90.4061 313.164,89.0728 315.5,87.5C 316.329,82.5329 316.829,77.5329 317,72.5C 322.283,62.7167 329.783,55.0501 339.5,49.5 Z M 356.5,62.5 C 357.931,63.0819 359.264,63.9152 360.5,65C 363.482,65.498 366.482,65.6646 369.5,65.5C 369.5,66.5 369.5,67.5 369.5,68.5C 370.5,68.5 371.5,68.5 372.5,68.5C 372.5,69.5 372.5,70.5 372.5,71.5C 373.5,71.5 374.5,71.5 375.5,71.5C 375.5,72.5 375.5,73.5 375.5,74.5C 376.5,74.5 377.5,74.5 378.5,74.5C 378.5,75.5 378.5,76.5 378.5,77.5C 379.5,77.5 380.5,77.5 381.5,77.5C 381.5,80.5 381.5,83.5 381.5,86.5C 382.5,86.5 383.5,86.5 384.5,86.5C 384.5,88.5 384.5,90.5 384.5,92.5C 383.5,92.5 382.5,92.5 381.5,92.5C 381.5,95.5 381.5,98.5 381.5,101.5C 380.5,101.5 379.5,101.5 378.5,101.5C 376.833,105.833 373.833,108.833 369.5,110.5C 369.5,111.5 369.5,112.5 369.5,113.5C 366.5,113.5 363.5,113.5 360.5,113.5C 360.5,114.5 360.5,115.5 360.5,116.5C 358.5,116.5 356.5,116.5 354.5,116.5C 354.5,115.5 354.5,114.5 354.5,113.5C 351.5,113.5 348.5,113.5 345.5,113.5C 345.5,112.5 345.5,111.5 345.5,110.5C 344.5,110.5 343.5,110.5 342.5,110.5C 342.5,109.5 342.5,108.5 342.5,107.5C 341.5,107.5 340.5,107.5 339.5,107.5C 339.5,106.5 339.5,105.5 339.5,104.5C 338.5,104.5 337.5,104.5 336.5,104.5C 336.5,103.5 336.5,102.5 336.5,101.5C 335.5,101.5 334.5,101.5 333.5,101.5C 333.5,98.5 333.5,95.5 333.5,92.5C 332.5,92.5 331.5,92.5 330.5,92.5C 330.5,90.5 330.5,88.5 330.5,86.5C 331.5,86.5 332.5,86.5 333.5,86.5C 333.5,83.5 333.5,80.5 333.5,77.5C 334.5,77.5 335.5,77.5 336.5,77.5C 336.5,76.5 336.5,75.5 336.5,74.5C 337.5,74.5 338.5,74.5 339.5,74.5C 339.5,73.5 339.5,72.5 339.5,71.5C 340.5,71.5 341.5,71.5 342.5,71.5C 342.5,70.5 342.5,69.5 342.5,68.5C 343.5,68.5 344.5,68.5 345.5,68.5C 345.5,67.5 345.5,66.5 345.5,65.5C 348.518,65.6646 351.518,65.498 354.5,65C 355.756,64.5831 356.423,63.7498 356.5,62.5 Z M 125.5,98.5 C 131.176,98.3339 136.843,98.5006 142.5,99C 145.159,102.161 148.325,104.661 152,106.5C 153.13,108.933 154.296,111.266 155.5,113.5C 156.5,113.5 157.5,113.5 158.5,113.5C 158.5,120.5 158.5,127.5 158.5,134.5C 157.5,134.5 156.5,134.5 155.5,134.5C 155.5,135.5 155.5,136.5 155.5,137.5C 154.5,137.5 153.5,137.5 152.5,137.5C 153.5,142.5 151.5,144.5 146.5,143.5C 146.5,144.5 146.5,145.5 146.5,146.5C 137.782,149.126 129.115,149.126 120.5,146.5C 120.5,145.5 120.5,144.5 120.5,143.5C 119.167,143.5 117.833,143.5 116.5,143.5C 115.833,141.5 115.167,139.5 114.5,137.5C 113.5,137.5 112.5,137.5 111.5,137.5C 109.691,133.06 108.691,128.393 108.5,123.5C 108.833,120.833 109.167,118.167 109.5,115.5C 111.566,111.971 113.9,108.637 116.5,105.5C 119.642,103.297 122.642,100.964 125.5,98.5 Z M 105.5,184.5 C 124.167,184.5 142.833,184.5 161.5,184.5C 161.5,185.5 161.5,186.5 161.5,187.5C 164.118,189.274 167.118,190.274 170.5,190.5C 170.34,192.199 170.506,193.866 171,195.5C 172.706,196.308 173.539,197.641 173.5,199.5C 174.5,199.5 175.5,199.5 176.5,199.5C 176.5,217.5 176.5,235.5 176.5,253.5C 175.5,253.5 174.5,253.5 173.5,253.5C 173.5,244.5 173.5,235.5 173.5,226.5C 172.5,226.5 171.5,226.5 170.5,226.5C 170.5,217.5 170.5,208.5 170.5,199.5C 169.5,199.5 168.5,199.5 167.5,199.5C 167.739,197.533 167.406,195.699 166.5,194C 162.848,193.501 159.182,193.335 155.5,193.5C 155.5,194.5 155.5,195.5 155.5,196.5C 154.5,196.5 153.5,196.5 152.5,196.5C 152.334,204.84 152.5,213.173 153,221.5C 153.414,221.957 153.914,222.291 154.5,222.5C 157.331,249.142 159.831,275.808 162,302.5C 162.414,302.957 162.914,303.291 163.5,303.5C 164.332,312.148 164.832,320.814 165,329.5C 165.465,330.931 166.299,332.097 167.5,333C 144.833,333.667 122.167,333.667 99.5,333C 100.416,332.626 101.25,332.126 102,331.5C 102.333,323.167 102.667,314.833 103,306.5C 103.667,305.833 104.333,305.167 105,304.5C 105.168,296.147 105.668,287.813 106.5,279.5C 107.192,278.975 107.692,278.308 108,277.5C 109.538,260.188 110.871,242.855 112,225.5C 112.915,224.672 113.581,223.672 114,222.5C 114.5,213.84 114.666,205.173 114.5,196.5C 113.5,196.5 112.5,196.5 111.5,196.5C 111.5,195.5 111.5,194.5 111.5,193.5C 107.76,193.241 104.094,193.574 100.5,194.5C 100.001,197.217 98.8347,199.551 97,201.5C 95.4157,219.069 94.0824,236.735 93,254.5C 92.3333,255.167 91.6667,255.833 91,256.5C 90.3333,237.833 90.3333,219.167 91,200.5C 94.6707,198.113 96.504,194.779 96.5,190.5C 98.1992,190.66 99.8659,190.494 101.5,190C 102.308,188.294 103.641,187.461 105.5,187.5C 105.5,186.5 105.5,185.5 105.5,184.5 Z M 249.5,275.5 C 251.764,276.219 254.097,276.552 256.5,276.5C 256.5,277.5 256.5,278.5 256.5,279.5C 257.5,279.5 258.5,279.5 259.5,279.5C 259.833,289.833 254.833,294.833 244.5,294.5C 244.5,293.5 244.5,292.5 244.5,291.5C 243.5,291.5 242.5,291.5 241.5,291.5C 240.634,287.399 240.634,283.399 241.5,279.5C 242.5,279.5 243.5,279.5 244.5,279.5C 244.5,278.5 244.5,277.5 244.5,276.5C 246.415,276.784 248.081,276.451 249.5,275.5 Z M 238.5,309.5 C 241.748,311.413 245.415,312.413 249.5,312.5C 251.833,312.333 254.167,312.167 256.5,312C 258.169,310.331 260.169,309.498 262.5,309.5C 262.5,310.5 262.5,311.5 262.5,312.5C 261.5,312.5 260.5,312.5 259.5,312.5C 259.5,313.5 259.5,314.5 259.5,315.5C 253.5,315.5 247.5,315.5 241.5,315.5C 241.5,314.5 241.5,313.5 241.5,312.5C 240.5,312.5 239.5,312.5 238.5,312.5C 238.5,311.5 238.5,310.5 238.5,309.5 Z M 229.5,328.5 C 230.289,328.783 230.956,329.283 231.5,330C 230.184,330.528 229.517,330.028 229.5,328.5 Z M 114.5,350.5 C 118.5,350.5 122.5,350.5 126.5,350.5C 126.5,371.5 126.5,392.5 126.5,413.5C 125.5,413.5 124.5,413.5 123.5,413.5C 123.5,414.5 123.5,415.5 123.5,416.5C 121.167,416.5 118.833,416.5 116.5,416.5C 114.568,394.625 113.901,372.625 114.5,350.5 Z"/></g>
</svg>
