<?xml version="1.0" encoding="UTF-8"?>
<!DOCTYPE svg PUBLIC "-//W3C//DTD SVG 1.1//EN" "http://www.w3.org/Graphics/SVG/1.1/DTD/svg11.dtd">
<svg xmlns="http://www.w3.org/2000/svg" version="1.1" width="218px" height="221px" style="shape-rendering:geometricPrecision; text-rendering:geometricPrecision; image-rendering:optimizeQuality; fill-rule:evenodd; clip-rule:evenodd" xmlns:xlink="http://www.w3.org/1999/xlink">
<g><path style="opacity:1" fill="#196ea3" d="M -0.5,-0.5 C 72.1667,-0.5 144.833,-0.5 217.5,-0.5C 217.5,0.5 217.5,1.5 217.5,2.5C 213.167,2.5 208.833,2.5 204.5,2.5C 201.987,49.3914 179.987,83.5581 138.5,105C 131.626,107.736 124.626,110.069 117.5,112C 109.539,113.438 102.706,111.272 97,105.5C 87.9194,91.5206 90.0861,79.6873 103.5,70C 135.863,61.4428 154.529,40.6095 159.5,7.5C 160.461,5.73535 160.795,3.73535 160.5,1.5C 107.997,1.16774 55.664,1.50108 3.5,2.5C 3.5,36.5 3.5,70.5 3.5,104.5C 59.6903,108.869 96.1903,137.869 113,191.5C 114.497,200.141 115.663,208.808 116.5,217.5C 150.167,217.5 183.833,217.5 217.5,217.5C 217.5,218.5 217.5,219.5 217.5,220.5C 144.833,220.5 72.1667,220.5 -0.5,220.5C -0.5,146.833 -0.5,73.1667 -0.5,-0.5 Z"/></g>
<g><path style="opacity:1" fill="#2d7aaa" d="M 3.5,2.5 C 55.664,1.50108 107.997,1.16774 160.5,1.5C 160.795,3.73535 160.461,5.73535 159.5,7.5C 159.5,5.83333 159.5,4.16667 159.5,2.5C 107.5,2.5 55.5,2.5 3.5,2.5 Z"/></g>
<g><path style="opacity:1" fill="#fefefe" d="M 3.5,2.5 C 55.5,2.5 107.5,2.5 159.5,2.5C 159.5,4.16667 159.5,5.83333 159.5,7.5C 154.529,40.6095 135.863,61.4428 103.5,70C 90.0861,79.6873 87.9194,91.5206 97,105.5C 102.706,111.272 109.539,113.438 117.5,112C 124.626,110.069 131.626,107.736 138.5,105C 179.987,83.5581 201.987,49.3914 204.5,2.5C 208.833,2.5 213.167,2.5 217.5,2.5C 217.5,74.1667 217.5,145.833 217.5,217.5C 183.833,217.5 150.167,217.5 116.5,217.5C 115.663,208.808 114.497,200.141 113,191.5C 96.1903,137.869 59.6903,108.869 3.5,104.5C 3.5,70.5 3.5,36.5 3.5,2.5 Z"/></g>
<g><path style="opacity:1" fill="#fdfefe" d="M 3.5,149.5 C 44.5096,153.843 67.1763,176.51 71.5,217.5C 48.8333,217.5 26.1667,217.5 3.5,217.5C 3.5,194.833 3.5,172.167 3.5,149.5 Z"/></g>
</svg>
