<?xml version="1.0" encoding="UTF-8"?>
<!DOCTYPE svg PUBLIC "-//W3C//DTD SVG 1.1//EN" "http://www.w3.org/Graphics/SVG/1.1/DTD/svg11.dtd">
<svg xmlns="http://www.w3.org/2000/svg" version="1.1" width="500px" height="500px" style="shape-rendering:geometricPrecision; text-rendering:geometricPrecision; image-rendering:optimizeQuality; fill-rule:evenodd; clip-rule:evenodd" xmlns:xlink="http://www.w3.org/1999/xlink">
<g><path style="opacity:0.93" fill="#fefefe" d="M 182.5,42.5 C 251.209,42.7292 300.376,73.3958 330,134.5C 347.329,177.577 346.329,220.244 327,262.5C 321.687,272.308 315.521,281.474 308.5,290C 318.096,299.052 327.596,308.218 337,317.5C 338.715,315.241 340.548,313.074 342.5,311C 343.167,310.333 343.833,310.333 344.5,311C 373.251,340.752 402.417,370.252 432,399.5C 432.667,400.167 432.667,400.833 432,401.5C 420.473,413.027 408.973,424.527 397.5,436C 396.5,436.667 395.5,436.667 394.5,436C 364.44,406.611 335.273,376.778 307,346.5C 310.36,345.173 312.026,342.84 312,339.5C 303.346,330.68 294.513,322.013 285.5,313.5C 235.613,350.174 181.947,356.34 124.5,332C 75.9678,306.685 47.8012,267.185 40,213.5C 34.8463,151.656 57.3463,102.822 107.5,67C 130.788,53.2924 155.788,45.1258 182.5,42.5 Z M 175.5,68.5 C 228.914,64.7915 270.08,85.1248 299,129.5C 317.726,162.719 321.726,197.719 311,234.5C 293.145,281.668 259.312,310.168 209.5,320C 151.096,325.384 107.263,302.884 78,252.5C 62.7469,220.144 60.4135,186.811 71,152.5C 90.2671,105.06 125.1,77.06 175.5,68.5 Z M 165.5,143.5 C 181.964,145.147 192.798,153.813 198,169.5C 199.039,175.482 196.873,179.982 191.5,183C 184.757,185.991 179.257,184.491 175,178.5C 170.439,173.594 167.105,167.927 165,161.5C 164.254,155.449 164.421,149.449 165.5,143.5 Z M 232.5,155.5 C 242.119,156.948 248.119,162.448 250.5,172C 246.581,177.815 242.414,177.982 238,172.5C 234.062,167.518 232.228,161.851 232.5,155.5 Z M 154.5,211.5 C 162.771,212.267 168.271,216.601 171,224.5C 172.252,228.926 170.586,231.592 166,232.5C 157.495,228.164 153.662,221.164 154.5,211.5 Z"/></g>
<g><path style="opacity:0.881" fill="#fdfdfd" d="M 115.5,113.5 C 124.53,113.358 128.363,117.692 127,126.5C 92.8781,162.973 88.2114,202.973 113,246.5C 117.428,252.351 122.094,258.017 127,263.5C 127.776,274.39 122.942,278.224 112.5,275C 80.3265,240.825 71.3265,201.159 85.5,156C 89.2671,147.633 93.4337,139.466 98,131.5C 100.767,129.401 102.767,126.734 104,123.5C 107.435,119.555 111.268,116.222 115.5,113.5 Z"/></g>
<g><path style="opacity:0.929" fill="#fefefe" d="M 165.5,128.5 C 192.89,131.057 208.89,145.89 213.5,173C 213.511,178.304 211.844,182.971 208.5,187C 213.382,190.214 217.215,194.381 220,199.5C 221.66,205.791 222.993,212.125 224,218.5C 227.081,221.293 230.581,223.46 234.5,225C 243.274,232.843 245.941,242.343 242.5,253.5C 241.667,253.833 240.833,254.167 240,254.5C 236.163,253.777 232.33,253.111 228.5,252.5C 231.216,242.435 227.55,235.935 217.5,233C 209.766,226.351 206.266,217.851 207,207.5C 204.718,202.884 201.384,199.217 197,196.5C 183.505,202.106 172.172,199.106 163,187.5C 150.714,174.022 146.714,158.356 151,140.5C 153.319,133.339 158.153,129.339 165.5,128.5 Z M 165.5,143.5 C 164.421,149.449 164.254,155.449 165,161.5C 167.105,167.927 170.439,173.594 175,178.5C 179.257,184.491 184.757,185.991 191.5,183C 196.873,179.982 199.039,175.482 198,169.5C 192.798,153.813 181.964,145.147 165.5,143.5 Z"/></g>
<g><path style="opacity:0.934" fill="#fefefe" d="M 227.5,140.5 C 251.649,141.148 263.815,153.481 264,177.5C 263.626,178.416 263.126,179.25 262.5,180C 268.429,185.11 271.262,191.61 271,199.5C 282.092,204.35 286.259,212.684 283.5,224.5C 283,224.833 282.5,225.167 282,225.5C 277.89,224.454 273.723,223.787 269.5,223.5C 269.261,221.533 269.594,219.699 270.5,218C 266.39,215.191 262.557,212.025 259,208.5C 257.025,203.702 255.692,198.702 255,193.5C 251.923,190.308 248.257,189.641 244,191.5C 236.953,191.122 231.286,188.122 227,182.5C 218.123,171.348 216.123,159.015 221,145.5C 222.965,143.45 225.132,141.783 227.5,140.5 Z M 232.5,155.5 C 232.228,161.851 234.062,167.518 238,172.5C 242.414,177.982 246.581,177.815 250.5,172C 248.119,162.448 242.119,156.948 232.5,155.5 Z"/></g>
<g><path style="opacity:0.93" fill="#fefefe" d="M 149.5,196.5 C 173.13,196.964 185.297,208.964 186,232.5C 185.691,233.766 185.191,234.933 184.5,236C 190.409,241.106 193.242,247.606 193,255.5C 199.521,258.682 203.854,263.682 206,270.5C 206.89,274.382 206.39,278.048 204.5,281.5C 200.256,280.293 195.923,279.626 191.5,279.5C 192.895,273.993 190.895,270.493 185.5,269C 179.591,263.894 176.758,257.394 177,249.5C 173.746,246.214 169.912,245.548 165.5,247.5C 150.986,243.813 142.486,234.479 140,219.5C 139.066,213.17 140.066,207.17 143,201.5C 144.805,199.174 146.972,197.508 149.5,196.5 Z M 154.5,211.5 C 153.662,221.164 157.495,228.164 166,232.5C 170.586,231.592 172.252,228.926 171,224.5C 168.271,216.601 162.771,212.267 154.5,211.5 Z"/></g>
<g><path style="opacity:0.922" fill="#fefdfe" d="M 439.5,407.5 C 446.564,413.395 452.731,420.062 458,427.5C 462.623,445.76 456.123,457.926 438.5,464C 434.833,464.667 431.167,464.667 427.5,464C 417.904,459.581 409.904,453.081 403.5,444.5C 415.494,432.173 427.494,419.839 439.5,407.5 Z"/></g>
</svg>
