<?xml version="1.0" encoding="UTF-8"?>
<!DOCTYPE svg PUBLIC "-//W3C//DTD SVG 1.1//EN" "http://www.w3.org/Graphics/SVG/1.1/DTD/svg11.dtd">
<svg xmlns="http://www.w3.org/2000/svg" version="1.1" width="500px" height="500px" style="shape-rendering:geometricPrecision; text-rendering:geometricPrecision; image-rendering:optimizeQuality; fill-rule:evenodd; clip-rule:evenodd" xmlns:xlink="http://www.w3.org/1999/xlink">
<g><path style="opacity:0.677" fill="#fefffe" d="M 127.5,56.5 C 137.506,56.3335 147.506,56.5002 157.5,57C 158.337,58.0113 158.67,59.1779 158.5,60.5C 162.256,60.5333 165.589,61.5333 168.5,63.5C 168.5,64.5 168.5,65.5 168.5,66.5C 169.5,66.5 170.5,66.5 171.5,66.5C 171.5,67.5 171.5,68.5 171.5,69.5C 172.5,69.5 173.5,69.5 174.5,69.5C 174.338,71.5273 174.505,73.5273 175,75.5C 176.751,79.2822 178.751,82.9488 181,86.5C 181.667,91.1667 181.667,95.8333 181,100.5C 179.833,101.667 178.667,102.833 177.5,104C 181.506,106.263 185.84,107.43 190.5,107.5C 190.5,108.833 190.5,110.167 190.5,111.5C 192.833,111.5 195.167,111.5 197.5,111.5C 197.5,112.5 197.5,113.5 197.5,114.5C 199.5,114.5 201.5,114.5 203.5,114.5C 203.5,115.5 203.5,116.5 203.5,117.5C 204.5,117.5 205.5,117.5 206.5,117.5C 206.5,118.5 206.5,119.5 206.5,120.5C 207.5,120.5 208.5,120.5 209.5,120.5C 209.5,121.5 209.5,122.5 209.5,123.5C 211.833,124.833 214.167,126.167 216.5,127.5C 216.461,129.359 217.294,130.692 219,131.5C 219.494,133.134 219.66,134.801 219.5,136.5C 220.5,136.5 221.5,136.5 222.5,136.5C 222.002,139.681 222.835,142.347 225,144.5C 225.5,175.832 225.667,207.165 225.5,238.5C 227.604,238.201 229.604,238.534 231.5,239.5C 237.198,242.792 243.198,245.792 249.5,248.5C 253.36,246.049 257.36,243.882 261.5,242C 263.473,241.505 265.473,241.338 267.5,241.5C 267.5,240.5 267.5,239.5 267.5,238.5C 269.5,238.5 271.5,238.5 273.5,238.5C 273.333,207.165 273.5,175.832 274,144.5C 275.952,142.663 276.952,140.329 277,137.5C 279.755,135.99 280.921,133.657 280.5,130.5C 281.5,130.5 282.5,130.5 283.5,130.5C 283.5,129.5 283.5,128.5 283.5,127.5C 284.5,127.5 285.5,127.5 286.5,127.5C 286.5,126.167 286.5,124.833 286.5,123.5C 287.5,123.5 288.5,123.5 289.5,123.5C 289.5,122.5 289.5,121.5 289.5,120.5C 290.5,120.5 291.5,120.5 292.5,120.5C 292.5,119.5 292.5,118.5 292.5,117.5C 294.359,117.539 295.692,116.706 296.5,115C 298.473,114.505 300.473,114.338 302.5,114.5C 302.5,113.5 302.5,112.5 302.5,111.5C 304.5,111.5 306.5,111.5 308.5,111.5C 308.33,110.178 308.663,109.011 309.5,108C 313.243,107.642 316.576,106.309 319.5,104C 318.355,97.2476 318.189,90.4143 319,83.5C 320.77,80.5739 322.437,77.5739 324,74.5C 324.494,72.8659 324.66,71.1992 324.5,69.5C 325.5,69.5 326.5,69.5 327.5,69.5C 327.5,68.5 327.5,67.5 327.5,66.5C 328.833,66.5 330.167,66.5 331.5,66.5C 331.5,65.5 331.5,64.5 331.5,63.5C 332.5,63.5 333.5,63.5 334.5,63.5C 334.5,62.5 334.5,61.5 334.5,60.5C 336.5,60.5 338.5,60.5 340.5,60.5C 340.33,59.1779 340.663,58.0113 341.5,57C 351.833,56.3333 362.167,56.3333 372.5,57C 374.24,58.6945 376.24,59.8611 378.5,60.5C 378.5,61.5 378.5,62.5 378.5,63.5C 380.467,63.2606 382.301,63.5939 384,64.5C 385.815,67.9063 388.148,70.9063 391,73.5C 391.495,75.4727 391.662,77.4727 391.5,79.5C 392.5,79.5 393.5,79.5 394.5,79.5C 394.5,81.5 394.5,83.5 394.5,85.5C 395.5,85.5 396.5,85.5 397.5,85.5C 397.5,87.8333 397.5,90.1667 397.5,92.5C 398.5,92.5 399.5,92.5 400.5,92.5C 400.616,96.8419 401.782,100.842 404,104.5C 404.667,120.167 404.667,135.833 404,151.5C 401.714,155.398 400.548,159.732 400.5,164.5C 399.5,164.5 398.5,164.5 397.5,164.5C 397.5,166.833 397.5,169.167 397.5,171.5C 396.5,171.5 395.5,171.5 394.5,171.5C 394.5,173.5 394.5,175.5 394.5,177.5C 393.5,177.5 392.5,177.5 391.5,177.5C 391.662,179.527 391.495,181.527 391,183.5C 389.294,184.308 388.461,185.641 388.5,187.5C 387.5,187.5 386.5,187.5 385.5,187.5C 385.167,189.5 384.833,191.5 384.5,193.5C 381.959,195.599 378.959,196.932 375.5,197.5C 375.5,198.5 375.5,199.5 375.5,200.5C 372.636,200.064 370.303,200.897 368.5,203C 360.173,203.5 351.84,203.666 343.5,203.5C 343.5,202.5 343.5,201.5 343.5,200.5C 337.483,201.172 333.483,198.839 331.5,193.5C 330.167,193.5 328.833,193.5 327.5,193.5C 327.5,192.5 327.5,191.5 327.5,190.5C 326.5,190.5 325.5,190.5 324.5,190.5C 324.5,188.5 324.5,186.5 324.5,184.5C 323.5,184.5 322.5,184.5 321.5,184.5C 321.998,181.319 321.165,178.653 319,176.5C 318.667,172.5 318.333,168.5 318,164.5C 317.586,164.957 317.086,165.291 316.5,165.5C 315.5,193.159 315.167,220.825 315.5,248.5C 316.5,248.5 317.5,248.5 318.5,248.5C 318.461,250.359 319.294,251.692 321,252.5C 321.494,254.134 321.66,255.801 321.5,257.5C 322.5,257.5 323.5,257.5 324.5,257.5C 324.03,260.346 324.863,262.679 327,264.5C 327.5,278.163 327.667,291.829 327.5,305.5C 326.5,305.5 325.5,305.5 324.5,305.5C 324.5,308.5 324.5,311.5 324.5,314.5C 323.5,314.5 322.5,314.5 321.5,314.5C 320.957,318.015 319.957,321.348 318.5,324.5C 316.005,325.199 313.672,326.199 311.5,327.5C 311.5,328.5 311.5,329.5 311.5,330.5C 310.5,330.5 309.5,330.5 308.5,330.5C 308.5,331.833 308.5,333.167 308.5,334.5C 307.5,334.5 306.5,334.5 305.5,334.5C 305.5,335.5 305.5,336.5 305.5,337.5C 303.641,337.461 302.308,338.294 301.5,340C 299.527,340.495 297.527,340.662 295.5,340.5C 295.5,341.5 295.5,342.5 295.5,343.5C 293.319,343.284 291.653,344.117 290.5,346C 288.19,346.497 285.857,346.663 283.5,346.5C 283.67,347.822 283.337,348.989 282.5,350C 279.5,350.333 276.5,350.667 273.5,351C 275.607,352.264 276.607,354.097 276.5,356.5C 277.5,356.5 278.5,356.5 279.5,356.5C 280.107,359.076 281.274,361.409 283,363.5C 283.667,372.833 283.667,382.167 283,391.5C 281.306,393.24 280.139,395.24 279.5,397.5C 278.5,397.5 277.5,397.5 276.5,397.5C 276.638,401.693 274.638,404.027 270.5,404.5C 270.5,417.167 270.5,429.833 270.5,442.5C 267.654,442.03 265.321,442.863 263.5,445C 254.149,445.832 244.816,445.665 235.5,444.5C 233.851,443.012 231.851,442.012 229.5,441.5C 228.52,429.217 228.187,416.884 228.5,404.5C 224.02,404.35 222.02,402.017 222.5,397.5C 221.5,397.5 220.5,397.5 219.5,397.5C 219.539,395.641 218.706,394.308 217,393.5C 216.333,382.833 216.333,372.167 217,361.5C 218.892,360.383 219.725,358.716 219.5,356.5C 220.5,356.5 221.5,356.5 222.5,356.5C 222.5,355.5 222.5,354.5 222.5,353.5C 223.5,353.5 224.5,353.5 225.5,353.5C 225.5,352.5 225.5,351.5 225.5,350.5C 222.813,350.664 220.146,350.497 217.5,350C 216.663,348.989 216.33,347.822 216.5,346.5C 211.826,346.252 207.493,345.252 203.5,343.5C 203.5,342.5 203.5,341.5 203.5,340.5C 201.5,340.5 199.5,340.5 197.5,340.5C 197.5,339.5 197.5,338.5 197.5,337.5C 196.448,337.649 195.448,337.483 194.5,337C 193.667,335.5 192.5,334.333 191,333.5C 190.517,332.552 190.351,331.552 190.5,330.5C 189.5,330.5 188.5,330.5 187.5,330.5C 187.5,329.5 187.5,328.5 187.5,327.5C 186.5,327.5 185.5,327.5 184.5,327.5C 184.5,326.5 184.5,325.5 184.5,324.5C 183.5,324.5 182.5,324.5 181.5,324.5C 179.96,321.74 178.627,318.74 177.5,315.5C 176.758,314.713 175.925,314.047 175,313.5C 174.503,310.854 174.336,308.187 174.5,305.5C 173.5,305.5 172.5,305.5 171.5,305.5C 171.167,291.817 171.501,278.15 172.5,264.5C 174.171,262.49 174.838,260.157 174.5,257.5C 177.779,256.969 179.113,254.969 178.5,251.5C 179.5,251.5 180.5,251.5 181.5,251.5C 181.5,250.5 181.5,249.5 181.5,248.5C 182.5,248.5 183.5,248.5 184.5,248.5C 184.833,220.825 184.5,193.159 183.5,165.5C 182.914,165.291 182.414,164.957 182,164.5C 181.667,168.167 181.333,171.833 181,175.5C 180.29,176.973 179.124,177.64 177.5,177.5C 177.252,182.174 176.252,186.507 174.5,190.5C 173.5,190.5 172.5,190.5 171.5,190.5C 171.5,191.5 171.5,192.5 171.5,193.5C 170.5,193.5 169.5,193.5 168.5,193.5C 168.67,194.822 168.337,195.989 167.5,197C 164.24,199.233 160.906,201.233 157.5,203C 148.506,203.5 139.506,203.666 130.5,203.5C 130.5,202.5 130.5,201.5 130.5,200.5C 128.473,200.662 126.473,200.495 124.5,200C 121.269,197.559 117.935,195.392 114.5,193.5C 114.5,191.5 114.5,189.5 114.5,187.5C 113.5,187.5 112.5,187.5 111.5,187.5C 111.5,186.5 111.5,185.5 111.5,184.5C 110.325,184.719 109.325,184.386 108.5,183.5C 107.652,181.591 107.318,179.591 107.5,177.5C 106.5,177.5 105.5,177.5 104.5,177.5C 104.5,175.5 104.5,173.5 104.5,171.5C 103.5,171.5 102.5,171.5 101.5,171.5C 101.5,169.167 101.5,166.833 101.5,164.5C 100.5,164.5 99.5,164.5 98.5,164.5C 98.5,160.5 98.5,156.5 98.5,152.5C 97.5,152.5 96.5,152.5 95.5,152.5C 95.1672,135.82 95.5005,119.153 96.5,102.5C 97.086,102.291 97.586,101.957 98,101.5C 98.498,98.5184 98.6646,95.5184 98.5,92.5C 99.5,92.5 100.5,92.5 101.5,92.5C 101.748,87.8261 102.748,83.4928 104.5,79.5C 105.5,79.5 106.5,79.5 107.5,79.5C 107.338,77.4727 107.505,75.4727 108,73.5C 109.011,72.6634 110.178,72.33 111.5,72.5C 112.673,69.9332 113.839,67.2666 115,64.5C 116.699,63.5939 118.533,63.2606 120.5,63.5C 120.5,62.5 120.5,61.5 120.5,60.5C 121.833,60.5 123.167,60.5 124.5,60.5C 124.5,59.5 124.5,58.5 124.5,57.5C 125.791,57.7373 126.791,57.404 127.5,56.5 Z M 133.5,75.5 C 138.833,75.5 144.167,75.5 149.5,75.5C 149.5,76.5 149.5,77.5 149.5,78.5C 151.5,78.8333 153.5,79.1667 155.5,79.5C 155.5,80.5 155.5,81.5 155.5,82.5C 156.5,82.5 157.5,82.5 158.5,82.5C 157.599,86.2407 158.932,88.2407 162.5,88.5C 162.664,91.1873 162.497,93.854 162,96.5C 159.806,101.06 156.806,105.06 153,108.5C 152.505,110.473 152.338,112.473 152.5,114.5C 151.5,114.5 150.5,114.5 149.5,114.5C 149.334,124.506 149.5,134.506 150,144.5C 151.829,148.219 153.662,151.886 155.5,155.5C 156.5,155.5 157.5,155.5 158.5,155.5C 157.697,159.169 158.864,161.836 162,163.5C 162.497,166.146 162.664,168.813 162.5,171.5C 161.178,171.33 160.011,171.663 159,172.5C 158.869,176.056 157.702,179.056 155.5,181.5C 153.5,181.5 151.5,181.5 149.5,181.5C 149.5,182.5 149.5,183.5 149.5,184.5C 145.167,184.5 140.833,184.5 136.5,184.5C 136.5,183.5 136.5,182.5 136.5,181.5C 135.5,181.5 134.5,181.5 133.5,181.5C 133.5,180.5 133.5,179.5 133.5,178.5C 132.5,178.5 131.5,178.5 130.5,178.5C 130.833,175.5 129.5,174.167 126.5,174.5C 126.66,172.801 126.494,171.134 126,169.5C 124.294,168.692 123.461,167.359 123.5,165.5C 122.5,165.5 121.5,165.5 120.5,165.5C 120.665,162.482 120.498,159.482 120,156.5C 118.197,153.261 116.697,149.928 115.5,146.5C 113.554,130.846 114.554,115.512 118.5,100.5C 119.086,100.291 119.586,99.9574 120,99.5C 120.497,96.854 120.664,94.1873 120.5,91.5C 121.5,91.5 122.5,91.5 123.5,91.5C 123.5,89.5 123.5,87.5 123.5,85.5C 124.5,85.5 125.5,85.5 126.5,85.5C 126.5,84.5 126.5,83.5 126.5,82.5C 127.552,82.6495 128.552,82.4828 129.5,82C 130.333,80.5 131.5,79.3333 133,78.5C 133.483,77.552 133.649,76.552 133.5,75.5 Z M 349.5,75.5 C 355.167,75.5 360.833,75.5 366.5,75.5C 366.5,76.8333 366.5,78.1667 366.5,79.5C 367.5,79.5 368.5,79.5 369.5,79.5C 369.5,80.5 369.5,81.5 369.5,82.5C 370.5,82.5 371.5,82.5 372.5,82.5C 372.5,83.5 372.5,84.5 372.5,85.5C 373.5,85.5 374.5,85.5 375.5,85.5C 375.5,87.5 375.5,89.5 375.5,91.5C 376.5,91.5 377.5,91.5 378.5,91.5C 378.337,93.8568 378.503,96.1902 379,98.5C 381.137,102.471 382.971,106.471 384.5,110.5C 385.499,122.482 385.832,134.482 385.5,146.5C 384.5,146.5 383.5,146.5 382.5,146.5C 382.711,150.673 381.544,154.339 379,157.5C 378.503,160.146 378.336,162.813 378.5,165.5C 377.5,165.5 376.5,165.5 375.5,165.5C 374.03,168.318 373.03,171.318 372.5,174.5C 371.5,174.5 370.5,174.5 369.5,174.5C 369.5,175.833 369.5,177.167 369.5,178.5C 368.5,178.5 367.5,178.5 366.5,178.5C 366.5,179.5 366.5,180.5 366.5,181.5C 365.167,181.5 363.833,181.5 362.5,181.5C 362.5,182.5 362.5,183.5 362.5,184.5C 358.167,184.5 353.833,184.5 349.5,184.5C 349.5,183.5 349.5,182.5 349.5,181.5C 347.5,181.5 345.5,181.5 343.5,181.5C 341.533,178.589 340.533,175.256 340.5,171.5C 339.5,171.5 338.5,171.5 337.5,171.5C 337.336,168.813 337.503,166.146 338,163.5C 339.77,159.725 341.603,156.058 343.5,152.5C 344.5,152.5 345.5,152.5 346.5,152.5C 346.5,150.167 346.5,147.833 346.5,145.5C 347.5,145.5 348.5,145.5 349.5,145.5C 350.833,135.167 350.833,124.833 349.5,114.5C 348.5,114.5 347.5,114.5 346.5,114.5C 347.099,109.603 345.265,105.937 341,103.5C 340.506,101.866 340.34,100.199 340.5,98.5C 339.5,98.5 338.5,98.5 337.5,98.5C 337.5,95.1667 337.5,91.8333 337.5,88.5C 338.5,88.5 339.5,88.5 340.5,88.5C 340.34,86.8008 340.506,85.1341 341,83.5C 342.706,82.6921 343.539,81.3588 343.5,79.5C 347.241,80.4015 349.241,79.0681 349.5,75.5 Z M 168.5,123.5 C 173.524,125.418 178.857,126.418 184.5,126.5C 184.433,129.766 186.099,131.266 189.5,131C 191.167,132.667 192.833,134.333 194.5,136C 195.448,136.483 196.448,136.649 197.5,136.5C 197.5,137.5 197.5,138.5 197.5,139.5C 198.5,139.5 199.5,139.5 200.5,139.5C 200.5,141.5 200.5,143.5 200.5,145.5C 201.5,145.5 202.5,145.5 203.5,145.5C 205.5,151.479 206.667,157.812 207,164.5C 207.667,165.167 208.333,165.833 209,166.5C 209.5,190.498 209.667,214.498 209.5,238.5C 207.5,238.5 205.5,238.5 203.5,238.5C 203.667,213.498 203.5,188.498 203,163.5C 202.085,162.672 201.419,161.672 201,160.5C 200.501,156.848 200.335,153.182 200.5,149.5C 199.5,149.5 198.5,149.5 197.5,149.5C 197.66,147.801 197.494,146.134 197,144.5C 194.828,143.491 193.662,141.824 193.5,139.5C 192.5,139.5 191.5,139.5 190.5,139.5C 190.5,138.5 190.5,137.5 190.5,136.5C 188.5,136.5 186.5,136.5 184.5,136.5C 184.5,135.5 184.5,134.5 184.5,133.5C 179.476,131.582 174.143,130.582 168.5,130.5C 168.5,128.167 168.5,125.833 168.5,123.5 Z M 324.5,123.5 C 326.5,123.5 328.5,123.5 330.5,123.5C 330.5,125.833 330.5,128.167 330.5,130.5C 325.171,130.757 320.171,131.757 315.5,133.5C 315.5,134.5 315.5,135.5 315.5,136.5C 313.167,136.5 310.833,136.5 308.5,136.5C 308.5,137.5 308.5,138.5 308.5,139.5C 307.5,139.5 306.5,139.5 305.5,139.5C 303.668,142.747 301.835,146.08 300,149.5C 299.5,179.165 299.333,208.831 299.5,238.5C 296.167,238.5 292.833,238.5 289.5,238.5C 289.167,214.824 289.5,191.157 290.5,167.5C 291.086,167.291 291.586,166.957 292,166.5C 292.214,159.137 293.38,152.137 295.5,145.5C 296.5,145.5 297.5,145.5 298.5,145.5C 298.833,143.5 299.167,141.5 299.5,139.5C 300.5,139.5 301.5,139.5 302.5,139.5C 302.5,138.5 302.5,137.5 302.5,136.5C 303.5,136.5 304.5,136.5 305.5,136.5C 305.5,135.5 305.5,134.5 305.5,133.5C 307.359,133.539 308.692,132.706 309.5,131C 311.134,130.506 312.801,130.34 314.5,130.5C 314.5,129.167 314.5,127.833 314.5,126.5C 317.518,126.665 320.518,126.498 323.5,126C 324.252,125.329 324.586,124.496 324.5,123.5 Z M 178.5,155.5 C 179.5,155.5 180.5,155.5 181.5,155.5C 181.657,156.873 181.49,158.207 181,159.5C 180.52,157.867 179.687,156.534 178.5,155.5 Z M 318.5,155.5 C 322.243,155.459 322.41,156.126 319,157.5C 318.536,156.906 318.369,156.239 318.5,155.5 Z M 203.5,257.5 C 209.868,257.17 216.202,257.504 222.5,258.5C 222.709,259.086 223.043,259.586 223.5,260C 225.473,260.495 227.473,260.662 229.5,260.5C 229.5,261.5 229.5,262.5 229.5,263.5C 233.163,263.952 236.83,264.452 240.5,265C 241.167,265.667 241.833,266.333 242.5,267C 247.167,267.667 251.833,267.667 256.5,267C 257.167,266.333 257.833,265.667 258.5,265C 262.219,264.612 265.886,263.945 269.5,263C 271.708,261.225 274.042,259.725 276.5,258.5C 287.86,255.295 297.193,257.962 304.5,266.5C 305.429,267.689 305.762,269.022 305.5,270.5C 306.5,270.5 307.5,270.5 308.5,270.5C 308.335,273.85 308.502,277.183 309,280.5C 309.5,281.667 310.333,282.5 311.5,283C 310.584,283.374 309.75,283.874 309,284.5C 308.501,289.489 308.334,294.489 308.5,299.5C 307.5,299.5 306.5,299.5 305.5,299.5C 305.5,301.5 305.5,303.5 305.5,305.5C 304.5,305.5 303.5,305.5 302.5,305.5C 301.043,308.652 300.043,311.985 299.5,315.5C 298.167,315.5 296.833,315.5 295.5,315.5C 295.5,316.5 295.5,317.5 295.5,318.5C 294.5,318.5 293.5,318.5 292.5,318.5C 292.5,319.5 292.5,320.5 292.5,321.5C 290.801,321.34 289.134,321.506 287.5,322C 286.692,323.706 285.359,324.539 283.5,324.5C 283.5,325.5 283.5,326.5 283.5,327.5C 278.457,329.315 273.124,330.648 267.5,331.5C 267.5,332.5 267.5,333.5 267.5,334.5C 255.5,334.5 243.5,334.5 231.5,334.5C 231.5,333.5 231.5,332.5 231.5,331.5C 228.518,331.037 225.518,330.704 222.5,330.5C 222.5,329.5 222.5,328.5 222.5,327.5C 220.5,327.5 218.5,327.5 216.5,327.5C 216.5,326.5 216.5,325.5 216.5,324.5C 215.167,324.5 213.833,324.5 212.5,324.5C 212.5,323.5 212.5,322.5 212.5,321.5C 210.5,321.5 208.5,321.5 206.5,321.5C 206.5,320.5 206.5,319.5 206.5,318.5C 205.5,318.5 204.5,318.5 203.5,318.5C 203.5,317.5 203.5,316.5 203.5,315.5C 202.5,315.5 201.5,315.5 200.5,315.5C 198.96,312.74 197.627,309.74 196.5,306.5C 195.675,305.614 194.675,305.281 193.5,305.5C 193.5,303.5 193.5,301.5 193.5,299.5C 192.5,299.5 191.5,299.5 190.5,299.5C 190.5,294.167 190.5,288.833 190.5,283.5C 186.757,283.541 186.59,282.874 190,281.5C 190.499,277.848 190.665,274.182 190.5,270.5C 191.5,270.5 192.5,270.5 193.5,270.5C 193.5,269.167 193.5,267.833 193.5,266.5C 194.5,266.5 195.5,266.5 196.5,266.5C 196.5,265.5 196.5,264.5 196.5,263.5C 197.5,263.5 198.5,263.5 199.5,263.5C 199.5,262.5 199.5,261.5 199.5,260.5C 200.833,260.5 202.167,260.5 203.5,260.5C 203.5,259.5 203.5,258.5 203.5,257.5 Z M 244.5,353.5 C 247.833,353.5 251.167,353.5 254.5,353.5C 254.5,356.5 254.5,359.5 254.5,362.5C 255.5,362.5 256.5,362.5 257.5,362.5C 257.5,363.5 257.5,364.5 257.5,365.5C 258.5,365.5 259.5,365.5 260.5,365.5C 260.167,368.5 261.5,369.833 264.5,369.5C 264.5,374.833 264.5,380.167 264.5,385.5C 263.167,385.5 261.833,385.5 260.5,385.5C 260.5,386.5 260.5,387.5 260.5,388.5C 259.5,388.5 258.5,388.5 257.5,388.5C 257.5,389.5 257.5,390.5 257.5,391.5C 256.5,391.5 255.5,391.5 254.5,391.5C 254.5,403.167 254.5,414.833 254.5,426.5C 251.167,426.5 247.833,426.5 244.5,426.5C 244.5,414.833 244.5,403.167 244.5,391.5C 243.5,391.5 242.5,391.5 241.5,391.5C 241.5,390.5 241.5,389.5 241.5,388.5C 240.5,388.5 239.5,388.5 238.5,388.5C 238.5,387.5 238.5,386.5 238.5,385.5C 237.5,385.5 236.5,385.5 235.5,385.5C 235.5,380.167 235.5,374.833 235.5,369.5C 236.5,369.5 237.5,369.5 238.5,369.5C 238.5,368.167 238.5,366.833 238.5,365.5C 239.5,365.5 240.5,365.5 241.5,365.5C 241.5,364.5 241.5,363.5 241.5,362.5C 242.5,362.5 243.5,362.5 244.5,362.5C 244.5,359.5 244.5,356.5 244.5,353.5 Z"/></g>
<g><path style="opacity:0.547" fill="#fefffe" d="M 178.5,343.5 C 184.176,343.334 189.843,343.501 195.5,344C 197.581,346.363 200.247,347.529 203.5,347.5C 203.5,348.5 203.5,349.5 203.5,350.5C 204.5,350.5 205.5,350.5 206.5,350.5C 206.827,355.544 206.494,360.544 205.5,365.5C 199.522,366.683 193.522,366.683 187.5,365.5C 187.5,364.5 187.5,363.5 187.5,362.5C 185.5,362.5 183.5,362.5 181.5,362.5C 181.5,361.5 181.5,360.5 181.5,359.5C 179.876,359.64 178.71,358.973 178,357.5C 177.283,352.78 177.45,348.114 178.5,343.5 Z"/></g>
<g><path style="opacity:0.546" fill="#fefffe" d="M 303.5,343.5 C 309.5,343.5 315.5,343.5 321.5,343.5C 321.5,348.833 321.5,354.167 321.5,359.5C 319.641,359.461 318.308,360.294 317.5,362C 315.527,362.495 313.527,362.662 311.5,362.5C 311.5,363.5 311.5,364.5 311.5,365.5C 305.478,366.683 299.478,366.683 293.5,365.5C 292.506,360.544 292.173,355.544 292.5,350.5C 293.833,350.5 295.167,350.5 296.5,350.5C 296.5,349.5 296.5,348.5 296.5,347.5C 299.771,347.646 302.105,346.312 303.5,343.5 Z"/></g>
<g><path style="opacity:0.625" fill="#fefffe" d="M 178.5,369.5 C 187.833,369.5 197.167,369.5 206.5,369.5C 206.5,374.833 206.5,380.167 206.5,385.5C 197.167,385.5 187.833,385.5 178.5,385.5C 177.225,380.153 177.225,374.82 178.5,369.5 Z"/></g>
<g><path style="opacity:0.622" fill="#fefffe" d="M 292.5,369.5 C 302.167,369.5 311.833,369.5 321.5,369.5C 321.666,374.511 321.499,379.511 321,384.5C 311.667,385.833 302.333,385.833 293,384.5C 292.501,379.511 292.334,374.511 292.5,369.5 Z"/></g>
<g><path style="opacity:0.556" fill="#fefffe" d="M 188.5,388.5 C 194.5,388.5 200.5,388.5 206.5,388.5C 206.5,393.833 206.5,399.167 206.5,404.5C 204.641,404.461 203.308,405.294 202.5,407C 200.527,407.495 198.527,407.662 196.5,407.5C 196.5,408.5 196.5,409.5 196.5,410.5C 190.463,410.829 184.463,410.496 178.5,409.5C 176.714,405.352 176.548,401.019 178,396.5C 178.71,395.027 179.876,394.36 181.5,394.5C 181.5,393.5 181.5,392.5 181.5,391.5C 184.636,392.021 186.97,391.021 188.5,388.5 Z"/></g>
<g><path style="opacity:0.555" fill="#fefffe" d="M 292.5,388.5 C 298.833,388.5 305.167,388.5 311.5,388.5C 311.5,389.5 311.5,390.5 311.5,391.5C 313.527,391.338 315.527,391.505 317.5,392C 318.308,393.706 319.641,394.539 321.5,394.5C 321.5,399.833 321.5,405.167 321.5,410.5C 315.167,410.5 308.833,410.5 302.5,410.5C 302.5,409.5 302.5,408.5 302.5,407.5C 300.5,407.5 298.5,407.5 296.5,407.5C 296.5,406.5 296.5,405.5 296.5,404.5C 295.167,404.5 293.833,404.5 292.5,404.5C 292.5,399.167 292.5,393.833 292.5,388.5 Z"/></g>
</svg>
