<?xml version="1.0" encoding="UTF-8"?>
<!DOCTYPE svg PUBLIC "-//W3C//DTD SVG 1.1//EN" "http://www.w3.org/Graphics/SVG/1.1/DTD/svg11.dtd">
<svg xmlns="http://www.w3.org/2000/svg" version="1.1" width="500px" height="500px" style="shape-rendering:geometricPrecision; text-rendering:geometricPrecision; image-rendering:optimizeQuality; fill-rule:evenodd; clip-rule:evenodd" xmlns:xlink="http://www.w3.org/1999/xlink">
<g><path style="opacity:0.635" fill="#fefffe" d="M 390.5,46.5 C 398.659,46.0397 406.659,46.7064 414.5,48.5C 414.5,49.8333 414.5,51.1667 414.5,52.5C 415.833,52.5 417.167,52.5 418.5,52.5C 418.5,53.5 418.5,54.5 418.5,55.5C 419.5,55.5 420.5,55.5 421.5,55.5C 421.5,56.5 421.5,57.5 421.5,58.5C 422.5,58.5 423.5,58.5 424.5,58.5C 424.5,59.5 424.5,60.5 424.5,61.5C 425.5,61.5 426.5,61.5 427.5,61.5C 427.5,62.5 427.5,63.5 427.5,64.5C 430.772,66.1506 433.772,68.3173 436.5,71C 437.448,71.4828 438.448,71.6495 439.5,71.5C 439.5,72.5 439.5,73.5 439.5,74.5C 440.675,74.281 441.675,74.6143 442.5,75.5C 442.909,77.9913 444.076,79.9913 446,81.5C 446.667,85.1667 446.667,88.8333 446,92.5C 443.863,94.3211 443.03,96.6544 443.5,99.5C 441.641,99.4609 440.308,100.294 439.5,102C 434.267,103.705 428.934,105.205 423.5,106.5C 423.291,107.086 422.957,107.586 422.5,108C 417.845,108.499 413.179,108.666 408.5,108.5C 408.5,109.5 408.5,110.5 408.5,111.5C 407.5,111.5 406.5,111.5 405.5,111.5C 405.649,112.552 405.483,113.552 405,114.5C 402.528,116.456 400.695,118.789 399.5,121.5C 397.005,122.199 394.672,123.199 392.5,124.5C 392.5,125.5 392.5,126.5 392.5,127.5C 391.5,127.5 390.5,127.5 389.5,127.5C 389.5,128.5 389.5,129.5 389.5,130.5C 388.5,130.5 387.5,130.5 386.5,130.5C 385.801,132.995 384.801,135.328 383.5,137.5C 382.5,137.5 381.5,137.5 380.5,137.5C 380.5,138.5 380.5,139.5 380.5,140.5C 379.5,140.5 378.5,140.5 377.5,140.5C 374.104,145.508 370.77,150.508 367.5,155.5C 363.5,155.833 363.5,156.167 367.5,156.5C 367.5,157.5 367.5,158.5 367.5,159.5C 368.5,159.5 369.5,159.5 370.5,159.5C 370.5,160.5 370.5,161.5 370.5,162.5C 371.5,162.5 372.5,162.5 373.5,162.5C 373.5,163.5 373.5,164.5 373.5,165.5C 375.995,166.199 378.328,167.199 380.5,168.5C 382.863,171.549 384.863,174.882 386.5,178.5C 387.5,178.5 388.5,178.5 389.5,178.5C 389.666,185.508 389.5,192.508 389,199.5C 387.294,200.308 386.461,201.641 386.5,203.5C 385.5,203.5 384.5,203.5 383.5,203.5C 383.5,204.5 383.5,205.5 383.5,206.5C 381.167,206.5 378.833,206.5 376.5,206.5C 376.5,207.5 376.5,208.5 376.5,209.5C 372.5,209.5 368.5,209.5 364.5,209.5C 364.5,208.5 364.5,207.5 364.5,206.5C 360.744,206.533 357.411,207.533 354.5,209.5C 354.5,210.5 354.5,211.5 354.5,212.5C 353.5,212.5 352.5,212.5 351.5,212.5C 350.801,214.995 349.801,217.328 348.5,219.5C 347.5,219.5 346.5,219.5 345.5,219.5C 345.5,220.5 345.5,221.5 345.5,222.5C 344.5,222.5 343.5,222.5 342.5,222.5C 342.5,223.5 342.5,224.5 342.5,225.5C 341.5,225.5 340.5,225.5 339.5,225.5C 339.5,226.5 339.5,227.5 339.5,228.5C 337.328,229.801 334.995,230.801 332.5,231.5C 331.801,233.995 330.801,236.328 329.5,238.5C 328.5,238.5 327.5,238.5 326.5,238.5C 326.5,239.5 326.5,240.5 326.5,241.5C 325.5,241.5 324.5,241.5 323.5,241.5C 323.5,242.5 323.5,243.5 323.5,244.5C 322.5,244.5 321.5,244.5 320.5,244.5C 320.5,245.5 320.5,246.5 320.5,247.5C 319.5,247.5 318.5,247.5 317.5,247.5C 317.649,248.552 317.483,249.552 317,250.5C 310.837,258.008 304.337,265.174 297.5,272C 296.552,272.483 295.552,272.649 294.5,272.5C 293.801,274.995 292.801,277.328 291.5,279.5C 290.5,279.5 289.5,279.5 288.5,279.5C 288.5,280.5 288.5,281.5 288.5,282.5C 287.5,282.5 286.5,282.5 285.5,282.5C 285.5,283.5 285.5,284.5 285.5,285.5C 284.5,285.5 283.5,285.5 282.5,285.5C 282.5,286.5 282.5,287.5 282.5,288.5C 281.5,288.5 280.5,288.5 279.5,288.5C 279.5,289.5 279.5,290.5 279.5,291.5C 278.5,291.5 277.5,291.5 276.5,291.5C 275.167,293.833 273.833,296.167 272.5,298.5C 271.5,298.5 270.5,298.5 269.5,298.5C 269.5,299.5 269.5,300.5 269.5,301.5C 268.5,301.5 267.5,301.5 266.5,301.5C 266.5,302.5 266.5,303.5 266.5,304.5C 265.5,304.5 264.5,304.5 263.5,304.5C 263.5,305.5 263.5,306.5 263.5,307.5C 262.5,307.5 261.5,307.5 260.5,307.5C 260.579,308.93 260.246,310.264 259.5,311.5C 257.605,312.973 255.939,314.64 254.5,316.5C 253.614,317.325 253.281,318.325 253.5,319.5C 252.5,319.5 251.5,319.5 250.5,319.5C 250.649,320.552 250.483,321.552 250,322.5C 247.528,324.456 245.695,326.789 244.5,329.5C 243.5,329.5 242.5,329.5 241.5,329.5C 241.5,330.5 241.5,331.5 241.5,332.5C 240.5,332.5 239.5,332.5 238.5,332.5C 238.5,333.5 238.5,334.5 238.5,335.5C 235.5,335.167 234.167,336.5 234.5,339.5C 233.5,339.5 232.5,339.5 231.5,339.5C 231.5,340.5 231.5,341.5 231.5,342.5C 230.5,342.5 229.5,342.5 228.5,342.5C 228.5,343.5 228.5,344.5 228.5,345.5C 227.5,345.5 226.5,345.5 225.5,345.5C 225.5,346.5 225.5,347.5 225.5,348.5C 224.5,348.5 223.5,348.5 222.5,348.5C 222.5,349.5 222.5,350.5 222.5,351.5C 221.5,351.5 220.5,351.5 219.5,351.5C 219.5,352.5 219.5,353.5 219.5,354.5C 218.5,354.5 217.5,354.5 216.5,354.5C 216.833,357.5 215.5,358.833 212.5,358.5C 212.5,359.5 212.5,360.5 212.5,361.5C 211.5,361.5 210.5,361.5 209.5,361.5C 209.5,362.5 209.5,363.5 209.5,364.5C 208.5,364.5 207.5,364.5 206.5,364.5C 206.5,365.5 206.5,366.5 206.5,367.5C 205.5,367.5 204.5,367.5 203.5,367.5C 203.719,368.675 203.386,369.675 202.5,370.5C 201.305,372.297 199.638,373.297 197.5,373.5C 197.649,374.552 197.483,375.552 197,376.5C 185.747,386.164 172.58,389.331 157.5,386C 156.372,383.935 154.706,383.268 152.5,384C 148.912,387.437 145.912,391.27 143.5,395.5C 142.5,395.5 141.5,395.5 140.5,395.5C 139.836,397.867 138.503,399.867 136.5,401.5C 131.544,402.494 126.544,402.827 121.5,402.5C 121.5,401.5 121.5,400.5 121.5,399.5C 118.789,400.695 116.456,402.528 114.5,405C 113.552,405.483 112.552,405.649 111.5,405.5C 111.5,406.5 111.5,407.5 111.5,408.5C 110.5,408.5 109.5,408.5 108.5,408.5C 108.5,409.5 108.5,410.5 108.5,411.5C 107.5,411.5 106.5,411.5 105.5,411.5C 105.5,412.5 105.5,413.5 105.5,414.5C 104.5,414.5 103.5,414.5 102.5,414.5C 102.5,415.833 102.5,417.167 102.5,418.5C 101.5,418.5 100.5,418.5 99.5,418.5C 99.5,419.5 99.5,420.5 99.5,421.5C 98.5,421.5 97.5,421.5 96.5,421.5C 96.5,422.5 96.5,423.5 96.5,424.5C 93.9561,425.468 91.7895,427.135 90,429.5C 87.5952,432.726 85.4285,436.06 83.5,439.5C 82.5,439.5 81.5,439.5 80.5,439.5C 80.6495,440.552 80.4828,441.552 80,442.5C 72.6298,451.362 63.4632,453.695 52.5,449.5C 52.5,446.5 52.5,443.5 52.5,440.5C 53.5,440.5 54.5,440.5 55.5,440.5C 55.5,439.5 55.5,438.5 55.5,437.5C 56.5,437.5 57.5,437.5 58.5,437.5C 59.0828,434.511 60.4162,431.845 62.5,429.5C 64.7267,427.393 66.7267,425.06 68.5,422.5C 69.325,421.614 70.325,421.281 71.5,421.5C 71.5,420.5 71.5,419.5 71.5,418.5C 72.5,418.5 73.5,418.5 74.5,418.5C 74.5,417.5 74.5,416.5 74.5,415.5C 75.5,415.5 76.5,415.5 77.5,415.5C 78.1989,413.005 79.1989,410.672 80.5,408.5C 81.5,408.5 82.5,408.5 83.5,408.5C 83.5,407.5 83.5,406.5 83.5,405.5C 84.5,405.5 85.5,405.5 86.5,405.5C 86.5,404.5 86.5,403.5 86.5,402.5C 87.5,402.5 88.5,402.5 89.5,402.5C 89.5,401.5 89.5,400.5 89.5,399.5C 90.8333,399.5 92.1667,399.5 93.5,399.5C 93.5,398.5 93.5,397.5 93.5,396.5C 94.5,396.5 95.5,396.5 96.5,396.5C 96.5,395.167 96.5,393.833 96.5,392.5C 97.5,392.5 98.5,392.5 99.5,392.5C 99.5,391.5 99.5,390.5 99.5,389.5C 100.5,389.5 101.5,389.5 102.5,389.5C 102.5,388.5 102.5,387.5 102.5,386.5C 103.5,386.5 104.5,386.5 105.5,386.5C 105.5,385.5 105.5,384.5 105.5,383.5C 104.5,383.5 103.5,383.5 102.5,383.5C 102.5,379.167 102.5,374.833 102.5,370.5C 103.5,370.5 104.5,370.5 105.5,370.5C 105.5,369.5 105.5,368.5 105.5,367.5C 106.5,367.5 107.5,367.5 108.5,367.5C 111.833,362.5 115.167,357.5 118.5,352.5C 122.5,352.167 122.5,351.833 118.5,351.5C 118.666,347.486 118.499,343.486 118,339.5C 114.855,336.606 114.688,333.606 117.5,330.5C 118.492,326.217 118.826,321.884 118.5,317.5C 119.5,317.5 120.5,317.5 121.5,317.5C 121.5,315.167 121.5,312.833 121.5,310.5C 122.5,310.5 123.5,310.5 124.5,310.5C 126.833,306.5 129.167,302.5 131.5,298.5C 132.5,298.5 133.5,298.5 134.5,298.5C 134.5,297.5 134.5,296.5 134.5,295.5C 135.5,295.5 136.5,295.5 137.5,295.5C 139.5,292.167 141.5,288.833 143.5,285.5C 144.5,285.5 145.5,285.5 146.5,285.5C 146.5,284.5 146.5,283.5 146.5,282.5C 147.5,282.5 148.5,282.5 149.5,282.5C 149.5,281.5 149.5,280.5 149.5,279.5C 150.833,279.5 152.167,279.5 153.5,279.5C 153.5,278.5 153.5,277.5 153.5,276.5C 154.5,276.5 155.5,276.5 156.5,276.5C 157.199,274.005 158.199,271.672 159.5,269.5C 160.5,269.5 161.5,269.5 162.5,269.5C 162.5,268.5 162.5,267.5 162.5,266.5C 163.5,266.5 164.5,266.5 165.5,266.5C 165.5,265.5 165.5,264.5 165.5,263.5C 166.5,263.5 167.5,263.5 168.5,263.5C 168.5,262.5 168.5,261.5 168.5,260.5C 169.5,260.5 170.5,260.5 171.5,260.5C 171.5,259.5 171.5,258.5 171.5,257.5C 172.833,257.5 174.167,257.5 175.5,257.5C 175.5,256.5 175.5,255.5 175.5,254.5C 176.5,254.5 177.5,254.5 178.5,254.5C 181.736,246.337 187.069,240.004 194.5,235.5C 194.5,234.5 194.5,233.5 194.5,232.5C 195.5,232.5 196.5,232.5 197.5,232.5C 198.199,230.005 199.199,227.672 200.5,225.5C 201.5,225.5 202.5,225.5 203.5,225.5C 203.5,224.5 203.5,223.5 203.5,222.5C 204.5,222.5 205.5,222.5 206.5,222.5C 206.5,221.5 206.5,220.5 206.5,219.5C 207.5,219.5 208.5,219.5 209.5,219.5C 209.5,218.5 209.5,217.5 209.5,216.5C 210.552,216.649 211.552,216.483 212.5,216C 213.333,214.5 214.5,213.333 216,212.5C 216.483,211.552 216.649,210.552 216.5,209.5C 217.5,209.5 218.5,209.5 219.5,209.5C 219.5,208.5 219.5,207.5 219.5,206.5C 220.5,206.5 221.5,206.5 222.5,206.5C 222.5,205.5 222.5,204.5 222.5,203.5C 223.5,203.5 224.5,203.5 225.5,203.5C 225.5,202.5 225.5,201.5 225.5,200.5C 226.5,200.5 227.5,200.5 228.5,200.5C 228.5,199.5 228.5,198.5 228.5,197.5C 229.5,197.5 230.5,197.5 231.5,197.5C 231.5,196.5 231.5,195.5 231.5,194.5C 232.833,194.5 234.167,194.5 235.5,194.5C 235.238,193.022 235.571,191.689 236.5,190.5C 240.865,184.269 245.865,178.436 251.5,173C 252.448,172.517 253.448,172.351 254.5,172.5C 255.199,170.005 256.199,167.672 257.5,165.5C 258.5,165.5 259.5,165.5 260.5,165.5C 260.5,164.5 260.5,163.5 260.5,162.5C 261.5,162.5 262.5,162.5 263.5,162.5C 263.5,161.5 263.5,160.5 263.5,159.5C 264.5,159.5 265.5,159.5 266.5,159.5C 266.5,158.5 266.5,157.5 266.5,156.5C 267.5,156.5 268.5,156.5 269.5,156.5C 269.5,155.5 269.5,154.5 269.5,153.5C 271.833,152.167 274.167,150.833 276.5,149.5C 276.5,148.5 276.5,147.5 276.5,146.5C 277.5,146.5 278.5,146.5 279.5,146.5C 279.5,145.5 279.5,144.5 279.5,143.5C 280.5,143.5 281.5,143.5 282.5,143.5C 282.5,142.5 282.5,141.5 282.5,140.5C 283.5,140.5 284.5,140.5 285.5,140.5C 285.5,138.167 285.5,135.833 285.5,133.5C 284.5,133.5 283.5,133.5 282.5,133.5C 282.173,128.456 282.506,123.456 283.5,118.5C 285.283,116.977 285.949,114.977 285.5,112.5C 286.5,112.5 287.5,112.5 288.5,112.5C 288.351,111.448 288.517,110.448 289,109.5C 290.487,108.845 291.653,107.845 292.5,106.5C 299.468,105.503 306.468,105.17 313.5,105.5C 313.5,106.5 313.5,107.5 313.5,108.5C 314.552,108.351 315.552,108.517 316.5,109C 318.253,110.999 319.587,113.165 320.5,115.5C 326.293,117.942 331.293,121.609 335.5,126.5C 336.689,127.429 338.022,127.762 339.5,127.5C 339.5,126.5 339.5,125.5 339.5,124.5C 340.5,124.5 341.5,124.5 342.5,124.5C 342.5,123.5 342.5,122.5 342.5,121.5C 343.5,121.5 344.5,121.5 345.5,121.5C 347.833,117.5 350.167,113.5 352.5,109.5C 353.5,109.5 354.5,109.5 355.5,109.5C 356.199,107.005 357.199,104.672 358.5,102.5C 359.5,102.5 360.5,102.5 361.5,102.5C 361.5,101.5 361.5,100.5 361.5,99.5C 362.5,99.5 363.5,99.5 364.5,99.5C 364.5,98.5 364.5,97.5 364.5,96.5C 365.5,96.5 366.5,96.5 367.5,96.5C 367.5,95.5 367.5,94.5 367.5,93.5C 368.5,93.5 369.5,93.5 370.5,93.5C 370.351,92.448 370.517,91.448 371,90.5C 372.999,88.7468 375.165,87.4135 377.5,86.5C 377.5,85.5 377.5,84.5 377.5,83.5C 378.5,83.5 379.5,83.5 380.5,83.5C 380.334,78.4889 380.501,73.4889 381,68.5C 381.414,68.0426 381.914,67.7093 382.5,67.5C 382.892,61.1525 384.392,55.1525 387,49.5C 388.518,48.8366 389.685,47.8366 390.5,46.5 Z M 402.5,67.5 C 403.5,67.5 404.5,67.5 405.5,67.5C 405.5,68.5 405.5,69.5 405.5,70.5C 406.5,70.5 407.5,70.5 408.5,70.5C 409.139,72.7604 410.306,74.7604 412,76.5C 413.011,77.3366 414.178,77.67 415.5,77.5C 415.5,78.5 415.5,79.5 415.5,80.5C 416.5,80.5 417.5,80.5 418.5,80.5C 418.5,81.5 418.5,82.5 418.5,83.5C 419.5,83.5 420.5,83.5 421.5,83.5C 421.5,84.5 421.5,85.5 421.5,86.5C 420.5,86.5 419.5,86.5 418.5,86.5C 418.5,87.5 418.5,88.5 418.5,89.5C 417.167,89.5 415.833,89.5 414.5,89.5C 414.5,88.5 414.5,87.5 414.5,86.5C 413.5,86.5 412.5,86.5 411.5,86.5C 411.5,85.5 411.5,84.5 411.5,83.5C 410.5,83.5 409.5,83.5 408.5,83.5C 408.5,82.5 408.5,81.5 408.5,80.5C 407.5,80.5 406.5,80.5 405.5,80.5C 405.5,79.5 405.5,78.5 405.5,77.5C 404.5,77.5 403.5,77.5 402.5,77.5C 402.5,76.5 402.5,75.5 402.5,74.5C 401.448,74.6495 400.448,74.4828 399.5,74C 401.451,72.2658 402.451,70.0991 402.5,67.5 Z M 313.5,134.5 C 311.645,134.728 310.812,134.061 311,132.5C 311.995,133.066 312.828,133.733 313.5,134.5 Z M 313.5,134.5 C 314.267,135.172 314.934,136.005 315.5,137C 313.939,137.188 313.272,136.355 313.5,134.5 Z M 323.5,143.5 C 324.267,144.172 324.934,145.005 325.5,146C 323.939,146.188 323.272,145.355 323.5,143.5 Z M 329.5,149.5 C 328.5,149.5 327.5,149.5 326.5,149.5C 327.246,145.69 328.246,145.69 329.5,149.5 Z M 329.5,149.5 C 330.5,149.5 331.5,149.5 332.5,149.5C 332.5,150.5 332.5,151.5 332.5,152.5C 333.833,152.5 335.167,152.5 336.5,152.5C 336.5,153.833 336.5,155.167 336.5,156.5C 335.167,156.5 333.833,156.5 332.5,156.5C 332.5,155.5 332.5,154.5 332.5,153.5C 331.5,153.5 330.5,153.5 329.5,153.5C 329.5,152.167 329.5,150.833 329.5,149.5 Z M 298.5,152.5 C 300.5,152.5 302.5,152.5 304.5,152.5C 304.5,153.833 304.5,155.167 304.5,156.5C 305.5,156.5 306.5,156.5 307.5,156.5C 307.5,157.5 307.5,158.5 307.5,159.5C 308.5,159.5 309.5,159.5 310.5,159.5C 310.5,160.5 310.5,161.5 310.5,162.5C 312.672,163.801 315.005,164.801 317.5,165.5C 317.5,166.5 317.5,167.5 317.5,168.5C 318.5,168.5 319.5,168.5 320.5,168.5C 320.5,169.5 320.5,170.5 320.5,171.5C 321.5,171.5 322.5,171.5 323.5,171.5C 324.199,173.995 325.199,176.328 326.5,178.5C 327.5,178.5 328.5,178.5 329.5,178.5C 329.5,179.5 329.5,180.5 329.5,181.5C 331.672,182.801 334.005,183.801 336.5,184.5C 336.5,185.5 336.5,186.5 336.5,187.5C 337.5,187.5 338.5,187.5 339.5,187.5C 339.5,188.5 339.5,189.5 339.5,190.5C 340.5,190.5 341.5,190.5 342.5,190.5C 342.33,191.822 342.663,192.989 343.5,194C 341.077,195.571 339.744,197.737 339.5,200.5C 338.5,200.5 337.5,200.5 336.5,200.5C 336.5,201.5 336.5,202.5 336.5,203.5C 335.167,203.5 333.833,203.5 332.5,203.5C 332.5,204.5 332.5,205.5 332.5,206.5C 331.5,206.5 330.5,206.5 329.5,206.5C 329.5,207.5 329.5,208.5 329.5,209.5C 328.5,209.5 327.5,209.5 326.5,209.5C 325.801,211.995 324.801,214.328 323.5,216.5C 322.5,216.5 321.5,216.5 320.5,216.5C 320.5,217.5 320.5,218.5 320.5,219.5C 319.5,219.5 318.5,219.5 317.5,219.5C 317.5,220.5 317.5,221.5 317.5,222.5C 316.5,222.5 315.5,222.5 314.5,222.5C 314.5,223.5 314.5,224.5 314.5,225.5C 313.448,225.351 312.448,225.517 311.5,226C 308.531,228.804 306.197,231.97 304.5,235.5C 303.5,235.5 302.5,235.5 301.5,235.5C 301.5,236.5 301.5,237.5 301.5,238.5C 300.5,238.5 299.5,238.5 298.5,238.5C 298.5,239.5 298.5,240.5 298.5,241.5C 297.5,241.5 296.5,241.5 295.5,241.5C 290.842,247.513 286.508,253.846 282.5,260.5C 281.5,260.5 280.5,260.5 279.5,260.5C 279.5,261.5 279.5,262.5 279.5,263.5C 278.5,263.5 277.5,263.5 276.5,263.5C 276.5,264.5 276.5,265.5 276.5,266.5C 275.448,266.351 274.448,266.517 273.5,267C 271.333,269.167 269.167,271.333 267,273.5C 266.517,274.448 266.351,275.448 266.5,276.5C 265.5,276.5 264.5,276.5 263.5,276.5C 263.5,277.5 263.5,278.5 263.5,279.5C 262.5,279.5 261.5,279.5 260.5,279.5C 260.5,280.5 260.5,281.5 260.5,282.5C 259.5,282.5 258.5,282.5 257.5,282.5C 257.5,283.5 257.5,284.5 257.5,285.5C 256.5,285.5 255.5,285.5 254.5,285.5C 254.5,286.5 254.5,287.5 254.5,288.5C 253.448,288.351 252.448,288.517 251.5,289C 249.747,290.999 248.413,293.165 247.5,295.5C 246.5,295.5 245.5,295.5 244.5,295.5C 244.5,296.5 244.5,297.5 244.5,298.5C 243.5,298.5 242.5,298.5 241.5,298.5C 241.5,299.5 241.5,300.5 241.5,301.5C 240.5,301.5 239.5,301.5 238.5,301.5C 233.809,307.536 229.475,313.869 225.5,320.5C 224.5,320.5 223.5,320.5 222.5,320.5C 222.5,321.5 222.5,322.5 222.5,323.5C 221.5,323.5 220.5,323.5 219.5,323.5C 219.5,324.5 219.5,325.5 219.5,326.5C 218.5,326.5 217.5,326.5 216.5,326.5C 216.5,327.5 216.5,328.5 216.5,329.5C 214.24,330.139 212.24,331.306 210.5,333C 209.663,334.011 209.33,335.178 209.5,336.5C 208.5,336.5 207.5,336.5 206.5,336.5C 206.5,337.5 206.5,338.5 206.5,339.5C 205.5,339.5 204.5,339.5 203.5,339.5C 203.5,340.5 203.5,341.5 203.5,342.5C 202.5,342.5 201.5,342.5 200.5,342.5C 200.5,343.5 200.5,344.5 200.5,345.5C 199.5,345.5 198.5,345.5 197.5,345.5C 197.5,346.5 197.5,347.5 197.5,348.5C 196.5,348.5 195.5,348.5 194.5,348.5C 194.5,349.5 194.5,350.5 194.5,351.5C 192.167,352.833 189.833,354.167 187.5,355.5C 187.5,356.5 187.5,357.5 187.5,358.5C 186.5,358.5 185.5,358.5 184.5,358.5C 184.5,359.5 184.5,360.5 184.5,361.5C 183.5,361.5 182.5,361.5 181.5,361.5C 181.5,362.5 181.5,363.5 181.5,364.5C 177.612,366.023 173.445,367.023 169,367.5C 164.555,367.023 160.388,366.023 156.5,364.5C 156.5,363.5 156.5,362.5 156.5,361.5C 155.167,361.5 153.833,361.5 152.5,361.5C 152.5,360.5 152.5,359.5 152.5,358.5C 151.5,358.5 150.5,358.5 149.5,358.5C 149.5,357.5 149.5,356.5 149.5,355.5C 148.5,355.5 147.5,355.5 146.5,355.5C 144.5,352.167 142.5,348.833 140.5,345.5C 139.5,345.5 138.5,345.5 137.5,345.5C 137.662,343.473 137.495,341.473 137,339.5C 133.667,336.167 133.667,332.833 137,329.5C 137.495,327.527 137.662,325.527 137.5,323.5C 138.5,323.5 139.5,323.5 140.5,323.5C 141.199,321.005 142.199,318.672 143.5,316.5C 144.5,316.5 145.5,316.5 146.5,316.5C 148.201,312.964 150.367,309.631 153,306.5C 153.956,305.106 155.289,304.439 157,304.5C 162.389,308.314 167.556,312.481 172.5,317C 177.167,317.667 181.833,317.667 186.5,317C 187.471,311.928 187.805,306.762 187.5,301.5C 186.5,301.5 185.5,301.5 184.5,301.5C 184.5,300.5 184.5,299.5 184.5,298.5C 183.5,298.5 182.5,298.5 181.5,298.5C 181.5,297.5 181.5,296.5 181.5,295.5C 180.448,295.649 179.448,295.483 178.5,295C 176.544,292.528 174.211,290.695 171.5,289.5C 171.5,288.167 171.5,286.833 171.5,285.5C 173.995,284.801 176.328,283.801 178.5,282.5C 178.5,281.5 178.5,280.5 178.5,279.5C 179.5,279.5 180.5,279.5 181.5,279.5C 182.801,277.328 183.801,274.995 184.5,272.5C 185.833,272.5 187.167,272.5 188.5,272.5C 188.5,273.5 188.5,274.5 188.5,275.5C 192.5,277.833 196.5,280.167 200.5,282.5C 200.5,283.5 200.5,284.5 200.5,285.5C 201.5,285.5 202.5,285.5 203.5,285.5C 203.5,286.5 203.5,287.5 203.5,288.5C 206.5,288.5 209.5,288.5 212.5,288.5C 212.5,287.5 212.5,286.5 212.5,285.5C 213.833,285.5 215.167,285.5 216.5,285.5C 216.666,280.821 216.499,276.155 216,271.5C 215.29,270.027 214.124,269.36 212.5,269.5C 212.5,268.5 212.5,267.5 212.5,266.5C 211.5,266.5 210.5,266.5 209.5,266.5C 209.5,265.5 209.5,264.5 209.5,263.5C 208.5,263.5 207.5,263.5 206.5,263.5C 206.5,262.5 206.5,261.5 206.5,260.5C 204.24,259.861 202.24,258.694 200.5,257C 202.434,255.647 204.267,254.147 206,252.5C 207.51,249.486 209.51,246.819 212,244.5C 212.483,243.552 212.649,242.552 212.5,241.5C 214.527,241.338 216.527,241.505 218.5,242C 219.308,243.706 220.641,244.539 222.5,244.5C 222.5,245.5 222.5,246.5 222.5,247.5C 223.5,247.5 224.5,247.5 225.5,247.5C 225.5,248.5 225.5,249.5 225.5,250.5C 226.5,250.5 227.5,250.5 228.5,250.5C 228.5,251.5 228.5,252.5 228.5,253.5C 230.59,253.45 231.923,254.45 232.5,256.5C 236.18,257.764 239.847,257.764 243.5,256.5C 244.386,255.675 244.719,254.675 244.5,253.5C 245.5,253.5 246.5,253.5 247.5,253.5C 247.5,249.5 247.5,245.5 247.5,241.5C 246.5,241.5 245.5,241.5 244.5,241.5C 244.5,240.5 244.5,239.5 244.5,238.5C 243.5,238.5 242.5,238.5 241.5,238.5C 241.5,237.5 241.5,236.5 241.5,235.5C 240.5,235.5 239.5,235.5 238.5,235.5C 237.167,233.167 235.833,230.833 234.5,228.5C 233.5,228.5 232.5,228.5 231.5,228.5C 231.5,226.5 231.5,224.5 231.5,222.5C 232.552,222.649 233.552,222.483 234.5,222C 236.667,219.833 238.833,217.667 241,215.5C 241.483,214.552 241.649,213.552 241.5,212.5C 242.5,212.5 243.5,212.5 244.5,212.5C 244.5,211.5 244.5,210.5 244.5,209.5C 245.5,209.5 246.5,209.5 247.5,209.5C 247.5,210.5 247.5,211.5 247.5,212.5C 248.5,212.5 249.5,212.5 250.5,212.5C 250.167,215.5 251.5,216.833 254.5,216.5C 254.5,217.5 254.5,218.5 254.5,219.5C 255.5,219.5 256.5,219.5 257.5,219.5C 257.5,220.5 257.5,221.5 257.5,222.5C 258.5,222.5 259.5,222.5 260.5,222.5C 260.5,223.5 260.5,224.5 260.5,225.5C 264.5,225.5 268.5,225.5 272.5,225.5C 272.5,224.5 272.5,223.5 272.5,222.5C 273.822,222.67 274.989,222.337 276,221.5C 276.667,217.833 276.667,214.167 276,210.5C 274.989,209.663 273.822,209.33 272.5,209.5C 272.5,208.5 272.5,207.5 272.5,206.5C 271.5,206.5 270.5,206.5 269.5,206.5C 269.5,205.5 269.5,204.5 269.5,203.5C 268.5,203.5 267.5,203.5 266.5,203.5C 266.5,202.5 266.5,201.5 266.5,200.5C 265.5,200.5 264.5,200.5 263.5,200.5C 263.5,199.5 263.5,198.5 263.5,197.5C 262.5,197.5 261.5,197.5 260.5,197.5C 260.238,196.022 260.571,194.689 261.5,193.5C 264.704,189.728 267.371,185.728 269.5,181.5C 270.5,181.5 271.5,181.5 272.5,181.5C 272.5,180.5 272.5,179.5 272.5,178.5C 273.833,178.5 275.167,178.5 276.5,178.5C 276.5,179.5 276.5,180.5 276.5,181.5C 277.5,181.5 278.5,181.5 279.5,181.5C 279.5,182.5 279.5,183.5 279.5,184.5C 280.5,184.5 281.5,184.5 282.5,184.5C 282.5,185.5 282.5,186.5 282.5,187.5C 283.5,187.5 284.5,187.5 285.5,187.5C 285.5,188.5 285.5,189.5 285.5,190.5C 286.5,190.5 287.5,190.5 288.5,190.5C 288.5,191.5 288.5,192.5 288.5,193.5C 293.825,194.761 299.158,194.761 304.5,193.5C 304.5,188.5 304.5,183.5 304.5,178.5C 303.5,178.5 302.5,178.5 301.5,178.5C 301.5,177.5 301.5,176.5 301.5,175.5C 300.5,175.5 299.5,175.5 298.5,175.5C 298.833,172.5 297.5,171.167 294.5,171.5C 294.5,170.5 294.5,169.5 294.5,168.5C 293.5,168.5 292.5,168.5 291.5,168.5C 291.5,167.5 291.5,166.5 291.5,165.5C 290.5,165.5 289.5,165.5 288.5,165.5C 288.5,164.5 288.5,163.5 288.5,162.5C 289.5,162.5 290.5,162.5 291.5,162.5C 291.5,161.5 291.5,160.5 291.5,159.5C 292.5,159.5 293.5,159.5 294.5,159.5C 294.5,158.5 294.5,157.5 294.5,156.5C 297.5,156.833 298.833,155.5 298.5,152.5 Z M 336.5,156.5 C 337.5,156.5 338.5,156.5 339.5,156.5C 339.5,157.5 339.5,158.5 339.5,159.5C 339.5,158.5 339.5,157.5 339.5,156.5C 338.5,156.5 337.5,156.5 336.5,156.5 Z M 339.5,159.5 C 340.5,159.5 341.5,159.5 342.5,159.5C 342.5,160.5 342.5,161.5 342.5,162.5C 342.5,161.5 342.5,160.5 342.5,159.5C 341.5,159.5 340.5,159.5 339.5,159.5 Z M 342.5,162.5 C 343.5,162.5 344.5,162.5 345.5,162.5C 345.5,163.5 345.5,164.5 345.5,165.5C 345.5,164.5 345.5,163.5 345.5,162.5C 344.5,162.5 343.5,162.5 342.5,162.5 Z M 345.5,165.5 C 346.5,165.5 347.5,165.5 348.5,165.5C 348.5,166.5 348.5,167.5 348.5,168.5C 347.167,167.833 346.167,166.833 345.5,165.5 Z M 348.5,168.5 C 350.355,168.272 351.188,168.939 351,170.5C 350.005,169.934 349.172,169.267 348.5,168.5 Z M 351.5,172.5 C 352.568,171.566 353.901,171.232 355.5,171.5C 355.33,172.822 355.663,173.989 356.5,175C 354.939,175.188 354.272,174.355 354.5,172.5C 353.5,172.5 352.5,172.5 351.5,172.5 Z M 133.5,369.5 C 134.289,369.783 134.956,370.283 135.5,371C 134.663,372.011 134.33,373.178 134.5,374.5C 133.5,374.5 132.5,374.5 131.5,374.5C 131.5,375.5 131.5,376.5 131.5,377.5C 129.876,377.36 128.71,378.027 128,379.5C 127.228,378.151 126.061,377.318 124.5,377C 125.448,376.517 126.448,376.351 127.5,376.5C 127.5,375.5 127.5,374.5 127.5,373.5C 128.5,373.5 129.5,373.5 130.5,373.5C 130.5,372.5 130.5,371.5 130.5,370.5C 131.791,370.737 132.791,370.404 133.5,369.5 Z"/></g>
</svg>
