<?xml version="1.0" encoding="UTF-8"?>
<!DOCTYPE svg PUBLIC "-//W3C//DTD SVG 1.1//EN" "http://www.w3.org/Graphics/SVG/1.1/DTD/svg11.dtd">
<svg xmlns="http://www.w3.org/2000/svg" version="1.1" width="1080px" height="1080px" style="shape-rendering:geometricPrecision; text-rendering:geometricPrecision; image-rendering:optimizeQuality; fill-rule:evenodd; clip-rule:evenodd" xmlns:xlink="http://www.w3.org/1999/xlink">
<g><path style="opacity:0.886" fill="#fefffe" d="M 637.5,289.5 C 721.522,289.178 805.522,289.511 889.5,290.5C 889.5,292.167 889.5,293.833 889.5,295.5C 891.5,295.5 893.5,295.5 895.5,295.5C 895.5,297.5 895.5,299.5 895.5,301.5C 896.5,301.5 897.5,301.5 898.5,301.5C 898.5,389.167 898.5,476.833 898.5,564.5C 897.5,564.5 896.5,564.5 895.5,564.5C 895.5,566.5 895.5,568.5 895.5,570.5C 893.5,570.5 891.5,570.5 889.5,570.5C 889.5,572.167 889.5,573.833 889.5,575.5C 865.5,575.5 841.5,575.5 817.5,575.5C 817.5,573.833 817.5,572.167 817.5,570.5C 813.987,570.693 810.654,570.026 807.5,568.5C 805.973,565.34 805.307,562.007 805.5,558.5C 803.61,558.703 802.11,558.037 801,556.5C 800.667,527.167 800.333,497.833 800,468.5C 797.201,469.773 795.367,471.773 794.5,474.5C 793.325,474.281 792.325,474.614 791.5,475.5C 788.496,478.718 785.662,482.051 783,485.5C 780.201,486.773 778.367,488.773 777.5,491.5C 774.832,492.099 772.998,493.766 772,496.5C 769.201,497.773 767.367,499.773 766.5,502.5C 765.325,502.281 764.325,502.614 763.5,503.5C 761.703,504.695 760.703,506.362 760.5,508.5C 757.594,508.903 755.761,510.569 755,513.5C 752.201,514.773 750.367,516.773 749.5,519.5C 746.832,520.099 744.998,521.766 744,524.5C 740.905,525.425 739.072,527.425 738.5,530.5C 737.325,530.281 736.325,530.614 735.5,531.5C 733.703,532.695 732.703,534.362 732.5,536.5C 729.832,537.099 727.998,538.766 727,541.5C 724.201,542.773 722.367,544.773 721.5,547.5C 718.832,548.099 716.998,549.766 716,552.5C 712.294,555.331 708.794,558.331 705.5,561.5C 704.614,562.325 704.281,563.325 704.5,564.5C 701.832,565.099 699.998,566.766 699,569.5C 696.201,570.773 694.367,572.773 693.5,575.5C 690.832,576.099 688.998,577.766 688,580.5C 684.294,583.331 680.794,586.331 677.5,589.5C 676.614,590.325 676.281,591.325 676.5,592.5C 673.832,593.099 671.998,594.766 671,597.5C 668.201,598.773 666.367,600.773 665.5,603.5C 664.325,603.281 663.325,603.614 662.5,604.5C 659.496,607.718 656.662,611.051 654,614.5C 651.201,615.773 649.367,617.773 648.5,620.5C 645.832,621.099 643.998,622.766 643,625.5C 640.201,626.773 638.367,628.773 637.5,631.5C 636.325,631.281 635.325,631.614 634.5,632.5C 632.703,633.695 631.703,635.362 631.5,637.5C 628.832,638.099 626.998,639.766 626,642.5C 623.201,643.773 621.367,645.773 620.5,648.5C 617.832,649.099 615.998,650.766 615,653.5C 611.318,656.265 607.818,659.265 604.5,662.5C 603.614,663.325 603.281,664.325 603.5,665.5C 600.832,666.099 598.998,667.766 598,670.5C 595.201,671.773 593.367,673.773 592.5,676.5C 591.325,676.281 590.325,676.614 589.5,677.5C 586.603,680.834 583.603,684.168 580.5,687.5C 578.929,688.309 577.262,688.643 575.5,688.5C 575.5,690.167 575.5,691.833 575.5,693.5C 571.833,693.5 568.167,693.5 564.5,693.5C 564.739,695.467 564.406,697.301 563.5,699C 552.167,699.667 540.833,699.667 529.5,699C 526.124,698.693 524.79,696.86 525.5,693.5C 522.15,693.665 518.817,693.498 515.5,693C 514.594,691.301 514.261,689.467 514.5,687.5C 512.5,687.5 510.5,687.5 508.5,687.5C 508.5,685.833 508.5,684.167 508.5,682.5C 506.833,682.5 505.167,682.5 503.5,682.5C 504.5,677.5 502.5,675.5 497.5,676.5C 497.5,674.833 497.5,673.167 497.5,671.5C 492.5,672.5 490.5,670.5 491.5,665.5C 489.833,665.5 488.167,665.5 486.5,665.5C 486.5,663.5 486.5,661.5 486.5,659.5C 484.5,659.5 482.5,659.5 480.5,659.5C 480.5,657.833 480.5,656.167 480.5,654.5C 478.833,654.5 477.167,654.5 475.5,654.5C 475.167,652.5 474.833,650.5 474.5,648.5C 472.833,648.5 471.167,648.5 469.5,648.5C 469.5,646.833 469.5,645.167 469.5,643.5C 464.832,644.161 462.832,642.161 463.5,637.5C 461.833,637.5 460.167,637.5 458.5,637.5C 458.5,635.5 458.5,633.5 458.5,631.5C 456.5,631.5 454.5,631.5 452.5,631.5C 452.5,629.833 452.5,628.167 452.5,626.5C 447.839,627.168 445.839,625.168 446.5,620.5C 444.833,620.5 443.167,620.5 441.5,620.5C 441.5,618.833 441.5,617.167 441.5,615.5C 436.832,616.161 434.832,614.161 435.5,609.5C 433.833,609.5 432.167,609.5 430.5,609.5C 430.167,601.5 429.833,601.5 429.5,609.5C 427.833,609.5 426.167,609.5 424.5,609.5C 425.168,614.161 423.168,616.161 418.5,615.5C 418.5,617.167 418.5,618.833 418.5,620.5C 416.833,620.5 415.167,620.5 413.5,620.5C 414.5,625.5 412.5,627.5 407.5,626.5C 407.5,628.167 407.5,629.833 407.5,631.5C 405.5,631.5 403.5,631.5 401.5,631.5C 401.5,633.5 401.5,635.5 401.5,637.5C 399.833,637.5 398.167,637.5 396.5,637.5C 397.5,642.5 395.5,644.5 390.5,643.5C 390.5,645.167 390.5,646.833 390.5,648.5C 388.833,648.5 387.167,648.5 385.5,648.5C 386.5,653.5 384.5,655.5 379.5,654.5C 379.5,656.167 379.5,657.833 379.5,659.5C 377.5,659.5 375.5,659.5 373.5,659.5C 373.5,661.5 373.5,663.5 373.5,665.5C 371.833,665.5 370.167,665.5 368.5,665.5C 369.5,670.5 367.5,672.5 362.5,671.5C 362.5,673.167 362.5,674.833 362.5,676.5C 360.833,676.5 359.167,676.5 357.5,676.5C 358.161,681.168 356.161,683.168 351.5,682.5C 351.5,684.167 351.5,685.833 351.5,687.5C 346.832,686.839 344.832,688.839 345.5,693.5C 343.833,693.5 342.167,693.5 340.5,693.5C 341.5,698.5 339.5,700.5 334.5,699.5C 334.5,701.167 334.5,702.833 334.5,704.5C 329.839,703.832 327.839,705.832 328.5,710.5C 326.833,710.5 325.167,710.5 323.5,710.5C 324.168,715.161 322.168,717.161 317.5,716.5C 317.5,718.167 317.5,719.833 317.5,721.5C 315.833,721.5 314.167,721.5 312.5,721.5C 313.5,726.5 311.5,728.5 306.5,727.5C 306.5,729.167 306.5,730.833 306.5,732.5C 304.5,732.5 302.5,732.5 300.5,732.5C 300.5,734.5 300.5,736.5 300.5,738.5C 298.833,738.5 297.167,738.5 295.5,738.5C 296.168,743.161 294.168,745.161 289.5,744.5C 289.5,746.167 289.5,747.833 289.5,749.5C 287.833,749.5 286.167,749.5 284.5,749.5C 285.5,754.5 283.5,756.5 278.5,755.5C 278.5,757.167 278.5,758.833 278.5,760.5C 276.5,760.5 274.5,760.5 272.5,760.5C 272.5,762.5 272.5,764.5 272.5,766.5C 270.833,766.5 269.167,766.5 267.5,766.5C 268.5,771.5 266.5,773.5 261.5,772.5C 261.5,774.167 261.5,775.833 261.5,777.5C 259.833,777.5 258.167,777.5 256.5,777.5C 256.828,782.418 254.495,784.418 249.5,783.5C 249.773,785.451 249.107,786.951 247.5,788C 239.5,788.667 231.5,788.667 223.5,788C 222.62,786.644 222.286,785.144 222.5,783.5C 218.987,783.693 215.654,783.026 212.5,781.5C 211.754,780.264 211.421,778.93 211.5,777.5C 207.956,777.761 206.122,776.095 206,772.5C 202.466,771.983 200.299,769.983 199.5,766.5C 198.264,765.754 196.93,765.421 195.5,765.5C 195.649,762.035 193.982,760.035 190.5,759.5C 190.167,755.833 188.167,753.833 184.5,753.5C 183.754,752.264 183.421,750.93 183.5,749.5C 182.5,749.5 181.5,749.5 180.5,749.5C 180.5,736.5 180.5,723.5 180.5,710.5C 181.5,710.5 182.5,710.5 183.5,710.5C 183.5,708.5 183.5,706.5 183.5,704.5C 186.833,704.5 188.5,702.833 188.5,699.5C 192.167,699.167 194.167,697.167 194.5,693.5C 195.552,693.649 196.552,693.483 197.5,693C 199.667,690.167 202.167,687.667 205,685.5C 205.483,684.552 205.649,683.552 205.5,682.5C 209.167,682.167 211.167,680.167 211.5,676.5C 214.833,676.5 216.5,674.833 216.5,671.5C 220.167,671.167 222.167,669.167 222.5,665.5C 223.552,665.649 224.552,665.483 225.5,665C 227.667,662.167 230.167,659.667 233,657.5C 233.483,656.552 233.649,655.552 233.5,654.5C 237.167,654.167 239.167,652.167 239.5,648.5C 240.552,648.649 241.552,648.483 242.5,648C 244.43,644.947 246.93,642.447 250,640.5C 250.483,639.552 250.649,638.552 250.5,637.5C 251.552,637.649 252.552,637.483 253.5,637C 255.447,633.93 257.947,631.43 261,629.5C 261.483,628.552 261.649,627.552 261.5,626.5C 265.167,626.167 267.167,624.167 267.5,620.5C 268.552,620.649 269.552,620.483 270.5,620C 272.43,616.947 274.93,614.447 278,612.5C 278.483,611.552 278.649,610.552 278.5,609.5C 279.552,609.649 280.552,609.483 281.5,609C 283.447,605.93 285.947,603.43 289,601.5C 289.483,600.552 289.649,599.552 289.5,598.5C 293.167,598.167 295.167,596.167 295.5,592.5C 296.552,592.649 297.552,592.483 298.5,592C 300.667,589.167 303.167,586.667 306,584.5C 306.483,583.552 306.649,582.552 306.5,581.5C 310.167,581.167 312.167,579.167 312.5,575.5C 315.833,575.5 317.5,573.833 317.5,570.5C 321.167,570.167 323.167,568.167 323.5,564.5C 324.552,564.649 325.552,564.483 326.5,564C 328.667,561.167 331.167,558.667 334,556.5C 334.483,555.552 334.649,554.552 334.5,553.5C 338.167,553.167 340.167,551.167 340.5,547.5C 343.833,547.5 345.5,545.833 345.5,542.5C 349.167,542.167 351.167,540.167 351.5,536.5C 352.552,536.649 353.552,536.483 354.5,536C 356.667,533.167 359.167,530.667 362,528.5C 362.483,527.552 362.649,526.552 362.5,525.5C 366.167,525.167 368.167,523.167 368.5,519.5C 369.552,519.649 370.552,519.483 371.5,519C 373.43,515.947 375.93,513.447 379,511.5C 379.483,510.552 379.649,509.552 379.5,508.5C 380.552,508.649 381.552,508.483 382.5,508C 384.447,504.93 386.947,502.43 390,500.5C 390.483,499.552 390.649,498.552 390.5,497.5C 392.5,497.5 394.5,497.5 396.5,497.5C 396.5,495.5 396.5,493.5 396.5,491.5C 398.5,491.5 400.5,491.5 402.5,491.5C 402.5,489.833 402.5,488.167 402.5,486.5C 406.167,486.5 409.833,486.5 413.5,486.5C 413.291,484.286 414.124,482.619 416,481.5C 425.131,480.374 434.298,480.207 443.5,481C 446.035,481.928 447.035,483.762 446.5,486.5C 450.167,486.5 453.833,486.5 457.5,486.5C 457.199,490.619 459.199,492.619 463.5,492.5C 467.209,496.009 470.875,499.509 474.5,503C 477.612,503.625 479.445,505.458 480,508.5C 482.933,508.933 484.767,510.599 485.5,513.5C 488.44,514.54 490.274,516.54 491,519.5C 494.333,520.167 496.333,522.167 497,525.5C 499.933,525.933 501.767,527.599 502.5,530.5C 505.44,531.54 507.274,533.54 508,536.5C 511.333,537.167 513.333,539.167 514,542.5C 524.167,551.333 533.667,560.833 542.5,571C 545.333,571.167 546.833,572.667 547,575.5C 547.003,571.118 549.169,569.451 553.5,570.5C 552.5,565.5 554.5,563.5 559.5,564.5C 559.5,562.833 559.5,561.167 559.5,559.5C 561.167,559.5 562.833,559.5 564.5,559.5C 563.5,554.5 565.5,552.5 570.5,553.5C 569.425,549.062 571.092,547.062 575.5,547.5C 575.062,543.092 577.062,541.425 581.5,542.5C 580.5,537.5 582.5,535.5 587.5,536.5C 587.5,534.833 587.5,533.167 587.5,531.5C 589.167,531.5 590.833,531.5 592.5,531.5C 591.5,526.5 593.5,524.5 598.5,525.5C 597.425,521.062 599.092,519.062 603.5,519.5C 603.488,515.554 605.488,513.887 609.5,514.5C 608.5,509.5 610.5,507.5 615.5,508.5C 615.5,506.833 615.5,505.167 615.5,503.5C 619.102,503.494 621.102,501.66 621.5,498C 623.134,497.506 624.801,497.34 626.5,497.5C 625.5,492.5 627.5,490.5 632.5,491.5C 632.5,489.833 632.5,488.167 632.5,486.5C 634.167,486.5 635.833,486.5 637.5,486.5C 637.5,484.5 637.5,482.5 637.5,480.5C 639.5,480.5 641.5,480.5 643.5,480.5C 642.887,476.488 644.554,474.488 648.5,474.5C 648.062,470.092 650.062,468.425 654.5,469.5C 653.5,464.5 655.5,462.5 660.5,463.5C 660.5,461.833 660.5,460.167 660.5,458.5C 662.167,458.5 663.833,458.5 665.5,458.5C 664.5,453.5 666.5,451.5 671.5,452.5C 670.425,448.062 672.092,446.062 676.5,446.5C 676.062,442.092 678.062,440.425 682.5,441.5C 681.5,436.5 683.5,434.5 688.5,435.5C 688.5,433.833 688.5,432.167 688.5,430.5C 690.167,430.5 691.833,430.5 693.5,430.5C 692.5,425.5 694.5,423.5 699.5,424.5C 698.425,420.062 700.092,418.062 704.5,418.5C 704.488,414.554 706.488,412.887 710.5,413.5C 709.5,408.5 711.5,406.5 716.5,407.5C 716.5,405.833 716.5,404.167 716.5,402.5C 718.167,402.5 719.833,402.5 721.5,402.5C 720.5,397.5 722.5,395.5 727.5,396.5C 727.261,394.533 727.594,392.699 728.5,391C 696.502,390.5 664.502,390.333 632.5,390.5C 632.898,386.241 630.898,384.408 626.5,385C 624,383.833 622.167,382 621,379.5C 620.333,353.833 620.333,328.167 621,302.5C 622.699,301.594 624.533,301.261 626.5,301.5C 626.5,299.5 626.5,297.5 626.5,295.5C 628.5,295.5 630.5,295.5 632.5,295.5C 632.058,291.616 633.725,289.616 637.5,289.5 Z"/></g>
</svg>
