<?xml version="1.0" encoding="UTF-8"?>
<!DOCTYPE svg PUBLIC "-//W3C//DTD SVG 1.1//EN" "http://www.w3.org/Graphics/SVG/1.1/DTD/svg11.dtd">
<svg xmlns="http://www.w3.org/2000/svg" version="1.1" width="500px" height="500px" style="shape-rendering:geometricPrecision; text-rendering:geometricPrecision; image-rendering:optimizeQuality; fill-rule:evenodd; clip-rule:evenodd" xmlns:xlink="http://www.w3.org/1999/xlink">
<g><path style="opacity:0.56" fill="#fefffe" d="M 132.5,43.5 C 135.85,43.335 139.183,43.5017 142.5,44C 143.423,46.0408 143.756,48.2075 143.5,50.5C 144.822,50.33 145.989,50.6634 147,51.5C 147.667,77.1667 147.667,102.833 147,128.5C 146.29,129.973 145.124,130.64 143.5,130.5C 143.5,133.833 143.5,137.167 143.5,140.5C 142.5,140.5 141.5,140.5 140.5,140.5C 140.662,142.527 140.495,144.527 140,146.5C 138.076,148.009 136.909,150.009 136.5,152.5C 135.675,153.386 134.675,153.719 133.5,153.5C 133.5,154.833 133.5,156.167 133.5,157.5C 132.5,157.5 131.5,157.5 130.5,157.5C 130.5,158.5 130.5,159.5 130.5,160.5C 129.5,160.5 128.5,160.5 127.5,160.5C 127.5,161.5 127.5,162.5 127.5,163.5C 126.167,163.5 124.833,163.5 123.5,163.5C 123.5,164.833 123.5,166.167 123.5,167.5C 122.5,167.5 121.5,167.5 120.5,167.5C 120.5,168.5 120.5,169.5 120.5,170.5C 119.5,170.5 118.5,170.5 117.5,170.5C 116.167,172.833 114.833,175.167 113.5,177.5C 112.5,177.5 111.5,177.5 110.5,177.5C 110.5,178.5 110.5,179.5 110.5,180.5C 109.167,180.5 107.833,180.5 106.5,180.5C 106.5,181.833 106.5,183.167 106.5,184.5C 105.5,184.5 104.5,184.5 103.5,184.5C 103.5,185.5 103.5,186.5 103.5,187.5C 102.5,187.5 101.5,187.5 100.5,187.5C 100.5,188.5 100.5,189.5 100.5,190.5C 99.1667,190.5 97.8333,190.5 96.5,190.5C 95.9569,194.015 94.9569,197.348 93.5,200.5C 92.5,200.5 91.5,200.5 90.5,200.5C 90.8333,203.5 89.5,204.833 86.5,204.5C 86.3863,208.211 85.3863,211.545 83.5,214.5C 82.5,214.5 81.5,214.5 80.5,214.5C 80.5,216.5 80.5,218.5 80.5,220.5C 79.1667,220.5 77.8333,220.5 76.5,220.5C 76.5,222.833 76.5,225.167 76.5,227.5C 75.5,227.5 74.5,227.5 73.5,227.5C 73.6646,230.518 73.498,233.518 73,236.5C 70.9426,239.028 69.9426,242.028 70,245.5C 69.2904,246.973 68.1238,247.64 66.5,247.5C 64.4634,266.928 62.4634,286.428 60.5,306C 62.5997,315.516 63.933,325.349 64.5,335.5C 65.086,335.709 65.586,336.043 66,336.5C 66.4988,340.486 66.6655,344.486 66.5,348.5C 67.8221,348.33 68.9887,348.663 70,349.5C 72.2414,353.806 73.5747,358.473 74,363.5C 78.1872,369.752 82.1872,376.085 86,382.5C 86.4955,384.473 86.6621,386.473 86.5,388.5C 87.8333,388.5 89.1667,388.5 90.5,388.5C 92.0558,391.274 93.8891,393.941 96,396.5C 96.4935,398.134 96.6602,399.801 96.5,401.5C 99.5,401.167 100.833,402.5 100.5,405.5C 101.5,405.5 102.5,405.5 103.5,405.5C 103.5,406.5 103.5,407.5 103.5,408.5C 104.5,408.5 105.5,408.5 106.5,408.5C 106.5,409.833 106.5,411.167 106.5,412.5C 107.833,412.5 109.167,412.5 110.5,412.5C 110.5,413.5 110.5,414.5 110.5,415.5C 111.5,415.5 112.5,415.5 113.5,415.5C 113.5,416.5 113.5,417.5 113.5,418.5C 116.5,418.167 117.833,419.5 117.5,422.5C 119.5,422.5 121.5,422.5 123.5,422.5C 123.5,423.5 123.5,424.5 123.5,425.5C 126.169,427.133 129.169,428.3 132.5,429C 133.337,430.011 133.67,431.178 133.5,432.5C 135.833,432.5 138.167,432.5 140.5,432.5C 140.5,433.5 140.5,434.5 140.5,435.5C 143.833,435.5 147.167,435.5 150.5,435.5C 150.5,436.5 150.5,437.5 150.5,438.5C 155.167,438.5 159.833,438.5 164.5,438.5C 164.5,437.5 164.5,436.5 164.5,435.5C 167.833,435.5 171.167,435.5 174.5,435.5C 174.5,434.5 174.5,433.5 174.5,432.5C 177.245,432.627 179.245,431.46 180.5,429C 181.793,428.51 183.127,428.343 184.5,428.5C 184.5,427.5 184.5,426.5 184.5,425.5C 185.5,425.5 186.5,425.5 187.5,425.5C 187.5,424.5 187.5,423.5 187.5,422.5C 188.5,422.5 189.5,422.5 190.5,422.5C 190.167,419.5 191.5,418.167 194.5,418.5C 194.5,417.5 194.5,416.5 194.5,415.5C 195.5,415.5 196.5,415.5 197.5,415.5C 197.5,414.5 197.5,413.5 197.5,412.5C 198.675,412.719 199.675,412.386 200.5,411.5C 202.759,407.58 206.092,405.58 210.5,405.5C 213.372,400.063 218.039,397.729 224.5,398.5C 224.5,397.5 224.5,396.5 224.5,395.5C 228.226,395.823 231.893,395.489 235.5,394.5C 236.381,393.029 237.714,392.196 239.5,392C 246.167,391.333 252.833,391.333 259.5,392C 260.833,392.667 261.833,393.667 262.5,395C 266.486,395.499 270.486,395.666 274.5,395.5C 274.5,396.5 274.5,397.5 274.5,398.5C 279.362,397.784 283.529,399.117 287,402.5C 287.483,403.448 287.649,404.448 287.5,405.5C 289.527,405.338 291.527,405.505 293.5,406C 294.308,407.706 295.641,408.539 297.5,408.5C 297.5,409.833 297.5,411.167 297.5,412.5C 298.833,412.5 300.167,412.5 301.5,412.5C 301.5,413.5 301.5,414.5 301.5,415.5C 302.5,415.5 303.5,415.5 304.5,415.5C 304.5,416.5 304.5,417.5 304.5,418.5C 307.5,418.167 308.833,419.5 308.5,422.5C 309.5,422.5 310.5,422.5 311.5,422.5C 311.5,423.5 311.5,424.5 311.5,425.5C 312.5,425.5 313.5,425.5 314.5,425.5C 314.5,426.5 314.5,427.5 314.5,428.5C 317.278,428.022 319.278,429.022 320.5,431.5C 321.689,432.429 323.022,432.762 324.5,432.5C 324.5,433.5 324.5,434.5 324.5,435.5C 327.833,435.5 331.167,435.5 334.5,435.5C 334.5,436.5 334.5,437.5 334.5,438.5C 339.167,438.5 343.833,438.5 348.5,438.5C 348.5,437.5 348.5,436.5 348.5,435.5C 351.833,435.5 355.167,435.5 358.5,435.5C 358.5,434.5 358.5,433.5 358.5,432.5C 360.833,432.5 363.167,432.5 365.5,432.5C 365.759,428.932 367.759,427.599 371.5,428.5C 371.5,427.5 371.5,426.5 371.5,425.5C 372.833,425.5 374.167,425.5 375.5,425.5C 375.5,424.5 375.5,423.5 375.5,422.5C 377.5,422.5 379.5,422.5 381.5,422.5C 381.167,419.5 382.5,418.167 385.5,418.5C 385.5,417.5 385.5,416.5 385.5,415.5C 386.5,415.5 387.5,415.5 388.5,415.5C 388.5,414.5 388.5,413.5 388.5,412.5C 389.5,412.5 390.5,412.5 391.5,412.5C 391.167,409.5 392.5,408.167 395.5,408.5C 395.5,407.5 395.5,406.5 395.5,405.5C 396.5,405.5 397.5,405.5 398.5,405.5C 398.351,404.448 398.517,403.448 399,402.5C 403.026,396.967 407.36,391.634 412,386.5C 413.598,383.329 414.932,379.996 416,376.5C 417.693,374.041 419.526,371.708 421.5,369.5C 421.999,366.783 423.165,364.449 425,362.5C 425.497,360.19 425.663,357.857 425.5,355.5C 426.5,355.5 427.5,355.5 428.5,355.5C 427.926,351.733 429.093,348.733 432,346.5C 432.499,342.848 432.665,339.182 432.5,335.5C 433.5,335.5 434.5,335.5 435.5,335.5C 435.5,329.833 435.5,324.167 435.5,318.5C 436.5,318.5 437.5,318.5 438.5,318.5C 438.831,310.14 438.498,301.807 437.5,293.5C 436.808,292.975 436.308,292.308 436,291.5C 435.86,276.513 434.693,261.846 432.5,247.5C 431.178,247.67 430.011,247.337 429,246.5C 429.092,242.707 428.092,239.373 426,236.5C 425.502,233.518 425.335,230.518 425.5,227.5C 424.5,227.5 423.5,227.5 422.5,227.5C 422.5,225.167 422.5,222.833 422.5,220.5C 421.167,220.5 419.833,220.5 418.5,220.5C 418.5,218.5 418.5,216.5 418.5,214.5C 417.5,214.5 416.5,214.5 415.5,214.5C 415.5,213.167 415.5,211.833 415.5,210.5C 414.5,210.5 413.5,210.5 412.5,210.5C 412.5,208.5 412.5,206.5 412.5,204.5C 409.5,204.833 408.167,203.5 408.5,200.5C 407.5,200.5 406.5,200.5 405.5,200.5C 404.18,197.174 402.847,193.84 401.5,190.5C 400.5,190.5 399.5,190.5 398.5,190.5C 398.5,189.5 398.5,188.5 398.5,187.5C 397.5,187.5 396.5,187.5 395.5,187.5C 395.5,186.5 395.5,185.5 395.5,184.5C 392.5,184.833 391.167,183.5 391.5,180.5C 390.5,180.5 389.5,180.5 388.5,180.5C 388.5,179.5 388.5,178.5 388.5,177.5C 387.5,177.5 386.5,177.5 385.5,177.5C 384.167,175.167 382.833,172.833 381.5,170.5C 380.5,170.5 379.5,170.5 378.5,170.5C 378.5,169.5 378.5,168.5 378.5,167.5C 377.5,167.5 376.5,167.5 375.5,167.5C 375.5,166.167 375.5,164.833 375.5,163.5C 374.167,163.5 372.833,163.5 371.5,163.5C 371.5,162.5 371.5,161.5 371.5,160.5C 370.5,160.5 369.5,160.5 368.5,160.5C 368.5,159.5 368.5,158.5 368.5,157.5C 367.5,157.5 366.5,157.5 365.5,157.5C 365.5,156.167 365.5,154.833 365.5,153.5C 364.178,153.67 363.011,153.337 362,152.5C 361.871,149.997 360.871,147.997 359,146.5C 358.505,144.527 358.338,142.527 358.5,140.5C 357.5,140.5 356.5,140.5 355.5,140.5C 355.5,137.167 355.5,133.833 355.5,130.5C 354.178,130.67 353.011,130.337 352,129.5C 351.333,103.5 351.333,77.5 352,51.5C 353.011,50.6634 354.178,50.33 355.5,50.5C 355.244,48.2075 355.577,46.0408 356.5,44C 359.833,43.3333 363.167,43.3333 366.5,44C 367,44.5 367.5,45 368,45.5C 368.333,71.5 368.667,97.5 369,123.5C 371.248,126.351 372.082,129.685 371.5,133.5C 372.822,133.33 373.989,133.663 375,134.5C 375.495,136.473 375.662,138.473 375.5,140.5C 376.5,140.5 377.5,140.5 378.5,140.5C 379.801,142.672 380.801,145.005 381.5,147.5C 383.76,148.139 385.76,149.306 387.5,151C 388.337,152.011 388.67,153.178 388.5,154.5C 389.5,154.5 390.5,154.5 391.5,154.5C 391.5,155.5 391.5,156.5 391.5,157.5C 393.995,158.199 396.328,159.199 398.5,160.5C 398.5,161.833 398.5,163.167 398.5,164.5C 399.5,164.5 400.5,164.5 401.5,164.5C 401.5,165.5 401.5,166.5 401.5,167.5C 402.833,167.5 404.167,167.5 405.5,167.5C 405.5,168.5 405.5,169.5 405.5,170.5C 406.5,170.5 407.5,170.5 408.5,170.5C 408.5,171.833 408.5,173.167 408.5,174.5C 409.5,174.5 410.5,174.5 411.5,174.5C 411.5,175.5 411.5,176.5 411.5,177.5C 412.822,177.33 413.989,177.663 415,178.5C 416.722,181.279 417.889,184.279 418.5,187.5C 419.552,187.351 420.552,187.517 421.5,188C 422.333,189.5 423.5,190.667 425,191.5C 425.333,193.167 425.667,194.833 426,196.5C 430.05,199.051 432.216,202.717 432.5,207.5C 433.5,207.5 434.5,207.5 435.5,207.5C 435.5,209.833 435.5,212.167 435.5,214.5C 436.5,214.5 437.5,214.5 438.5,214.5C 438.5,216.833 438.5,219.167 438.5,221.5C 439.822,221.33 440.989,221.663 442,222.5C 442.498,225.482 442.665,228.482 442.5,231.5C 443.5,231.5 444.5,231.5 445.5,231.5C 445.5,234.833 445.5,238.167 445.5,241.5C 446.5,241.5 447.5,241.5 448.5,241.5C 448.334,246.511 448.501,251.511 449,256.5C 450,257.167 451,257.833 452,258.5C 452.333,269.5 452.667,280.5 453,291.5C 453.667,292.167 454.333,292.833 455,293.5C 455.167,298 455.333,302.5 455.5,307C 453.716,317.87 452.549,329.037 452,340.5C 450.989,341.337 449.822,341.67 448.5,341.5C 448.665,345.182 448.499,348.848 448,352.5C 445.983,355.144 445.15,358.144 445.5,361.5C 444.5,361.5 443.5,361.5 442.5,361.5C 442.54,364.881 442.207,368.214 441.5,371.5C 440.5,371.5 439.5,371.5 438.5,371.5C 438.662,373.527 438.495,375.527 438,377.5C 435.664,382.206 432.664,386.539 429,390.5C 428.506,392.134 428.34,393.801 428.5,395.5C 427.5,395.5 426.5,395.5 425.5,395.5C 425.921,398.657 424.755,400.99 422,402.5C 421.517,403.448 421.351,404.448 421.5,405.5C 420.5,405.5 419.5,405.5 418.5,405.5C 418.5,406.5 418.5,407.5 418.5,408.5C 417.5,408.5 416.5,408.5 415.5,408.5C 414.521,412.088 413.188,415.421 411.5,418.5C 410.5,418.5 409.5,418.5 408.5,418.5C 408.5,419.5 408.5,420.5 408.5,421.5C 407.5,421.5 406.5,421.5 405.5,421.5C 405.833,424.5 404.5,425.833 401.5,425.5C 401.5,426.5 401.5,427.5 401.5,428.5C 400.5,428.5 399.5,428.5 398.5,428.5C 398.5,429.5 398.5,430.5 398.5,431.5C 395.892,431.606 393.892,432.772 392.5,435C 391.207,435.49 389.873,435.657 388.5,435.5C 388.5,436.5 388.5,437.5 388.5,438.5C 387.5,438.5 386.5,438.5 385.5,438.5C 385.719,439.675 385.386,440.675 384.5,441.5C 382.591,442.348 380.591,442.682 378.5,442.5C 378.5,443.5 378.5,444.5 378.5,445.5C 374.324,447.074 369.99,448.407 365.5,449.5C 365.167,450.167 364.833,450.833 364.5,451.5C 360.217,452.492 355.884,452.826 351.5,452.5C 351.5,453.5 351.5,454.5 351.5,455.5C 344.8,455.83 338.134,455.497 331.5,454.5C 331.291,453.914 330.957,453.414 330.5,453C 326.833,452.667 323.167,452.333 319.5,452C 318.663,450.989 318.33,449.822 318.5,448.5C 316.167,448.5 313.833,448.5 311.5,448.5C 311.5,447.5 311.5,446.5 311.5,445.5C 308.199,445.136 305.199,443.969 302.5,442C 301.663,440.989 301.33,439.822 301.5,438.5C 300.5,438.5 299.5,438.5 298.5,438.5C 298.5,437.5 298.5,436.5 298.5,435.5C 297.167,435.5 295.833,435.5 294.5,435.5C 293.199,433.328 292.199,430.995 291.5,428.5C 290.5,428.5 289.5,428.5 288.5,428.5C 288.5,427.5 288.5,426.5 288.5,425.5C 287.167,425.5 285.833,425.5 284.5,425.5C 282.842,420.85 279.508,418.517 274.5,418.5C 274.5,417.5 274.5,416.5 274.5,415.5C 272.5,415.5 270.5,415.5 268.5,415.5C 268.67,414.178 268.337,413.011 267.5,412C 264.5,411.667 261.5,411.333 258.5,411C 258.043,410.586 257.709,410.086 257.5,409.5C 251.872,408.505 246.206,408.171 240.5,408.5C 240.5,409.5 240.5,410.5 240.5,411.5C 237.167,411.5 233.833,411.5 230.5,411.5C 230.5,412.833 230.5,414.167 230.5,415.5C 228.5,415.5 226.5,415.5 224.5,415.5C 224.5,416.5 224.5,417.5 224.5,418.5C 222.167,418.5 219.833,418.5 217.5,418.5C 216.801,420.995 215.801,423.328 214.5,425.5C 213.167,425.5 211.833,425.5 210.5,425.5C 210.5,426.5 210.5,427.5 210.5,428.5C 209.5,428.5 208.5,428.5 207.5,428.5C 207.649,429.552 207.483,430.552 207,431.5C 205.5,432.333 204.333,433.5 203.5,435C 202.552,435.483 201.552,435.649 200.5,435.5C 200.5,436.5 200.5,437.5 200.5,438.5C 199.5,438.5 198.5,438.5 197.5,438.5C 197.67,439.822 197.337,440.989 196.5,442C 193.721,443.722 190.721,444.889 187.5,445.5C 187.5,446.5 187.5,447.5 187.5,448.5C 185.167,448.5 182.833,448.5 180.5,448.5C 180.67,449.822 180.337,450.989 179.5,452C 175.833,452.333 172.167,452.667 168.5,453C 168.043,453.414 167.709,453.914 167.5,454.5C 160.866,455.497 154.2,455.83 147.5,455.5C 147.5,454.5 147.5,453.5 147.5,452.5C 143.154,452.666 138.821,452.499 134.5,452C 133.663,450.989 133.33,449.822 133.5,448.5C 130.017,449.084 127.017,448.251 124.5,446C 123.207,445.51 121.873,445.343 120.5,445.5C 120.5,444.5 120.5,443.5 120.5,442.5C 118.473,442.662 116.473,442.495 114.5,442C 113.663,440.989 113.33,439.822 113.5,438.5C 112.5,438.5 111.5,438.5 110.5,438.5C 110.5,437.5 110.5,436.5 110.5,435.5C 107.343,435.921 105.01,434.755 103.5,432C 102.552,431.517 101.552,431.351 100.5,431.5C 100.5,430.5 100.5,429.5 100.5,428.5C 99.5,428.5 98.5,428.5 97.5,428.5C 97.5,427.5 97.5,426.5 97.5,425.5C 94.5,425.833 93.1667,424.5 93.5,421.5C 92.5,421.5 91.5,421.5 90.5,421.5C 90.5,420.5 90.5,419.5 90.5,418.5C 89.5,418.5 88.5,418.5 87.5,418.5C 87.3944,415.892 86.2277,413.892 84,412.5C 83.51,411.207 83.3433,409.873 83.5,408.5C 82.5,408.5 81.5,408.5 80.5,408.5C 80.5,407.5 80.5,406.5 80.5,405.5C 79.448,405.649 78.448,405.483 77.5,405C 76.842,403.095 75.6753,401.595 74,400.5C 73.5065,398.866 73.3398,397.199 73.5,395.5C 72.5,395.5 71.5,395.5 70.5,395.5C 69.1667,391.833 67.8333,388.167 66.5,384.5C 65.5,384.5 64.5,384.5 63.5,384.5C 63.5,382.5 63.5,380.5 63.5,378.5C 62.5,378.5 61.5,378.5 60.5,378.5C 60.5,376.167 60.5,373.833 60.5,371.5C 58.8762,371.64 57.7096,370.973 57,369.5C 56.5026,366.854 56.3359,364.187 56.5,361.5C 55.5,361.5 54.5,361.5 53.5,361.5C 53.9984,358.319 53.1651,355.653 51,353.5C 50.5012,349.514 50.3345,345.514 50.5,341.5C 49.1779,341.67 48.0113,341.337 47,340.5C 46.416,328.873 45.2493,317.54 43.5,306.5C 45.7112,290.815 46.8778,274.815 47,258.5C 47.6891,257.643 48.5224,256.977 49.5,256.5C 50.4941,251.544 50.8275,246.544 50.5,241.5C 51.5,241.5 52.5,241.5 53.5,241.5C 53.5,238.167 53.5,234.833 53.5,231.5C 54.5,231.5 55.5,231.5 56.5,231.5C 56.5,228.167 56.5,224.833 56.5,221.5C 57.8333,221.5 59.1667,221.5 60.5,221.5C 60.5,219.167 60.5,216.833 60.5,214.5C 61.5,214.5 62.5,214.5 63.5,214.5C 63.5,212.167 63.5,209.833 63.5,207.5C 64.5,207.5 65.5,207.5 66.5,207.5C 66.7309,202.752 68.8976,199.086 73,196.5C 73.1313,192.944 74.298,189.944 76.5,187.5C 77.8333,187.5 79.1667,187.5 80.5,187.5C 81.3717,181.086 84.705,176.753 90.5,174.5C 90.5,173.167 90.5,171.833 90.5,170.5C 91.5,170.5 92.5,170.5 93.5,170.5C 93.5,169.5 93.5,168.5 93.5,167.5C 94.8333,167.5 96.1667,167.5 97.5,167.5C 97.5,166.5 97.5,165.5 97.5,164.5C 98.5,164.5 99.5,164.5 100.5,164.5C 100.5,163.167 100.5,161.833 100.5,160.5C 102.672,159.199 105.005,158.199 107.5,157.5C 107.5,156.5 107.5,155.5 107.5,154.5C 108.5,154.5 109.5,154.5 110.5,154.5C 110.351,153.448 110.517,152.448 111,151.5C 112.5,150.667 113.667,149.5 114.5,148C 115.448,147.517 116.448,147.351 117.5,147.5C 118.199,145.005 119.199,142.672 120.5,140.5C 121.5,140.5 122.5,140.5 123.5,140.5C 123.338,138.473 123.505,136.473 124,134.5C 125.011,133.663 126.178,133.33 127.5,133.5C 126.918,129.685 127.752,126.351 130,123.5C 130.333,97.5 130.667,71.5 131,45.5C 131.717,44.9558 132.217,44.2891 132.5,43.5 Z M 173.5,244.5 C 176.187,244.341 178.52,245.175 180.5,247C 183.817,247.498 187.15,247.665 190.5,247.5C 190.33,248.822 190.663,249.989 191.5,251C 193.473,251.495 195.473,251.662 197.5,251.5C 197.5,252.5 197.5,253.5 197.5,254.5C 199.672,255.801 202.005,256.801 204.5,257.5C 205.199,259.995 206.199,262.328 207.5,264.5C 208.5,264.5 209.5,264.5 210.5,264.5C 210.833,266.5 211.167,268.5 211.5,270.5C 212.5,270.5 213.5,270.5 214.5,270.5C 214.5,271.833 214.5,273.167 214.5,274.5C 215.5,274.5 216.5,274.5 217.5,274.5C 217.335,277.518 217.502,280.518 218,283.5C 218.414,283.957 218.914,284.291 219.5,284.5C 220.472,288.467 221.305,292.467 222,296.5C 222.414,296.957 222.914,297.291 223.5,297.5C 224.497,304.468 224.83,311.468 224.5,318.5C 223.5,318.5 222.5,318.5 221.5,318.5C 220.8,322.798 220.467,327.131 220.5,331.5C 219.5,331.5 218.5,331.5 217.5,331.5C 217.5,333.833 217.5,336.167 217.5,338.5C 216.5,338.5 215.5,338.5 214.5,338.5C 214.5,340.833 214.5,343.167 214.5,345.5C 213.167,345.5 211.833,345.5 210.5,345.5C 209.318,347.814 207.985,350.148 206.5,352.5C 205.305,354.297 203.638,355.297 201.5,355.5C 201.5,356.5 201.5,357.5 201.5,358.5C 200.167,358.5 198.833,358.5 197.5,358.5C 197.5,359.5 197.5,360.5 197.5,361.5C 195.176,361.662 193.509,362.828 192.5,365C 189.854,365.497 187.187,365.664 184.5,365.5C 184.5,366.5 184.5,367.5 184.5,368.5C 176.164,368.496 168.164,367.496 160.5,365.5C 160.5,364.167 160.5,362.833 160.5,361.5C 157.197,360.561 153.864,359.561 150.5,358.5C 150.5,357.5 150.5,356.5 150.5,355.5C 149.5,355.5 148.5,355.5 147.5,355.5C 147.5,354.167 147.5,352.833 147.5,351.5C 146.167,351.5 144.833,351.5 143.5,351.5C 143.5,349.5 143.5,347.5 143.5,345.5C 142.5,345.5 141.5,345.5 140.5,345.5C 140.5,344.167 140.5,342.833 140.5,341.5C 139.5,341.5 138.5,341.5 137.5,341.5C 137.492,338.455 137.159,335.455 136.5,332.5C 135.5,332.5 134.5,332.5 133.5,332.5C 134.12,328.698 133.286,325.365 131,322.5C 130.833,317.333 130.667,312.167 130.5,307C 130.606,298.168 131.606,289.668 133.5,281.5C 134.675,281.719 135.675,281.386 136.5,280.5C 137.928,276.12 139.262,271.787 140.5,267.5C 141.5,267.5 142.5,267.5 143.5,267.5C 145.5,264.167 147.5,260.833 149.5,257.5C 150.552,257.649 151.552,257.483 152.5,257C 155.349,253.495 159.016,251.328 163.5,250.5C 163.5,249.5 163.5,248.5 163.5,247.5C 166.833,247.5 170.167,247.5 173.5,247.5C 173.5,246.5 173.5,245.5 173.5,244.5 Z M 320.5,244.5 C 325.079,246.75 330.079,247.75 335.5,247.5C 335.5,248.5 335.5,249.5 335.5,250.5C 337.5,250.833 339.5,251.167 341.5,251.5C 341.5,252.5 341.5,253.5 341.5,254.5C 346.406,255.811 350.072,258.811 352.5,263.5C 353.325,264.386 354.325,264.719 355.5,264.5C 355.5,265.5 355.5,266.5 355.5,267.5C 356.5,267.5 357.5,267.5 358.5,267.5C 358.338,269.527 358.505,271.527 359,273.5C 360.952,275.337 361.952,277.671 362,280.5C 363.011,281.337 364.178,281.67 365.5,281.5C 365.5,284.833 365.5,288.167 365.5,291.5C 366.5,291.5 367.5,291.5 368.5,291.5C 368.832,301.522 368.499,311.522 367.5,321.5C 366.914,321.709 366.414,322.043 366,322.5C 365.667,325.5 365.333,328.5 365,331.5C 361.881,334.027 360.715,337.36 361.5,341.5C 360.5,341.5 359.5,341.5 358.5,341.5C 358.5,342.833 358.5,344.167 358.5,345.5C 357.5,345.5 356.5,345.5 355.5,345.5C 355.5,347.5 355.5,349.5 355.5,351.5C 354.167,351.5 352.833,351.5 351.5,351.5C 351.5,352.833 351.5,354.167 351.5,355.5C 350.5,355.5 349.5,355.5 348.5,355.5C 348.5,356.5 348.5,357.5 348.5,358.5C 345.167,359.5 341.833,360.5 338.5,361.5C 338.5,362.833 338.5,364.167 338.5,365.5C 330.836,367.496 322.836,368.496 314.5,368.5C 314.5,367.5 314.5,366.5 314.5,365.5C 311.813,365.664 309.146,365.497 306.5,365C 303.767,362.127 300.767,359.627 297.5,357.5C 294.97,354.806 292.637,351.972 290.5,349C 289.552,348.517 288.552,348.351 287.5,348.5C 287.5,347.5 287.5,346.5 287.5,345.5C 286.5,345.5 285.5,345.5 284.5,345.5C 284.5,343.167 284.5,340.833 284.5,338.5C 283.5,338.5 282.5,338.5 281.5,338.5C 281.5,336.167 281.5,333.833 281.5,331.5C 280.167,331.5 278.833,331.5 277.5,331.5C 277.5,327.167 277.5,322.833 277.5,318.5C 276.5,318.5 275.5,318.5 274.5,318.5C 274.358,306.838 275.358,295.505 277.5,284.5C 279.124,284.64 280.29,283.973 281,282.5C 281.497,279.854 281.664,277.187 281.5,274.5C 282.5,274.5 283.5,274.5 284.5,274.5C 284.555,270.818 285.555,267.485 287.5,264.5C 288.833,264.5 290.167,264.5 291.5,264.5C 292.801,262.328 293.801,259.995 294.5,257.5C 295.5,257.5 296.5,257.5 297.5,257.5C 297.5,256.5 297.5,255.5 297.5,254.5C 298.833,254.5 300.167,254.5 301.5,254.5C 301.5,253.5 301.5,252.5 301.5,251.5C 304.596,252.093 306.929,251.093 308.5,248.5C 311.785,247.676 315.118,247.176 318.5,247C 319.381,246.292 320.047,245.458 320.5,244.5 Z M 122.5,249.5 C 123.82,250.942 125.486,251.608 127.5,251.5C 127.032,256.869 124.865,261.535 121,265.5C 120.502,268.482 120.335,271.482 120.5,274.5C 119.5,274.5 118.5,274.5 117.5,274.5C 118.268,279.221 117.101,283.221 114,286.5C 113.333,300.167 113.333,313.833 114,327.5C 115.011,328.337 116.178,328.67 117.5,328.5C 117.334,332.514 117.501,336.514 118,340.5C 119.897,344.874 121.897,349.207 124,353.5C 125.011,354.337 126.178,354.67 127.5,354.5C 127.5,355.833 127.5,357.167 127.5,358.5C 128.5,358.5 129.5,358.5 130.5,358.5C 130.34,360.199 130.506,361.866 131,363.5C 132.697,364.364 133.863,365.697 134.5,367.5C 135.325,368.386 136.325,368.719 137.5,368.5C 137.5,369.5 137.5,370.5 137.5,371.5C 140.579,373.188 143.912,374.521 147.5,375.5C 147.5,376.5 147.5,377.5 147.5,378.5C 152.805,380.49 158.471,381.49 164.5,381.5C 164.222,383.346 164.889,384.68 166.5,385.5C 167.487,388.768 167.82,392.102 167.5,395.5C 166.167,395.5 164.833,395.5 163.5,395.5C 163.67,394.178 163.337,393.011 162.5,392C 159.518,391.502 156.518,391.335 153.5,391.5C 153.5,390.5 153.5,389.5 153.5,388.5C 151.5,388.5 149.5,388.5 147.5,388.5C 147.5,387.5 147.5,386.5 147.5,385.5C 142.752,385.269 139.086,383.102 136.5,379C 135.552,378.517 134.552,378.351 133.5,378.5C 133.5,377.5 133.5,376.5 133.5,375.5C 132.5,375.5 131.5,375.5 130.5,375.5C 130.649,374.448 130.483,373.448 130,372.5C 128.5,371.667 127.333,370.5 126.5,369C 125.552,368.517 124.552,368.351 123.5,368.5C 123.5,367.5 123.5,366.5 123.5,365.5C 122.5,365.5 121.5,365.5 120.5,365.5C 121.12,360.006 118.787,356.672 113.5,355.5C 113.5,353.167 113.5,350.833 113.5,348.5C 112.5,348.5 111.5,348.5 110.5,348.5C 110.665,345.482 110.498,342.482 110,339.5C 106.966,336.539 105.799,332.872 106.5,328.5C 105.5,328.5 104.5,328.5 103.5,328.5C 103.333,314.829 103.5,301.163 104,287.5C 104.667,286.833 105.333,286.167 106,285.5C 106.548,281.83 107.048,278.163 107.5,274.5C 108.5,274.5 109.5,274.5 110.5,274.5C 111.249,269.696 112.249,265.03 113.5,260.5C 114.5,260.5 115.5,260.5 116.5,260.5C 116.833,258.5 117.167,256.5 117.5,254.5C 118.5,254.5 119.5,254.5 120.5,254.5C 120.365,252.446 121.032,250.779 122.5,249.5 Z M 375.5,249.5 C 377.759,250.344 378.759,252.011 378.5,254.5C 379.5,254.5 380.5,254.5 381.5,254.5C 381.833,256.5 382.167,258.5 382.5,260.5C 383.5,260.5 384.5,260.5 385.5,260.5C 386.751,265.03 387.751,269.696 388.5,274.5C 389.5,274.5 390.5,274.5 391.5,274.5C 391.335,277.518 391.502,280.518 392,283.5C 392.196,285.286 393.029,286.619 394.5,287.5C 395.499,301.15 395.833,314.817 395.5,328.5C 394.178,328.33 393.011,328.663 392,329.5C 392.092,333.293 391.092,336.627 389,339.5C 388.502,342.482 388.335,345.482 388.5,348.5C 387.5,348.5 386.5,348.5 385.5,348.5C 385.5,350.833 385.5,353.167 385.5,355.5C 384.167,355.5 382.833,355.5 381.5,355.5C 381.539,357.359 380.706,358.692 379,359.5C 378.505,361.473 378.338,363.473 378.5,365.5C 377.5,365.5 376.5,365.5 375.5,365.5C 375.5,366.5 375.5,367.5 375.5,368.5C 374.448,368.351 373.448,368.517 372.5,369C 371.667,370.5 370.5,371.667 369,372.5C 368.517,373.448 368.351,374.448 368.5,375.5C 367.5,375.5 366.5,375.5 365.5,375.5C 365.5,376.5 365.5,377.5 365.5,378.5C 364.167,378.5 362.833,378.5 361.5,378.5C 361.5,379.5 361.5,380.5 361.5,381.5C 359.176,381.662 357.509,382.828 356.5,385C 354.866,385.494 353.199,385.66 351.5,385.5C 351.5,386.5 351.5,387.5 351.5,388.5C 349.5,388.5 347.5,388.5 345.5,388.5C 345.5,389.5 345.5,390.5 345.5,391.5C 342.482,391.335 339.482,391.502 336.5,392C 335.491,394.172 333.824,395.338 331.5,395.5C 331.18,392.102 331.513,388.768 332.5,385.5C 334.111,384.68 334.778,383.346 334.5,381.5C 337.833,381.5 341.167,381.5 344.5,381.5C 344.5,380.5 344.5,379.5 344.5,378.5C 346.833,378.5 349.167,378.5 351.5,378.5C 351.5,377.5 351.5,376.5 351.5,375.5C 355.088,374.521 358.421,373.188 361.5,371.5C 361.5,370.5 361.5,369.5 361.5,368.5C 362.5,368.5 363.5,368.5 364.5,368.5C 364.277,365.886 365.444,364.219 368,363.5C 368.494,361.866 368.66,360.199 368.5,358.5C 369.5,358.5 370.5,358.5 371.5,358.5C 371.5,357.167 371.5,355.833 371.5,354.5C 372.675,354.719 373.675,354.386 374.5,353.5C 374.909,351.009 376.076,349.009 378,347.5C 378.048,344.671 379.048,342.337 381,340.5C 381.173,336.459 381.673,332.459 382.5,328.5C 383.478,328.023 384.311,327.357 385,326.5C 385.667,313.5 385.667,300.5 385,287.5C 382.015,283.78 380.848,279.447 381.5,274.5C 380.5,274.5 379.5,274.5 378.5,274.5C 378.665,271.482 378.498,268.482 378,265.5C 374.135,261.535 371.968,256.869 371.5,251.5C 373.38,251.771 374.713,251.104 375.5,249.5 Z"/></g>
<g><path style="opacity:0.576" fill="#fefffe" d="M 170.5,83.5 C 174.881,83.3718 179.215,83.7051 183.5,84.5C 184.82,103.16 184.82,121.827 183.5,140.5C 182.5,140.5 181.5,140.5 180.5,140.5C 180.5,144.833 180.5,149.167 180.5,153.5C 179.5,153.5 178.5,153.5 177.5,153.5C 176.75,161.582 173.583,168.582 168,174.5C 168.145,177.923 166.645,179.923 163.5,180.5C 162.199,182.672 161.199,185.005 160.5,187.5C 159.5,187.5 158.5,187.5 157.5,187.5C 157.5,188.5 157.5,189.5 157.5,190.5C 156.167,190.5 154.833,190.5 153.5,190.5C 153.5,191.833 153.5,193.167 153.5,194.5C 152.5,194.5 151.5,194.5 150.5,194.5C 150.5,195.5 150.5,196.5 150.5,197.5C 148.328,198.801 145.995,199.801 143.5,200.5C 143.649,201.552 143.483,202.552 143,203.5C 140.373,206.095 137.54,208.429 134.5,210.5C 133.614,211.325 133.281,212.325 133.5,213.5C 132.5,213.5 131.5,213.5 130.5,213.5C 130.649,214.552 130.483,215.552 130,216.5C 128.001,218.253 125.835,219.587 123.5,220.5C 123.5,221.833 123.5,223.167 123.5,224.5C 122.5,224.5 121.5,224.5 120.5,224.5C 120.5,226.5 120.5,228.5 120.5,230.5C 121.681,231.636 125.014,231.969 130.5,231.5C 130.5,232.5 130.5,233.5 130.5,234.5C 132.527,234.338 134.527,234.505 136.5,235C 137.308,236.706 138.641,237.539 140.5,237.5C 140.5,238.833 140.5,240.167 140.5,241.5C 141.5,241.5 142.5,241.5 143.5,241.5C 143.33,240.178 143.663,239.011 144.5,238C 148.543,235.998 152.543,233.998 156.5,232C 162.491,231.501 168.491,231.334 174.5,231.5C 174.701,227.65 176.534,226.65 180,228.5C 180.483,229.448 180.649,230.448 180.5,231.5C 186.167,231.5 191.833,231.5 197.5,231.5C 197.5,232.5 197.5,233.5 197.5,234.5C 199.833,234.5 202.167,234.5 204.5,234.5C 204.5,235.5 204.5,236.5 204.5,237.5C 208.241,236.599 210.241,237.932 210.5,241.5C 211.833,241.5 213.167,241.5 214.5,241.5C 214.5,242.5 214.5,243.5 214.5,244.5C 215.5,244.5 216.5,244.5 217.5,244.5C 217.5,245.5 217.5,246.5 217.5,247.5C 218.5,247.5 219.5,247.5 220.5,247.5C 220.5,248.833 220.5,250.167 220.5,251.5C 221.833,251.5 223.167,251.5 224.5,251.5C 226.445,254.485 227.445,257.818 227.5,261.5C 228.5,261.5 229.5,261.5 230.5,261.5C 235.051,272.673 238.551,284.34 241,296.5C 241.705,304.861 241.538,313.194 240.5,321.5C 239.5,321.5 238.5,321.5 237.5,321.5C 237.5,326.833 237.5,332.167 237.5,337.5C 236.5,337.5 235.5,337.5 234.5,337.5C 234.5,339.833 234.5,342.167 234.5,344.5C 233.5,344.5 232.5,344.5 231.5,344.5C 231.007,346.806 230.674,349.139 230.5,351.5C 229.5,351.5 228.5,351.5 227.5,351.5C 227.5,353.833 227.5,356.167 227.5,358.5C 226.5,358.5 225.5,358.5 224.5,358.5C 224.5,359.5 224.5,360.5 224.5,361.5C 223.167,361.5 221.833,361.5 220.5,361.5C 220.5,362.833 220.5,364.167 220.5,365.5C 219.5,365.5 218.5,365.5 217.5,365.5C 217.5,366.5 217.5,367.5 217.5,368.5C 216.5,368.5 215.5,368.5 214.5,368.5C 214.5,369.5 214.5,370.5 214.5,371.5C 213.167,371.5 211.833,371.5 210.5,371.5C 210.5,372.833 210.5,374.167 210.5,375.5C 208.641,375.461 207.308,376.294 206.5,378C 204.527,378.495 202.527,378.662 200.5,378.5C 200.5,379.5 200.5,380.5 200.5,381.5C 197.167,381.5 193.833,381.5 190.5,381.5C 190.5,382.5 190.5,383.5 190.5,384.5C 188.5,384.833 186.5,385.167 184.5,385.5C 184.666,390.844 184.499,396.177 184,401.5C 182.137,403.376 180.637,405.543 179.5,408C 176.671,408.048 174.337,409.048 172.5,411C 168.459,411.827 164.459,411.66 160.5,410.5C 160.291,409.914 159.957,409.414 159.5,409C 155.514,408.501 151.514,408.334 147.5,408.5C 147.5,407.5 147.5,406.5 147.5,405.5C 145.167,405.5 142.833,405.5 140.5,405.5C 140.5,404.167 140.5,402.833 140.5,401.5C 138.167,401.5 135.833,401.5 133.5,401.5C 133.5,400.5 133.5,399.5 133.5,398.5C 131.801,398.66 130.134,398.494 128.5,398C 127.405,396.325 125.905,395.158 124,394.5C 123.517,393.552 123.351,392.552 123.5,391.5C 122.5,391.5 121.5,391.5 120.5,391.5C 120.5,390.5 120.5,389.5 120.5,388.5C 119.5,388.5 118.5,388.5 117.5,388.5C 117.5,387.5 117.5,386.5 117.5,385.5C 114.5,385.833 113.167,384.5 113.5,381.5C 112.5,381.5 111.5,381.5 110.5,381.5C 110.5,380.5 110.5,379.5 110.5,378.5C 109.5,378.5 108.5,378.5 107.5,378.5C 107.66,376.801 107.494,375.134 107,373.5C 104.828,372.491 103.662,370.824 103.5,368.5C 102.5,368.5 101.5,368.5 100.5,368.5C 100.5,366.167 100.5,363.833 100.5,361.5C 99.5,361.5 98.5,361.5 97.5,361.5C 97.0074,359.194 96.6741,356.861 96.5,354.5C 95.5,354.5 94.5,354.5 93.5,354.5C 93.5,351.167 93.5,347.833 93.5,344.5C 92.5,344.5 91.5,344.5 90.5,344.5C 91.3529,339.218 90.1862,334.552 87,330.5C 86.2111,314.135 86.3778,297.802 87.5,281.5C 88.5,281.5 89.5,281.5 90.5,281.5C 90.3336,272.494 90.5002,263.494 91,254.5C 93.064,250.136 94.064,245.47 94,240.5C 97.2466,232.724 100.413,225.057 103.5,217.5C 104.833,217.5 106.167,217.5 107.5,217.5C 107.533,213.744 108.533,210.411 110.5,207.5C 111.5,207.5 112.5,207.5 113.5,207.5C 113.5,206.5 113.5,205.5 113.5,204.5C 114.833,204.5 116.167,204.5 117.5,204.5C 117.238,203.022 117.571,201.689 118.5,200.5C 119.695,198.703 121.362,197.703 123.5,197.5C 123.5,196.5 123.5,195.5 123.5,194.5C 124.833,194.5 126.167,194.5 127.5,194.5C 127.5,193.167 127.5,191.833 127.5,190.5C 128.5,190.5 129.5,190.5 130.5,190.5C 130.5,189.5 130.5,188.5 130.5,187.5C 131.5,187.5 132.5,187.5 133.5,187.5C 133.5,186.5 133.5,185.5 133.5,184.5C 134.833,184.5 136.167,184.5 137.5,184.5C 137.5,183.167 137.5,181.833 137.5,180.5C 138.5,180.5 139.5,180.5 140.5,180.5C 140.5,179.5 140.5,178.5 140.5,177.5C 142.672,176.199 145.005,175.199 147.5,174.5C 147.5,173.167 147.5,171.833 147.5,170.5C 148.5,170.5 149.5,170.5 150.5,170.5C 150.5,169.5 150.5,168.5 150.5,167.5C 151.5,167.5 152.5,167.5 153.5,167.5C 153.674,165.139 154.007,162.806 154.5,160.5C 155.5,160.5 156.5,160.5 157.5,160.5C 157.5,158.5 157.5,156.5 157.5,154.5C 158.5,154.5 159.5,154.5 160.5,154.5C 160.5,152.167 160.5,149.833 160.5,147.5C 161.822,147.67 162.989,147.337 164,146.5C 164.499,142.514 164.666,138.514 164.5,134.5C 165.5,134.5 166.5,134.5 167.5,134.5C 167.333,118.83 167.5,103.163 168,87.5C 169.706,86.6921 170.539,85.3588 170.5,83.5 Z M 173.5,244.5 C 173.5,245.5 173.5,246.5 173.5,247.5C 170.167,247.5 166.833,247.5 163.5,247.5C 163.5,248.5 163.5,249.5 163.5,250.5C 159.016,251.328 155.349,253.495 152.5,257C 151.552,257.483 150.552,257.649 149.5,257.5C 147.5,260.833 145.5,264.167 143.5,267.5C 142.5,267.5 141.5,267.5 140.5,267.5C 139.262,271.787 137.928,276.12 136.5,280.5C 135.675,281.386 134.675,281.719 133.5,281.5C 131.606,289.668 130.606,298.168 130.5,307C 130.667,312.167 130.833,317.333 131,322.5C 133.286,325.365 134.12,328.698 133.5,332.5C 134.5,332.5 135.5,332.5 136.5,332.5C 137.159,335.455 137.492,338.455 137.5,341.5C 138.5,341.5 139.5,341.5 140.5,341.5C 140.5,342.833 140.5,344.167 140.5,345.5C 141.5,345.5 142.5,345.5 143.5,345.5C 143.5,347.5 143.5,349.5 143.5,351.5C 144.833,351.5 146.167,351.5 147.5,351.5C 147.5,352.833 147.5,354.167 147.5,355.5C 148.5,355.5 149.5,355.5 150.5,355.5C 150.5,356.5 150.5,357.5 150.5,358.5C 153.864,359.561 157.197,360.561 160.5,361.5C 160.5,362.833 160.5,364.167 160.5,365.5C 168.164,367.496 176.164,368.496 184.5,368.5C 184.5,367.5 184.5,366.5 184.5,365.5C 187.187,365.664 189.854,365.497 192.5,365C 193.509,362.828 195.176,361.662 197.5,361.5C 197.5,360.5 197.5,359.5 197.5,358.5C 198.833,358.5 200.167,358.5 201.5,358.5C 201.5,357.5 201.5,356.5 201.5,355.5C 203.638,355.297 205.305,354.297 206.5,352.5C 207.985,350.148 209.318,347.814 210.5,345.5C 211.833,345.5 213.167,345.5 214.5,345.5C 214.5,343.167 214.5,340.833 214.5,338.5C 215.5,338.5 216.5,338.5 217.5,338.5C 217.5,336.167 217.5,333.833 217.5,331.5C 218.5,331.5 219.5,331.5 220.5,331.5C 220.467,327.131 220.8,322.798 221.5,318.5C 222.5,318.5 223.5,318.5 224.5,318.5C 224.83,311.468 224.497,304.468 223.5,297.5C 222.914,297.291 222.414,296.957 222,296.5C 221.305,292.467 220.472,288.467 219.5,284.5C 218.914,284.291 218.414,283.957 218,283.5C 217.502,280.518 217.335,277.518 217.5,274.5C 216.5,274.5 215.5,274.5 214.5,274.5C 214.5,273.167 214.5,271.833 214.5,270.5C 213.5,270.5 212.5,270.5 211.5,270.5C 211.167,268.5 210.833,266.5 210.5,264.5C 209.5,264.5 208.5,264.5 207.5,264.5C 206.199,262.328 205.199,259.995 204.5,257.5C 202.005,256.801 199.672,255.801 197.5,254.5C 197.5,253.5 197.5,252.5 197.5,251.5C 195.473,251.662 193.473,251.495 191.5,251C 190.663,249.989 190.33,248.822 190.5,247.5C 187.15,247.665 183.817,247.498 180.5,247C 178.52,245.175 176.187,244.341 173.5,244.5 Z M 122.5,249.5 C 121.032,250.779 120.365,252.446 120.5,254.5C 119.5,254.5 118.5,254.5 117.5,254.5C 117.167,256.5 116.833,258.5 116.5,260.5C 115.5,260.5 114.5,260.5 113.5,260.5C 112.249,265.03 111.249,269.696 110.5,274.5C 109.5,274.5 108.5,274.5 107.5,274.5C 107.048,278.163 106.548,281.83 106,285.5C 105.333,286.167 104.667,286.833 104,287.5C 103.5,301.163 103.333,314.829 103.5,328.5C 104.5,328.5 105.5,328.5 106.5,328.5C 105.799,332.872 106.966,336.539 110,339.5C 110.498,342.482 110.665,345.482 110.5,348.5C 111.5,348.5 112.5,348.5 113.5,348.5C 113.5,350.833 113.5,353.167 113.5,355.5C 118.787,356.672 121.12,360.006 120.5,365.5C 121.5,365.5 122.5,365.5 123.5,365.5C 123.5,366.5 123.5,367.5 123.5,368.5C 124.552,368.351 125.552,368.517 126.5,369C 127.333,370.5 128.5,371.667 130,372.5C 130.483,373.448 130.649,374.448 130.5,375.5C 131.5,375.5 132.5,375.5 133.5,375.5C 133.5,376.5 133.5,377.5 133.5,378.5C 134.552,378.351 135.552,378.517 136.5,379C 139.086,383.102 142.752,385.269 147.5,385.5C 147.5,386.5 147.5,387.5 147.5,388.5C 149.5,388.5 151.5,388.5 153.5,388.5C 153.5,389.5 153.5,390.5 153.5,391.5C 156.518,391.335 159.518,391.502 162.5,392C 163.337,393.011 163.67,394.178 163.5,395.5C 164.833,395.5 166.167,395.5 167.5,395.5C 167.82,392.102 167.487,388.768 166.5,385.5C 164.889,384.68 164.222,383.346 164.5,381.5C 158.471,381.49 152.805,380.49 147.5,378.5C 147.5,377.5 147.5,376.5 147.5,375.5C 143.912,374.521 140.579,373.188 137.5,371.5C 137.5,370.5 137.5,369.5 137.5,368.5C 136.325,368.719 135.325,368.386 134.5,367.5C 133.863,365.697 132.697,364.364 131,363.5C 130.506,361.866 130.34,360.199 130.5,358.5C 129.5,358.5 128.5,358.5 127.5,358.5C 127.5,357.167 127.5,355.833 127.5,354.5C 126.178,354.67 125.011,354.337 124,353.5C 121.897,349.207 119.897,344.874 118,340.5C 117.501,336.514 117.334,332.514 117.5,328.5C 116.178,328.67 115.011,328.337 114,327.5C 113.333,313.833 113.333,300.167 114,286.5C 117.101,283.221 118.268,279.221 117.5,274.5C 118.5,274.5 119.5,274.5 120.5,274.5C 120.335,271.482 120.502,268.482 121,265.5C 124.865,261.535 127.032,256.869 127.5,251.5C 125.486,251.608 123.82,250.942 122.5,249.5 Z"/></g>
<g><path style="opacity:0.579" fill="#fefffe" d="M 317.5,83.5 C 320.85,83.335 324.183,83.5017 327.5,84C 328.333,85.5 329.5,86.6667 331,87.5C 331.5,103.163 331.667,118.83 331.5,134.5C 332.5,134.5 333.5,134.5 334.5,134.5C 334.5,138.833 334.5,143.167 334.5,147.5C 335.833,147.5 337.167,147.5 338.5,147.5C 338.748,152.174 339.748,156.507 341.5,160.5C 342.5,160.5 343.5,160.5 344.5,160.5C 344.5,162.833 344.5,165.167 344.5,167.5C 345.833,167.5 347.167,167.5 348.5,167.5C 348.5,168.5 348.5,169.5 348.5,170.5C 349.5,170.5 350.5,170.5 351.5,170.5C 351.5,171.833 351.5,173.167 351.5,174.5C 352.5,174.5 353.5,174.5 354.5,174.5C 354.5,175.5 354.5,176.5 354.5,177.5C 355.833,177.5 357.167,177.5 358.5,177.5C 358.5,178.5 358.5,179.5 358.5,180.5C 359.5,180.5 360.5,180.5 361.5,180.5C 361.5,181.833 361.5,183.167 361.5,184.5C 363.995,185.199 366.328,186.199 368.5,187.5C 368.5,188.5 368.5,189.5 368.5,190.5C 369.5,190.5 370.5,190.5 371.5,190.5C 371.5,191.833 371.5,193.167 371.5,194.5C 372.833,194.5 374.167,194.5 375.5,194.5C 375.5,195.5 375.5,196.5 375.5,197.5C 376.5,197.5 377.5,197.5 378.5,197.5C 378.5,198.5 378.5,199.5 378.5,200.5C 379.5,200.5 380.5,200.5 381.5,200.5C 381.5,201.833 381.5,203.167 381.5,204.5C 382.833,204.5 384.167,204.5 385.5,204.5C 385.5,205.5 385.5,206.5 385.5,207.5C 386.5,207.5 387.5,207.5 388.5,207.5C 390.467,210.411 391.467,213.744 391.5,217.5C 392.833,217.5 394.167,217.5 395.5,217.5C 397.028,221.67 398.861,225.67 401,229.5C 401.498,232.482 401.665,235.482 401.5,238.5C 402.5,238.5 403.5,238.5 404.5,238.5C 405.164,243.468 405.664,248.468 406,253.5C 406.414,253.957 406.914,254.291 407.5,254.5C 408.498,263.475 408.832,272.475 408.5,281.5C 409.5,281.5 410.5,281.5 411.5,281.5C 411.667,298.17 411.5,314.837 411,331.5C 410.333,332.167 409.667,332.833 409,333.5C 408.501,337.152 408.335,340.818 408.5,344.5C 407.5,344.5 406.5,344.5 405.5,344.5C 405.5,347.833 405.5,351.167 405.5,354.5C 404.167,354.5 402.833,354.5 401.5,354.5C 401.5,356.833 401.5,359.167 401.5,361.5C 400.5,361.5 399.5,361.5 398.5,361.5C 398.5,363.833 398.5,366.167 398.5,368.5C 397.5,368.5 396.5,368.5 395.5,368.5C 395.338,370.824 394.172,372.491 392,373.5C 391.506,375.134 391.34,376.801 391.5,378.5C 390.5,378.5 389.5,378.5 388.5,378.5C 388.5,379.5 388.5,380.5 388.5,381.5C 387.5,381.5 386.5,381.5 385.5,381.5C 385.833,384.5 384.5,385.833 381.5,385.5C 381.5,386.5 381.5,387.5 381.5,388.5C 380.5,388.5 379.5,388.5 378.5,388.5C 378.5,389.5 378.5,390.5 378.5,391.5C 377.5,391.5 376.5,391.5 375.5,391.5C 375.649,392.552 375.483,393.552 375,394.5C 373.095,395.158 371.595,396.325 370.5,398C 367.997,398.129 365.997,399.129 364.5,401C 362.527,401.495 360.527,401.662 358.5,401.5C 358.5,402.833 358.5,404.167 358.5,405.5C 356.167,405.5 353.833,405.5 351.5,405.5C 351.5,406.5 351.5,407.5 351.5,408.5C 342.961,409.72 334.295,410.72 325.5,411.5C 325.5,410.5 325.5,409.5 325.5,408.5C 323.473,408.662 321.473,408.495 319.5,408C 318.363,405.543 316.863,403.376 315,401.5C 314.501,396.177 314.334,390.844 314.5,385.5C 311.031,386.113 309.031,384.779 308.5,381.5C 305.167,381.5 301.833,381.5 298.5,381.5C 298.5,380.5 298.5,379.5 298.5,378.5C 296.473,378.662 294.473,378.495 292.5,378C 291.692,376.294 290.359,375.461 288.5,375.5C 288.5,374.167 288.5,372.833 288.5,371.5C 287.167,371.5 285.833,371.5 284.5,371.5C 284.5,370.5 284.5,369.5 284.5,368.5C 283.5,368.5 282.5,368.5 281.5,368.5C 281.5,367.5 281.5,366.5 281.5,365.5C 278.5,365.833 277.167,364.5 277.5,361.5C 276.5,361.5 275.5,361.5 274.5,361.5C 274.5,360.5 274.5,359.5 274.5,358.5C 273.5,358.5 272.5,358.5 271.5,358.5C 271.5,356.167 271.5,353.833 271.5,351.5C 270.178,351.67 269.011,351.337 268,350.5C 267.505,348.527 267.338,346.527 267.5,344.5C 266.5,344.5 265.5,344.5 264.5,344.5C 264.662,342.473 264.495,340.473 264,338.5C 263.586,338.043 263.086,337.709 262.5,337.5C 261.505,332.208 261.172,326.875 261.5,321.5C 259.876,321.64 258.71,320.973 258,319.5C 257.248,310.132 257.415,300.799 258.5,291.5C 259.5,291.5 260.5,291.5 261.5,291.5C 261.174,287.116 261.508,282.783 262.5,278.5C 263.086,278.291 263.586,277.957 264,277.5C 264.179,274.447 264.679,271.447 265.5,268.5C 267.131,266.941 267.964,264.941 268,262.5C 269.011,261.663 270.178,261.33 271.5,261.5C 271.533,257.744 272.533,254.411 274.5,251.5C 276.833,250.167 279.167,248.833 281.5,247.5C 281.5,246.5 281.5,245.5 281.5,244.5C 282.5,244.5 283.5,244.5 284.5,244.5C 284.5,243.5 284.5,242.5 284.5,241.5C 285.833,241.5 287.167,241.5 288.5,241.5C 288.759,237.932 290.759,236.599 294.5,237.5C 294.5,236.5 294.5,235.5 294.5,234.5C 296.833,234.5 299.167,234.5 301.5,234.5C 301.5,233.5 301.5,232.5 301.5,231.5C 307.167,231.5 312.833,231.5 318.5,231.5C 318.701,227.65 320.534,226.65 324,228.5C 324.483,229.448 324.649,230.448 324.5,231.5C 330.176,231.334 335.843,231.501 341.5,232C 344.259,233.547 346.925,235.213 349.5,237C 351.134,237.494 352.801,237.66 354.5,237.5C 354.5,238.833 354.5,240.167 354.5,241.5C 355.833,241.5 357.167,241.5 358.5,241.5C 358.5,240.167 358.5,238.833 358.5,237.5C 360.359,237.539 361.692,236.706 362.5,235C 364.473,234.505 366.473,234.338 368.5,234.5C 368.5,233.5 368.5,232.5 368.5,231.5C 373.986,231.969 377.319,231.636 378.5,230.5C 378.5,228.5 378.5,226.5 378.5,224.5C 377.5,224.5 376.5,224.5 375.5,224.5C 375.5,223.167 375.5,221.833 375.5,220.5C 374.448,220.649 373.448,220.483 372.5,220C 371.667,218.5 370.5,217.333 369,216.5C 368.517,215.552 368.351,214.552 368.5,213.5C 367.5,213.5 366.5,213.5 365.5,213.5C 365.719,212.325 365.386,211.325 364.5,210.5C 361.46,208.429 358.627,206.095 356,203.5C 355.517,202.552 355.351,201.552 355.5,200.5C 354.167,200.5 352.833,200.5 351.5,200.5C 351.5,199.5 351.5,198.5 351.5,197.5C 350.5,197.5 349.5,197.5 348.5,197.5C 348.5,196.5 348.5,195.5 348.5,194.5C 347.5,194.5 346.5,194.5 345.5,194.5C 345.5,193.167 345.5,191.833 345.5,190.5C 344.167,190.5 342.833,190.5 341.5,190.5C 341.5,189.5 341.5,188.5 341.5,187.5C 340.5,187.5 339.5,187.5 338.5,187.5C 333.797,181.954 329.63,175.954 326,169.5C 325.196,166.56 323.863,163.893 322,161.5C 321.503,158.854 321.336,156.187 321.5,153.5C 320.5,153.5 319.5,153.5 318.5,153.5C 318.5,149.167 318.5,144.833 318.5,140.5C 316.876,140.64 315.71,139.973 315,138.5C 314.333,121.5 314.333,104.5 315,87.5C 315.48,85.867 316.313,84.5336 317.5,83.5 Z M 320.5,244.5 C 320.047,245.458 319.381,246.292 318.5,247C 315.118,247.176 311.785,247.676 308.5,248.5C 306.929,251.093 304.596,252.093 301.5,251.5C 301.5,252.5 301.5,253.5 301.5,254.5C 300.167,254.5 298.833,254.5 297.5,254.5C 297.5,255.5 297.5,256.5 297.5,257.5C 296.5,257.5 295.5,257.5 294.5,257.5C 293.801,259.995 292.801,262.328 291.5,264.5C 290.167,264.5 288.833,264.5 287.5,264.5C 285.555,267.485 284.555,270.818 284.5,274.5C 283.5,274.5 282.5,274.5 281.5,274.5C 281.664,277.187 281.497,279.854 281,282.5C 280.29,283.973 279.124,284.64 277.5,284.5C 275.358,295.505 274.358,306.838 274.5,318.5C 275.5,318.5 276.5,318.5 277.5,318.5C 277.5,322.833 277.5,327.167 277.5,331.5C 278.833,331.5 280.167,331.5 281.5,331.5C 281.5,333.833 281.5,336.167 281.5,338.5C 282.5,338.5 283.5,338.5 284.5,338.5C 284.5,340.833 284.5,343.167 284.5,345.5C 285.5,345.5 286.5,345.5 287.5,345.5C 287.5,346.5 287.5,347.5 287.5,348.5C 288.552,348.351 289.552,348.517 290.5,349C 292.637,351.972 294.97,354.806 297.5,357.5C 300.767,359.627 303.767,362.127 306.5,365C 309.146,365.497 311.813,365.664 314.5,365.5C 314.5,366.5 314.5,367.5 314.5,368.5C 322.836,368.496 330.836,367.496 338.5,365.5C 338.5,364.167 338.5,362.833 338.5,361.5C 341.833,360.5 345.167,359.5 348.5,358.5C 348.5,357.5 348.5,356.5 348.5,355.5C 349.5,355.5 350.5,355.5 351.5,355.5C 351.5,354.167 351.5,352.833 351.5,351.5C 352.833,351.5 354.167,351.5 355.5,351.5C 355.5,349.5 355.5,347.5 355.5,345.5C 356.5,345.5 357.5,345.5 358.5,345.5C 358.5,344.167 358.5,342.833 358.5,341.5C 359.5,341.5 360.5,341.5 361.5,341.5C 360.715,337.36 361.881,334.027 365,331.5C 365.333,328.5 365.667,325.5 366,322.5C 366.414,322.043 366.914,321.709 367.5,321.5C 368.499,311.522 368.832,301.522 368.5,291.5C 367.5,291.5 366.5,291.5 365.5,291.5C 365.5,288.167 365.5,284.833 365.5,281.5C 364.178,281.67 363.011,281.337 362,280.5C 361.952,277.671 360.952,275.337 359,273.5C 358.505,271.527 358.338,269.527 358.5,267.5C 357.5,267.5 356.5,267.5 355.5,267.5C 355.5,266.5 355.5,265.5 355.5,264.5C 354.325,264.719 353.325,264.386 352.5,263.5C 350.072,258.811 346.406,255.811 341.5,254.5C 341.5,253.5 341.5,252.5 341.5,251.5C 339.5,251.167 337.5,250.833 335.5,250.5C 335.5,249.5 335.5,248.5 335.5,247.5C 330.079,247.75 325.079,246.75 320.5,244.5 Z M 375.5,249.5 C 374.713,251.104 373.38,251.771 371.5,251.5C 371.968,256.869 374.135,261.535 378,265.5C 378.498,268.482 378.665,271.482 378.5,274.5C 379.5,274.5 380.5,274.5 381.5,274.5C 380.848,279.447 382.015,283.78 385,287.5C 385.667,300.5 385.667,313.5 385,326.5C 384.311,327.357 383.478,328.023 382.5,328.5C 381.673,332.459 381.173,336.459 381,340.5C 379.048,342.337 378.048,344.671 378,347.5C 376.076,349.009 374.909,351.009 374.5,353.5C 373.675,354.386 372.675,354.719 371.5,354.5C 371.5,355.833 371.5,357.167 371.5,358.5C 370.5,358.5 369.5,358.5 368.5,358.5C 368.66,360.199 368.494,361.866 368,363.5C 365.444,364.219 364.277,365.886 364.5,368.5C 363.5,368.5 362.5,368.5 361.5,368.5C 361.5,369.5 361.5,370.5 361.5,371.5C 358.421,373.188 355.088,374.521 351.5,375.5C 351.5,376.5 351.5,377.5 351.5,378.5C 349.167,378.5 346.833,378.5 344.5,378.5C 344.5,379.5 344.5,380.5 344.5,381.5C 341.167,381.5 337.833,381.5 334.5,381.5C 334.778,383.346 334.111,384.68 332.5,385.5C 331.513,388.768 331.18,392.102 331.5,395.5C 333.824,395.338 335.491,394.172 336.5,392C 339.482,391.502 342.482,391.335 345.5,391.5C 345.5,390.5 345.5,389.5 345.5,388.5C 347.5,388.5 349.5,388.5 351.5,388.5C 351.5,387.5 351.5,386.5 351.5,385.5C 353.199,385.66 354.866,385.494 356.5,385C 357.509,382.828 359.176,381.662 361.5,381.5C 361.5,380.5 361.5,379.5 361.5,378.5C 362.833,378.5 364.167,378.5 365.5,378.5C 365.5,377.5 365.5,376.5 365.5,375.5C 366.5,375.5 367.5,375.5 368.5,375.5C 368.351,374.448 368.517,373.448 369,372.5C 370.5,371.667 371.667,370.5 372.5,369C 373.448,368.517 374.448,368.351 375.5,368.5C 375.5,367.5 375.5,366.5 375.5,365.5C 376.5,365.5 377.5,365.5 378.5,365.5C 378.338,363.473 378.505,361.473 379,359.5C 380.706,358.692 381.539,357.359 381.5,355.5C 382.833,355.5 384.167,355.5 385.5,355.5C 385.5,353.167 385.5,350.833 385.5,348.5C 386.5,348.5 387.5,348.5 388.5,348.5C 388.335,345.482 388.502,342.482 389,339.5C 391.092,336.627 392.092,333.293 392,329.5C 393.011,328.663 394.178,328.33 395.5,328.5C 395.833,314.817 395.499,301.15 394.5,287.5C 393.029,286.619 392.196,285.286 392,283.5C 391.502,280.518 391.335,277.518 391.5,274.5C 390.5,274.5 389.5,274.5 388.5,274.5C 387.751,269.696 386.751,265.03 385.5,260.5C 384.5,260.5 383.5,260.5 382.5,260.5C 382.167,258.5 381.833,256.5 381.5,254.5C 380.5,254.5 379.5,254.5 378.5,254.5C 378.759,252.011 377.759,250.344 375.5,249.5 Z"/></g>
</svg>
