<?xml version="1.0" encoding="UTF-8"?>
<!DOCTYPE svg PUBLIC "-//W3C//DTD SVG 1.1//EN" "http://www.w3.org/Graphics/SVG/1.1/DTD/svg11.dtd">
<svg xmlns="http://www.w3.org/2000/svg" version="1.1" width="500px" height="500px" style="shape-rendering:geometricPrecision; text-rendering:geometricPrecision; image-rendering:optimizeQuality; fill-rule:evenodd; clip-rule:evenodd" xmlns:xlink="http://www.w3.org/1999/xlink">
<g><path style="opacity:0.623" fill="#fefffe" d="M 97.5,33.5 C 111.504,33.3334 125.504,33.5001 139.5,34C 140.337,35.0113 140.67,36.1779 140.5,37.5C 142.833,37.5 145.167,37.5 147.5,37.5C 147.5,38.5 147.5,39.5 147.5,40.5C 151.58,41.0551 155.247,42.3885 158.5,44.5C 158.5,45.5 158.5,46.5 158.5,47.5C 159.5,47.5 160.5,47.5 161.5,47.5C 161.5,48.8333 161.5,50.1667 161.5,51.5C 162.833,51.5 164.167,51.5 165.5,51.5C 166.833,53.8333 168.167,56.1667 169.5,58.5C 170.5,58.5 171.5,58.5 172.5,58.5C 171.907,61.5959 172.907,63.9292 175.5,65.5C 176.429,66.6888 176.762,68.0222 176.5,69.5C 177.5,69.5 178.5,69.5 179.5,69.5C 179.5,71.8333 179.5,74.1667 179.5,76.5C 180.833,76.5 182.167,76.5 183.5,76.5C 183.5,78.8333 183.5,81.1667 183.5,83.5C 184.5,83.5 185.5,83.5 186.5,83.5C 186.724,87.1788 187.058,90.8455 187.5,94.5C 188.5,94.5 189.5,94.5 190.5,94.5C 190.334,98.5138 190.501,102.514 191,106.5C 192,107.5 193,108.5 194,109.5C 194.713,116.203 194.546,122.87 193.5,129.5C 186.91,129.811 180.41,129.478 174,128.5C 172.958,124.241 172.125,119.907 171.5,115.5C 170.914,115.291 170.414,114.957 170,114.5C 169.501,110.179 169.334,105.846 169.5,101.5C 168.178,101.67 167.011,101.337 166,100.5C 164.28,96.0185 163.114,91.3518 162.5,86.5C 161.178,86.67 160.011,86.3366 159,85.5C 158.505,83.5273 158.338,81.5273 158.5,79.5C 157.178,79.67 156.011,79.3366 155,78.5C 152.279,74.213 149.445,70.0463 146.5,66C 143.315,64.5935 140.315,63.0935 137.5,61.5C 137.5,60.5 137.5,59.5 137.5,58.5C 135.473,58.6621 133.473,58.4955 131.5,58C 130.663,56.9887 130.33,55.8221 130.5,54.5C 121.833,54.5 113.167,54.5 104.5,54.5C 104.67,55.8221 104.337,56.9887 103.5,58C 101.527,58.4955 99.5273,58.6621 97.5,58.5C 97.5,59.5 97.5,60.5 97.5,61.5C 93.6513,61.8862 90.318,63.2195 87.5,65.5C 87.8333,68.5 86.5,69.8333 83.5,69.5C 84.1128,72.9694 82.7794,74.9694 79.5,75.5C 79.5,76.8333 79.5,78.1667 79.5,79.5C 78.5,79.5 77.5,79.5 76.5,79.5C 76.3259,81.861 75.9926,84.1944 75.5,86.5C 74.5,86.5 73.5,86.5 72.5,86.5C 71.3854,91.0669 70.2188,95.7335 69,100.5C 67.9887,101.337 66.8221,101.67 65.5,101.5C 65.665,104.85 65.4983,108.183 65,111.5C 64.5814,112.672 63.9147,113.672 63,114.5C 61.0332,132.834 61.0332,151.168 63,169.5C 63.9147,170.328 64.5814,171.328 65,172.5C 65.4986,176.152 65.6653,179.818 65.5,183.5C 66.8221,183.33 67.9887,183.663 69,184.5C 70.2188,189.266 71.3854,193.933 72.5,198.5C 73.675,198.281 74.675,198.614 75.5,199.5C 76.503,202.84 78.003,205.84 80,208.5C 82.7548,210.01 83.9215,212.343 83.5,215.5C 86.5,215.167 87.8333,216.5 87.5,219.5C 89.9443,221.702 92.9443,222.869 96.5,223C 97.3366,224.011 97.67,225.178 97.5,226.5C 103.836,228.504 110.503,229.837 117.5,230.5C 121.787,229.625 126.121,229.292 130.5,229.5C 130.5,228.5 130.5,227.5 130.5,226.5C 132.833,226.5 135.167,226.5 137.5,226.5C 137.5,225.167 137.5,223.833 137.5,222.5C 140.673,221.687 143.673,220.353 146.5,218.5C 149.796,214.395 152.63,210.062 155,205.5C 156.011,204.663 157.178,204.33 158.5,204.5C 157.971,201.396 158.971,199.063 161.5,197.5C 161.976,194.816 162.976,192.483 164.5,190.5C 165.474,188.257 165.808,185.924 165.5,183.5C 166.833,183.5 168.167,183.5 169.5,183.5C 169.334,179.154 169.501,174.821 170,170.5C 170.414,170.043 170.914,169.709 171.5,169.5C 172.347,164.846 173.013,160.179 173.5,155.5C 179.13,154.479 184.796,154.313 190.5,155C 192.061,155.318 193.228,156.151 194,157.5C 194.667,163.5 194.667,169.5 194,175.5C 193,176.167 192,176.833 191,177.5C 190.501,181.821 190.334,186.154 190.5,190.5C 189.5,190.5 188.5,190.5 187.5,190.5C 187.326,193.874 186.826,197.207 186,200.5C 184.048,202.337 183.048,204.671 183,207.5C 181.989,208.337 180.822,208.67 179.5,208.5C 179.5,210.833 179.5,213.167 179.5,215.5C 178.5,215.5 177.5,215.5 176.5,215.5C 176.833,218.5 175.5,219.833 172.5,219.5C 172.662,221.527 172.495,223.527 172,225.5C 170.294,226.308 169.461,227.641 169.5,229.5C 168.167,229.5 166.833,229.5 165.5,229.5C 165.5,230.833 165.5,232.167 165.5,233.5C 164.167,233.5 162.833,233.5 161.5,233.5C 161.5,234.5 161.5,235.5 161.5,236.5C 160.5,236.5 159.5,236.5 158.5,236.5C 158.5,237.833 158.5,239.167 158.5,240.5C 155.247,242.612 151.58,243.945 147.5,244.5C 147.5,245.5 147.5,246.5 147.5,247.5C 145.076,247.192 142.743,247.526 140.5,248.5C 139.91,249.799 138.91,250.632 137.5,251C 124.167,251.667 110.833,251.667 97.5,251C 94.973,247.881 91.6396,246.715 87.5,247.5C 87.5,246.5 87.5,245.5 87.5,244.5C 84.755,244.627 82.755,243.46 81.5,241C 79.8659,240.506 78.1992,240.34 76.5,240.5C 76.5,239.167 76.5,237.833 76.5,236.5C 75.1667,236.5 73.8333,236.5 72.5,236.5C 72.5,235.5 72.5,234.5 72.5,233.5C 71.5,233.5 70.5,233.5 69.5,233.5C 69.5,232.167 69.5,230.833 69.5,229.5C 68.1667,229.5 66.8333,229.5 65.5,229.5C 63.5333,226.589 62.5333,223.256 62.5,219.5C 59.5,219.833 58.1667,218.5 58.5,215.5C 57.5,215.5 56.5,215.5 55.5,215.5C 54.075,210.75 52.575,206.083 51,201.5C 47.9658,198.539 46.7992,194.872 47.5,190.5C 46.5,190.5 45.5,190.5 44.5,190.5C 44.8256,186.116 44.4922,181.783 43.5,177.5C 42.5224,177.023 41.6891,176.357 41,175.5C 40.1669,153.159 40.3336,130.826 41.5,108.5C 42.4776,108.023 43.3109,107.357 44,106.5C 44.4988,102.514 44.6655,98.5138 44.5,94.5C 45.5,94.5 46.5,94.5 47.5,94.5C 47.3359,91.8127 47.5026,89.146 48,86.5C 48.3678,85.09 49.2011,84.09 50.5,83.5C 51.4742,81.2573 51.8076,78.924 51.5,76.5C 52.5,76.5 53.5,76.5 54.5,76.5C 54.9926,74.1944 55.3259,71.861 55.5,69.5C 56.5,69.5 57.5,69.5 58.5,69.5C 58.5,68.1667 58.5,66.8333 58.5,65.5C 59.8333,65.5 61.1667,65.5 62.5,65.5C 62.3379,63.4727 62.5045,61.4727 63,59.5C 64.7058,58.6921 65.5391,57.3588 65.5,55.5C 68.5,55.8333 69.8333,54.5 69.5,51.5C 70.5,51.5 71.5,51.5 72.5,51.5C 72.1667,48.5 73.5,47.1667 76.5,47.5C 76.5,46.5 76.5,45.5 76.5,44.5C 79.5959,45.0934 81.9292,44.0934 83.5,41.5C 84.6888,40.5713 86.0222,40.238 87.5,40.5C 87.5,39.5 87.5,38.5 87.5,37.5C 91.7311,38.0193 95.0644,36.686 97.5,33.5 Z"/></g>
<g><path style="opacity:0.623" fill="#fefffe" d="M 359.5,33.5 C 373.504,33.3334 387.504,33.5001 401.5,34C 402.91,34.3678 403.91,35.2011 404.5,36.5C 406.743,37.4742 409.076,37.8076 411.5,37.5C 411.5,38.5 411.5,39.5 411.5,40.5C 414.245,40.373 416.245,41.5397 417.5,44C 419.134,44.4935 420.801,44.6602 422.5,44.5C 422.5,45.5 422.5,46.5 422.5,47.5C 425.5,47.1667 426.833,48.5 426.5,51.5C 427.5,51.5 428.5,51.5 429.5,51.5C 429.167,54.5 430.5,55.8333 433.5,55.5C 433.461,57.3588 434.294,58.6921 436,59.5C 436.495,61.4727 436.662,63.4727 436.5,65.5C 437.833,65.5 439.167,65.5 440.5,65.5C 440.5,66.8333 440.5,68.1667 440.5,69.5C 441.5,69.5 442.5,69.5 443.5,69.5C 443.674,71.861 444.007,74.1944 444.5,76.5C 445.5,76.5 446.5,76.5 447.5,76.5C 447.192,78.924 447.526,81.2573 448.5,83.5C 449.971,84.3805 450.804,85.7139 451,87.5C 451.497,89.8098 451.663,92.1432 451.5,94.5C 452.5,94.5 453.5,94.5 454.5,94.5C 454.5,99.1667 454.5,103.833 454.5,108.5C 455.822,108.33 456.989,108.663 458,109.5C 458.667,131.5 458.667,153.5 458,175.5C 456.989,176.337 455.822,176.67 454.5,176.5C 454.5,181.167 454.5,185.833 454.5,190.5C 453.5,190.5 452.5,190.5 451.5,190.5C 451.54,193.881 451.207,197.214 450.5,200.5C 449.5,200.5 448.5,200.5 447.5,200.5C 447.663,202.857 447.497,205.19 447,207.5C 444.741,209.246 443.408,211.58 443,214.5C 441.325,215.595 440.158,217.095 439.5,219C 438.552,219.483 437.552,219.649 436.5,219.5C 436.467,223.256 435.467,226.589 433.5,229.5C 432.167,229.5 430.833,229.5 429.5,229.5C 429.5,230.833 429.5,232.167 429.5,233.5C 428.5,233.5 427.5,233.5 426.5,233.5C 426.5,234.5 426.5,235.5 426.5,236.5C 425.167,236.5 423.833,236.5 422.5,236.5C 422.5,237.833 422.5,239.167 422.5,240.5C 420.167,240.5 417.833,240.5 415.5,240.5C 415.5,241.833 415.5,243.167 415.5,244.5C 414.167,244.5 412.833,244.5 411.5,244.5C 411.5,245.5 411.5,246.5 411.5,247.5C 407.36,246.715 404.027,247.881 401.5,251C 387.833,251.667 374.167,251.667 360.5,251C 359.027,250.29 358.36,249.124 358.5,247.5C 356.167,247.5 353.833,247.5 351.5,247.5C 351.5,246.5 351.5,245.5 351.5,244.5C 347.42,243.945 343.753,242.612 340.5,240.5C 340.5,239.167 340.5,237.833 340.5,236.5C 339.5,236.5 338.5,236.5 337.5,236.5C 337.5,235.5 337.5,234.5 337.5,233.5C 336.167,233.5 334.833,233.5 333.5,233.5C 333.5,232.167 333.5,230.833 333.5,229.5C 332.167,229.5 330.833,229.5 329.5,229.5C 327.654,224.513 325.321,219.846 322.5,215.5C 321.5,215.5 320.5,215.5 319.5,215.5C 319.5,213.167 319.5,210.833 319.5,208.5C 318.167,208.5 316.833,208.5 315.5,208.5C 313.348,202.871 312.015,196.871 311.5,190.5C 310.5,190.5 309.5,190.5 308.5,190.5C 308.666,186.154 308.499,181.821 308,177.5C 307,176.833 306,176.167 305,175.5C 304.333,169.5 304.333,163.5 305,157.5C 305.772,156.151 306.939,155.318 308.5,155C 314.204,154.313 319.87,154.479 325.5,155.5C 325.987,160.179 326.653,164.846 327.5,169.5C 328.086,169.709 328.586,170.043 329,170.5C 329.499,174.821 329.666,179.154 329.5,183.5C 330.833,183.5 332.167,183.5 333.5,183.5C 333.192,185.924 333.526,188.257 334.5,190.5C 336.024,192.483 337.024,194.816 337.5,197.5C 340.029,199.063 341.029,201.396 340.5,204.5C 341.822,204.33 342.989,204.663 344,205.5C 346.37,210.062 349.204,214.395 352.5,218.5C 355.327,220.353 358.327,221.687 361.5,222.5C 361.5,223.833 361.5,225.167 361.5,226.5C 363.833,226.5 366.167,226.5 368.5,226.5C 368.5,227.5 368.5,228.5 368.5,229.5C 372.879,229.292 377.213,229.625 381.5,230.5C 388.497,229.837 395.164,228.504 401.5,226.5C 401.33,225.178 401.663,224.011 402.5,223C 406.056,222.869 409.056,221.702 411.5,219.5C 411.167,216.5 412.5,215.167 415.5,215.5C 415.825,210.861 417.825,207.194 421.5,204.5C 422.318,202.892 422.985,201.225 423.5,199.5C 424.325,198.614 425.325,198.281 426.5,198.5C 427.114,193.648 428.28,188.982 430,184.5C 431.011,183.663 432.178,183.33 433.5,183.5C 433.335,179.818 433.501,176.152 434,172.5C 434.419,171.328 435.085,170.328 436,169.5C 436.578,160.338 437.078,151.171 437.5,142C 437.273,128.256 435.939,114.756 433.5,101.5C 432.178,101.67 431.011,101.337 430,100.5C 428.781,95.7335 427.615,91.0669 426.5,86.5C 425.5,86.5 424.5,86.5 423.5,86.5C 423.007,84.1944 422.674,81.861 422.5,79.5C 421.5,79.5 420.5,79.5 419.5,79.5C 419.5,78.1667 419.5,76.8333 419.5,75.5C 418.5,75.5 417.5,75.5 416.5,75.5C 416.167,73.5 415.833,71.5 415.5,69.5C 412.5,69.8333 411.167,68.5 411.5,65.5C 408.682,63.2195 405.349,61.8862 401.5,61.5C 401.5,60.5 401.5,59.5 401.5,58.5C 399.473,58.6621 397.473,58.4955 395.5,58C 394.663,56.9887 394.33,55.8221 394.5,54.5C 385.833,54.5 377.167,54.5 368.5,54.5C 368.67,55.8221 368.337,56.9887 367.5,58C 365.527,58.4955 363.527,58.6621 361.5,58.5C 361.5,59.5 361.5,60.5 361.5,61.5C 358.438,62.6922 355.438,64.1922 352.5,66C 349.555,70.0463 346.721,74.213 344,78.5C 342.989,79.3366 341.822,79.67 340.5,79.5C 340.662,81.5273 340.495,83.5273 340,85.5C 338.989,86.3366 337.822,86.67 336.5,86.5C 336.5,88.8333 336.5,91.1667 336.5,93.5C 335.5,93.5 334.5,93.5 333.5,93.5C 333.663,95.8568 333.497,98.1902 333,100.5C 331.989,101.337 330.822,101.67 329.5,101.5C 329.666,105.846 329.499,110.179 329,114.5C 328.586,114.957 328.086,115.291 327.5,115.5C 326.875,119.907 326.042,124.241 325,128.5C 318.59,129.478 312.09,129.811 305.5,129.5C 304.454,122.87 304.287,116.203 305,109.5C 306,108.5 307,107.5 308,106.5C 308.499,102.514 308.666,98.5138 308.5,94.5C 309.5,94.5 310.5,94.5 311.5,94.5C 312.114,90.8648 312.448,87.1981 312.5,83.5C 313.5,83.5 314.5,83.5 315.5,83.5C 315.5,81.1667 315.5,78.8333 315.5,76.5C 316.833,76.5 318.167,76.5 319.5,76.5C 319.5,74.1667 319.5,71.8333 319.5,69.5C 320.5,69.5 321.5,69.5 322.5,69.5C 322.373,66.755 323.54,64.755 326,63.5C 326.494,61.8659 326.66,60.1992 326.5,58.5C 327.5,58.5 328.5,58.5 329.5,58.5C 330.833,56.1667 332.167,53.8333 333.5,51.5C 334.833,51.5 336.167,51.5 337.5,51.5C 337.5,50.1667 337.5,48.8333 337.5,47.5C 338.5,47.5 339.5,47.5 340.5,47.5C 340.5,46.5 340.5,45.5 340.5,44.5C 341.833,44.5 343.167,44.5 344.5,44.5C 344.5,43.5 344.5,42.5 344.5,41.5C 346.806,41.0074 349.139,40.6741 351.5,40.5C 351.5,39.5 351.5,38.5 351.5,37.5C 353.833,37.5 356.167,37.5 358.5,37.5C 358.433,36.0413 358.766,34.7079 359.5,33.5 Z"/></g>
<g><path style="opacity:0.665" fill="#fefffe" d="M 91.5,104.5 C 98.8409,104.334 106.174,104.5 113.5,105C 114.973,105.71 115.64,106.876 115.5,108.5C 116.873,108.343 118.207,108.51 119.5,109C 120.583,111.056 122.25,112.389 124.5,113C 126.016,114.897 126.683,117.064 126.5,119.5C 127.5,119.5 128.5,119.5 129.5,119.5C 129.5,120.5 129.5,121.5 129.5,122.5C 132.5,122.167 133.833,123.5 133.5,126.5C 134.5,126.5 135.5,126.5 136.5,126.5C 136.5,127.5 136.5,128.5 136.5,129.5C 139.798,129.016 142.464,130.016 144.5,132.5C 166.492,133.333 188.492,133.833 210.5,134C 211.337,135.011 211.67,136.178 211.5,137.5C 213.527,137.338 215.527,137.505 217.5,138C 218.595,139.675 220.095,140.842 222,141.5C 222.483,142.448 222.649,143.448 222.5,144.5C 223.5,144.5 224.5,144.5 225.5,144.5C 225.993,146.806 226.326,149.139 226.5,151.5C 227.5,151.5 228.5,151.5 229.5,151.5C 229.667,164.171 229.5,176.838 229,189.5C 226.835,191.653 226.002,194.319 226.5,197.5C 225.167,197.5 223.833,197.5 222.5,197.5C 222.5,199.833 222.5,202.167 222.5,204.5C 221.5,204.5 220.5,204.5 219.5,204.5C 219.682,206.591 219.348,208.591 218.5,210.5C 217.675,211.386 216.675,211.719 215.5,211.5C 214.534,215.407 213.201,219.073 211.5,222.5C 210.5,222.5 209.5,222.5 208.5,222.5C 208.662,224.527 208.495,226.527 208,228.5C 206.989,229.337 205.822,229.67 204.5,229.5C 204.725,231.716 203.892,233.383 202,234.5C 201.505,236.473 201.338,238.473 201.5,240.5C 200.167,240.5 198.833,240.5 197.5,240.5C 197.662,242.527 197.495,244.527 197,246.5C 195.078,248.77 193.245,251.104 191.5,253.5C 190.548,255.045 190.215,256.712 190.5,258.5C 189.5,258.5 188.5,258.5 187.5,258.5C 187.007,260.806 186.674,263.139 186.5,265.5C 185.5,265.5 184.5,265.5 183.5,265.5C 183.5,267.833 183.5,270.167 183.5,272.5C 182.167,272.5 180.833,272.5 179.5,272.5C 179.5,276.167 179.5,279.833 179.5,283.5C 178.5,283.5 177.5,283.5 176.5,283.5C 176.334,293.839 176.5,304.172 177,314.5C 178.892,315.617 179.725,317.284 179.5,319.5C 180.833,319.5 182.167,319.5 183.5,319.5C 183.5,317.167 183.5,314.833 183.5,312.5C 184.833,312.5 186.167,312.5 187.5,312.5C 187.337,310.143 187.503,307.81 188,305.5C 189.706,304.692 190.539,303.359 190.5,301.5C 191.833,301.5 193.167,301.5 194.5,301.5C 194.34,299.801 194.506,298.134 195,296.5C 197.158,295.174 198.992,293.507 200.5,291.5C 201.736,290.754 203.07,290.421 204.5,290.5C 204.5,289.5 204.5,288.5 204.5,287.5C 205.833,287.5 207.167,287.5 208.5,287.5C 208.5,286.167 208.5,284.833 208.5,283.5C 210.833,283.5 213.167,283.5 215.5,283.5C 215.281,282.325 215.614,281.325 216.5,280.5C 219.787,280.017 222.787,278.85 225.5,277C 241.5,276.333 257.5,276.333 273.5,277C 276.213,278.85 279.213,280.017 282.5,280.5C 283.386,281.325 283.719,282.325 283.5,283.5C 285.833,283.5 288.167,283.5 290.5,283.5C 290.5,284.833 290.5,286.167 290.5,287.5C 291.833,287.5 293.167,287.5 294.5,287.5C 294.5,288.5 294.5,289.5 294.5,290.5C 295.93,290.421 297.264,290.754 298.5,291.5C 300.008,293.507 301.842,295.174 304,296.5C 304.494,298.134 304.66,299.801 304.5,301.5C 305.833,301.5 307.167,301.5 308.5,301.5C 308.461,303.359 309.294,304.692 311,305.5C 311.497,307.81 311.663,310.143 311.5,312.5C 312.833,312.5 314.167,312.5 315.5,312.5C 315.5,314.833 315.5,317.167 315.5,319.5C 316.833,319.5 318.167,319.5 319.5,319.5C 319.275,317.284 320.108,315.617 322,314.5C 322.5,304.172 322.666,293.839 322.5,283.5C 321.5,283.5 320.5,283.5 319.5,283.5C 319.5,279.833 319.5,276.167 319.5,272.5C 318.167,272.5 316.833,272.5 315.5,272.5C 315.5,270.167 315.5,267.833 315.5,265.5C 314.5,265.5 313.5,265.5 312.5,265.5C 312.682,263.409 312.348,261.409 311.5,259.5C 310.675,258.614 309.675,258.281 308.5,258.5C 308.662,256.473 308.495,254.473 308,252.5C 305.667,250.843 303.667,248.843 302,246.5C 301.505,244.527 301.338,242.527 301.5,240.5C 300.167,240.5 298.833,240.5 297.5,240.5C 297.5,238.167 297.5,235.833 297.5,233.5C 296.5,233.5 295.5,233.5 294.5,233.5C 294.5,232.167 294.5,230.833 294.5,229.5C 293.178,229.67 292.011,229.337 291,228.5C 290.505,226.527 290.338,224.527 290.5,222.5C 289.5,222.5 288.5,222.5 287.5,222.5C 285.799,219.073 284.466,215.407 283.5,211.5C 282.5,211.5 281.5,211.5 280.5,211.5C 280.007,209.194 279.674,206.861 279.5,204.5C 278.5,204.5 277.5,204.5 276.5,204.5C 276.5,202.167 276.5,199.833 276.5,197.5C 275.167,197.5 273.833,197.5 272.5,197.5C 272.998,194.319 272.165,191.653 270,189.5C 269.5,176.838 269.333,164.171 269.5,151.5C 270.5,151.5 271.5,151.5 272.5,151.5C 272.704,147.26 274.371,143.76 277.5,141C 279.291,140.585 280.624,139.585 281.5,138C 283.473,137.505 285.473,137.338 287.5,137.5C 287.33,136.178 287.663,135.011 288.5,134C 310.508,133.833 332.508,133.333 354.5,132.5C 356.536,130.016 359.202,129.016 362.5,129.5C 362.5,128.5 362.5,127.5 362.5,126.5C 363.5,126.5 364.5,126.5 365.5,126.5C 365.167,123.5 366.5,122.167 369.5,122.5C 369.5,121.5 369.5,120.5 369.5,119.5C 370.5,119.5 371.5,119.5 372.5,119.5C 372.372,117.345 372.872,115.345 374,113.5C 376.362,112.648 378.195,111.148 379.5,109C 380.793,108.51 382.127,108.343 383.5,108.5C 383.33,107.178 383.663,106.011 384.5,105C 392.167,104.333 399.833,104.333 407.5,105C 408.475,110.741 408.808,116.575 408.5,122.5C 406.167,122.5 403.833,122.5 401.5,122.5C 401.67,123.822 401.337,124.989 400.5,126C 398.5,126.333 396.5,126.667 394.5,127C 393.692,128.706 392.359,129.539 390.5,129.5C 390.5,130.833 390.5,132.167 390.5,133.5C 394.167,133.5 397.833,133.5 401.5,133.5C 401.808,139.425 401.475,145.259 400.5,151C 387.504,151.5 374.504,151.667 361.5,151.5C 362.833,153.833 364.167,156.167 365.5,158.5C 367.833,158.5 370.167,158.5 372.5,158.5C 372.5,159.833 372.5,161.167 372.5,162.5C 374.833,162.5 377.167,162.5 379.5,162.5C 379.5,168.167 379.5,173.833 379.5,179.5C 371.167,179.5 362.833,179.5 354.5,179.5C 354.5,178.5 354.5,177.5 354.5,176.5C 350.996,175.188 347.83,173.188 345,170.5C 344.506,168.866 344.34,167.199 344.5,165.5C 343.167,165.5 341.833,165.5 340.5,165.5C 340.5,164.167 340.5,162.833 340.5,161.5C 339.5,161.5 338.5,161.5 337.5,161.5C 337.5,160.5 337.5,159.5 337.5,158.5C 336.167,158.5 334.833,158.5 333.5,158.5C 333.5,157.167 333.5,155.833 333.5,154.5C 331.167,154.5 328.833,154.5 326.5,154.5C 326.5,153.5 326.5,152.5 326.5,151.5C 316.495,151.354 306.828,152.354 297.5,154.5C 297.5,155.833 297.5,157.167 297.5,158.5C 295.005,159.199 292.672,160.199 290.5,161.5C 290.5,167.833 290.5,174.167 290.5,180.5C 291.5,180.5 292.5,180.5 293.5,180.5C 294.387,185.365 295.72,190.031 297.5,194.5C 298.675,194.281 299.675,194.614 300.5,195.5C 301.348,197.409 301.682,199.409 301.5,201.5C 302.5,201.5 303.5,201.5 304.5,201.5C 304.5,203.833 304.5,206.167 304.5,208.5C 305.833,208.5 307.167,208.5 308.5,208.5C 308.5,209.833 308.5,211.167 308.5,212.5C 309.5,212.5 310.5,212.5 311.5,212.5C 311.5,214.833 311.5,217.167 311.5,219.5C 312.833,219.5 314.167,219.5 315.5,219.5C 315.5,221.833 315.5,224.167 315.5,226.5C 316.833,226.5 318.167,226.5 319.5,226.5C 319.5,227.833 319.5,229.167 319.5,230.5C 320.5,230.5 321.5,230.5 322.5,230.5C 322.5,232.833 322.5,235.167 322.5,237.5C 323.833,237.5 325.167,237.5 326.5,237.5C 326.5,239.833 326.5,242.167 326.5,244.5C 327.5,244.5 328.5,244.5 329.5,244.5C 328.907,247.596 329.907,249.929 332.5,251.5C 332.976,254.184 333.976,256.517 335.5,258.5C 336.474,260.743 336.808,263.076 336.5,265.5C 337.833,265.5 339.167,265.5 340.5,265.5C 340.5,269.167 340.5,272.833 340.5,276.5C 341.822,276.33 342.989,276.663 344,277.5C 344.273,284.853 344.773,292.187 345.5,299.5C 344.779,306.48 344.279,313.48 344,320.5C 343.29,321.973 342.124,322.64 340.5,322.5C 340.5,324.833 340.5,327.167 340.5,329.5C 339.167,329.5 337.833,329.5 336.5,329.5C 335.384,332.556 333.884,335.556 332,338.5C 330.416,339.861 328.582,340.528 326.5,340.5C 326.649,341.552 326.483,342.552 326,343.5C 324.095,344.158 322.595,345.325 321.5,347C 319.527,347.495 317.527,347.662 315.5,347.5C 314.167,354.5 312.833,361.5 311.5,368.5C 310.5,368.5 309.5,368.5 308.5,368.5C 308.663,370.857 308.497,373.19 308,375.5C 306.989,376.337 305.822,376.67 304.5,376.5C 304.5,378.833 304.5,381.167 304.5,383.5C 303.5,383.5 302.5,383.5 301.5,383.5C 301.662,385.527 301.495,387.527 301,389.5C 299.989,390.337 298.822,390.67 297.5,390.5C 295.167,395.167 292.833,399.833 290.5,404.5C 289.167,404.5 287.833,404.5 286.5,404.5C 286.5,405.833 286.5,407.167 286.5,408.5C 285.5,408.5 284.5,408.5 283.5,408.5C 283.5,409.5 283.5,410.5 283.5,411.5C 282.167,411.5 280.833,411.5 279.5,411.5C 279.5,412.833 279.5,414.167 279.5,415.5C 276.956,415.104 274.789,415.771 273,417.5C 272.5,433.497 272.333,449.497 272.5,465.5C 266.575,465.808 260.741,465.475 255,464.5C 254.5,450.504 254.333,436.504 254.5,422.5C 251.167,422.5 247.833,422.5 244.5,422.5C 244.667,436.504 244.5,450.504 244,464.5C 238.259,465.475 232.425,465.808 226.5,465.5C 226.667,449.497 226.5,433.497 226,417.5C 224.509,415.996 222.676,415.163 220.5,415C 219.663,413.989 219.33,412.822 219.5,411.5C 218.167,411.5 216.833,411.5 215.5,411.5C 215.5,410.5 215.5,409.5 215.5,408.5C 214.5,408.5 213.5,408.5 212.5,408.5C 212.5,407.167 212.5,405.833 212.5,404.5C 211.167,404.5 209.833,404.5 208.5,404.5C 206.167,399.833 203.833,395.167 201.5,390.5C 200.325,390.719 199.325,390.386 198.5,389.5C 197.652,387.591 197.318,385.591 197.5,383.5C 196.5,383.5 195.5,383.5 194.5,383.5C 194.5,381.167 194.5,378.833 194.5,376.5C 193.178,376.67 192.011,376.337 191,375.5C 190.503,373.19 190.337,370.857 190.5,368.5C 189.5,368.5 188.5,368.5 187.5,368.5C 186.167,361.5 184.833,354.5 183.5,347.5C 181.473,347.662 179.473,347.495 177.5,347C 176.405,345.325 174.905,344.158 173,343.5C 172.517,342.552 172.351,341.552 172.5,340.5C 170.418,340.528 168.584,339.861 167,338.5C 165.116,335.556 163.616,332.556 162.5,329.5C 161.167,329.5 159.833,329.5 158.5,329.5C 158.5,327.167 158.5,324.833 158.5,322.5C 156.876,322.64 155.71,321.973 155,320.5C 154.333,306.167 154.333,291.833 155,277.5C 156.011,276.663 157.178,276.33 158.5,276.5C 158.5,272.833 158.5,269.167 158.5,265.5C 159.833,265.5 161.167,265.5 162.5,265.5C 162.5,263.167 162.5,260.833 162.5,258.5C 163.5,258.5 164.5,258.5 165.5,258.5C 165.5,256.167 165.5,253.833 165.5,251.5C 166.833,251.5 168.167,251.5 169.5,251.5C 169.5,249.167 169.5,246.833 169.5,244.5C 170.5,244.5 171.5,244.5 172.5,244.5C 172.5,242.167 172.5,239.833 172.5,237.5C 173.833,237.5 175.167,237.5 176.5,237.5C 176.5,235.167 176.5,232.833 176.5,230.5C 177.5,230.5 178.5,230.5 179.5,230.5C 179.5,229.167 179.5,227.833 179.5,226.5C 180.833,226.5 182.167,226.5 183.5,226.5C 183.5,224.167 183.5,221.833 183.5,219.5C 184.833,219.5 186.167,219.5 187.5,219.5C 187.5,217.167 187.5,214.833 187.5,212.5C 188.5,212.5 189.5,212.5 190.5,212.5C 190.5,211.167 190.5,209.833 190.5,208.5C 191.833,208.5 193.167,208.5 194.5,208.5C 194.5,206.167 194.5,203.833 194.5,201.5C 195.5,201.5 196.5,201.5 197.5,201.5C 197.318,199.409 197.652,197.409 198.5,195.5C 199.325,194.614 200.325,194.281 201.5,194.5C 203.28,190.031 204.613,185.365 205.5,180.5C 206.5,180.5 207.5,180.5 208.5,180.5C 208.5,174.167 208.5,167.833 208.5,161.5C 206.328,160.199 203.995,159.199 201.5,158.5C 201.5,157.167 201.5,155.833 201.5,154.5C 192.172,152.354 182.505,151.354 172.5,151.5C 172.5,152.5 172.5,153.5 172.5,154.5C 170.167,154.5 167.833,154.5 165.5,154.5C 165.5,155.833 165.5,157.167 165.5,158.5C 164.167,158.5 162.833,158.5 161.5,158.5C 161.5,159.5 161.5,160.5 161.5,161.5C 160.5,161.5 159.5,161.5 158.5,161.5C 158.5,162.833 158.5,164.167 158.5,165.5C 157.167,165.5 155.833,165.5 154.5,165.5C 154.66,167.199 154.494,168.866 154,170.5C 151.17,173.188 148.004,175.188 144.5,176.5C 144.5,177.5 144.5,178.5 144.5,179.5C 136.167,179.5 127.833,179.5 119.5,179.5C 119.5,173.833 119.5,168.167 119.5,162.5C 121.833,162.5 124.167,162.5 126.5,162.5C 126.5,161.167 126.5,159.833 126.5,158.5C 128.833,158.5 131.167,158.5 133.5,158.5C 134.833,156.167 136.167,153.833 137.5,151.5C 124.496,151.667 111.496,151.5 98.5,151C 97.5251,145.259 97.1918,139.425 97.5,133.5C 101.167,133.5 104.833,133.5 108.5,133.5C 108.5,132.167 108.5,130.833 108.5,129.5C 105.661,127.329 102.327,125.996 98.5,125.5C 96.5822,122.894 93.9156,121.894 90.5,122.5C 90.2114,116.409 90.5447,110.409 91.5,104.5 Z M 233.5,297.5 C 244.172,297.333 254.839,297.5 265.5,298C 265.998,299.158 266.831,299.991 268,300.5C 272.203,301.029 276.036,302.362 279.5,304.5C 279.167,307.5 280.5,308.833 283.5,308.5C 283.5,309.5 283.5,310.5 283.5,311.5C 284.833,311.5 286.167,311.5 287.5,311.5C 287.5,312.833 287.5,314.167 287.5,315.5C 288.5,315.5 289.5,315.5 290.5,315.5C 290.151,318.463 291.151,320.796 293.5,322.5C 294.498,332.144 294.832,341.81 294.5,351.5C 293.167,351.5 291.833,351.5 290.5,351.5C 289.272,356.42 288.105,361.42 287,366.5C 282.364,372.949 277.864,379.449 273.5,386C 272.852,387.44 272.519,388.94 272.5,390.5C 271.5,390.5 270.5,390.5 269.5,390.5C 269.5,391.833 269.5,393.167 269.5,394.5C 266.504,396.254 263.171,397.42 259.5,398C 258.663,399.011 258.33,400.178 258.5,401.5C 252.5,401.5 246.5,401.5 240.5,401.5C 240.67,400.178 240.337,399.011 239.5,398C 235.829,397.42 232.496,396.254 229.5,394.5C 229.5,393.167 229.5,391.833 229.5,390.5C 228.5,390.5 227.5,390.5 226.5,390.5C 226.628,388.345 226.128,386.345 225,384.5C 220.425,378.357 216.092,372.024 212,365.5C 210.28,361.018 209.114,356.352 208.5,351.5C 207.167,351.5 205.833,351.5 204.5,351.5C 204.168,341.81 204.502,332.144 205.5,322.5C 207.849,320.796 208.849,318.463 208.5,315.5C 209.5,315.5 210.5,315.5 211.5,315.5C 211.5,314.167 211.5,312.833 211.5,311.5C 212.833,311.5 214.167,311.5 215.5,311.5C 215.5,310.5 215.5,309.5 215.5,308.5C 218.5,308.833 219.833,307.5 219.5,304.5C 222.964,302.362 226.797,301.029 231,300.5C 232.31,299.87 233.144,298.87 233.5,297.5 Z"/></g>
</svg>
