<?xml version="1.0" encoding="UTF-8"?>
<!DOCTYPE svg PUBLIC "-//W3C//DTD SVG 1.1//EN" "http://www.w3.org/Graphics/SVG/1.1/DTD/svg11.dtd">
<svg xmlns="http://www.w3.org/2000/svg" version="1.1" width="500px" height="500px" style="shape-rendering:geometricPrecision; text-rendering:geometricPrecision; image-rendering:optimizeQuality; fill-rule:evenodd; clip-rule:evenodd" xmlns:xlink="http://www.w3.org/1999/xlink">
<g><path style="opacity:0.625" fill="#fefffe" d="M 175.5,45.5 C 180.179,45.3342 184.845,45.5008 189.5,46C 190.308,47.7058 191.641,48.5391 193.5,48.5C 193.5,49.5 193.5,50.5 193.5,51.5C 194.5,51.5 195.5,51.5 196.5,51.5C 196.5,52.5 196.5,53.5 196.5,54.5C 197.5,54.5 198.5,54.5 199.5,54.5C 199.5,55.5 199.5,56.5 199.5,57.5C 200.675,57.281 201.675,57.6143 202.5,58.5C 204.682,61.5476 206.849,64.5476 209,67.5C 209.483,68.448 209.649,69.448 209.5,70.5C 210.5,70.5 211.5,70.5 212.5,70.5C 212.5,71.5 212.5,72.5 212.5,73.5C 213.5,73.5 214.5,73.5 215.5,73.5C 215.5,74.5 215.5,75.5 215.5,76.5C 216.675,76.281 217.675,76.6143 218.5,77.5C 219.174,79.5165 220.341,81.1832 222,82.5C 222.49,83.7932 222.657,85.1266 222.5,86.5C 223.5,86.5 224.5,86.5 225.5,86.5C 225.461,88.3588 226.294,89.6921 228,90.5C 228.494,92.1341 228.66,93.8008 228.5,95.5C 229.5,95.5 230.5,95.5 231.5,95.5C 233.451,98.4662 234.784,101.8 235.5,105.5C 236.5,105.5 237.5,105.5 238.5,105.5C 238.5,107.5 238.5,109.5 238.5,111.5C 239.5,111.5 240.5,111.5 241.5,111.5C 241.5,113.5 241.5,115.5 241.5,117.5C 242.5,117.5 243.5,117.5 244.5,117.5C 244.5,119.833 244.5,122.167 244.5,124.5C 245.5,124.5 246.5,124.5 247.5,124.5C 247.5,127.5 247.5,130.5 247.5,133.5C 248.5,133.5 249.5,133.5 250.5,133.5C 250.5,136.833 250.5,140.167 250.5,143.5C 251.5,143.5 252.5,143.5 253.5,143.5C 254.609,160.475 254.776,177.475 254,194.5C 253.29,195.973 252.124,196.64 250.5,196.5C 250.5,199.833 250.5,203.167 250.5,206.5C 249.5,206.5 248.5,206.5 247.5,206.5C 247.5,209.5 247.5,212.5 247.5,215.5C 246.5,215.5 245.5,215.5 244.5,215.5C 243.957,219.015 242.957,222.348 241.5,225.5C 240.5,225.5 239.5,225.5 238.5,225.5C 238.5,227.5 238.5,229.5 238.5,231.5C 237.5,231.5 236.5,231.5 235.5,231.5C 235.167,233.5 234.833,235.5 234.5,237.5C 233.5,237.5 232.5,237.5 231.5,237.5C 231.5,238.833 231.5,240.167 231.5,241.5C 230.5,241.5 229.5,241.5 228.5,241.5C 228.5,243.5 228.5,245.5 228.5,247.5C 227.5,247.5 226.5,247.5 225.5,247.5C 225.5,248.5 225.5,249.5 225.5,250.5C 224.5,250.5 223.5,250.5 222.5,250.5C 222.662,252.527 222.495,254.527 222,256.5C 220.129,257.997 219.129,259.997 219,262.5C 215.956,263.803 214.789,266.136 215.5,269.5C 214.5,269.5 213.5,269.5 212.5,269.5C 212.662,271.527 212.495,273.527 212,275.5C 210.333,278.167 208.667,280.833 207,283.5C 206.667,286.5 206.333,289.5 206,292.5C 205.333,293.167 204.667,293.833 204,294.5C 203.667,298.5 203.333,302.5 203,306.5C 202.586,306.957 202.086,307.291 201.5,307.5C 200.667,320.821 200.167,334.154 200,347.5C 197.828,348.509 196.662,350.176 196.5,352.5C 192.5,352.5 188.5,352.5 184.5,352.5C 184.5,351.5 184.5,350.5 184.5,349.5C 183.5,349.5 182.5,349.5 181.5,349.5C 181.333,335.496 181.5,321.496 182,307.5C 182.667,306.833 183.333,306.167 184,305.5C 184.339,296.586 185.505,287.92 187.5,279.5C 188.5,279.5 189.5,279.5 190.5,279.5C 190.336,276.813 190.503,274.146 191,271.5C 192.657,267.225 194.824,263.225 197.5,259.5C 197.333,258.833 197.167,258.167 197,257.5C 195.535,259.915 193.368,260.915 190.5,260.5C 190.5,261.5 190.5,262.5 190.5,263.5C 189.448,263.351 188.448,263.517 187.5,264C 185.544,266.472 183.211,268.305 180.5,269.5C 180.5,270.5 180.5,271.5 180.5,272.5C 179.5,272.5 178.5,272.5 177.5,272.5C 177.5,273.5 177.5,274.5 177.5,275.5C 176.5,275.5 175.5,275.5 174.5,275.5C 172.98,279.681 169.98,282.015 165.5,282.5C 165.5,283.5 165.5,284.5 165.5,285.5C 163.328,286.801 160.995,287.801 158.5,288.5C 157.862,303.308 156.695,317.974 155,332.5C 154.586,332.957 154.086,333.291 153.5,333.5C 152.675,337.122 152.175,340.789 152,344.5C 150.333,347.5 148.667,350.5 147,353.5C 146.667,355.833 146.333,358.167 146,360.5C 144,363.167 142,365.833 140,368.5C 138.538,371.436 137.371,374.436 136.5,377.5C 135.5,377.5 134.5,377.5 133.5,377.5C 131.514,383.983 127.181,387.316 120.5,387.5C 120.5,388.5 120.5,389.5 120.5,390.5C 116.5,390.5 112.5,390.5 108.5,390.5C 108.5,389.5 108.5,388.5 108.5,387.5C 103.006,388.12 99.6723,385.787 98.5,380.5C 97.5,380.5 96.5,380.5 95.5,380.5C 94.1667,372.167 94.1667,363.833 95.5,355.5C 96.5,355.5 97.5,355.5 98.5,355.5C 98.4609,353.641 99.2942,352.308 101,351.5C 101.494,349.866 101.66,348.199 101.5,346.5C 102.833,346.5 104.167,346.5 105.5,346.5C 105.5,344.167 105.5,341.833 105.5,339.5C 106.5,339.5 107.5,339.5 108.5,339.5C 110.223,333.716 111.39,327.716 112,321.5C 112.414,321.043 112.914,320.709 113.5,320.5C 114.496,314.202 114.83,307.868 114.5,301.5C 103.495,301.667 92.495,301.5 81.5,301C 80.3826,299.108 78.7159,298.275 76.5,298.5C 76.5,297.5 76.5,296.5 76.5,295.5C 75.5,295.5 74.5,295.5 73.5,295.5C 73.5,294.5 73.5,293.5 73.5,292.5C 72.5,292.5 71.5,292.5 70.5,292.5C 70.5,290.167 70.5,287.833 70.5,285.5C 69.5,285.5 68.5,285.5 67.5,285.5C 67.3347,281.818 67.5014,278.152 68,274.5C 70.1651,272.347 70.9984,269.681 70.5,266.5C 71.5,266.5 72.5,266.5 73.5,266.5C 73.5,265.5 73.5,264.5 73.5,263.5C 74.5,263.5 75.5,263.5 76.5,263.5C 76.5,262.5 76.5,261.5 76.5,260.5C 91.5,260.5 106.5,260.5 121.5,260.5C 121.5,259.5 121.5,258.5 121.5,257.5C 124.5,257.5 127.5,257.5 130.5,257.5C 130.5,256.5 130.5,255.5 130.5,254.5C 132.527,254.662 134.527,254.495 136.5,254C 134.76,252.306 132.76,251.139 130.5,250.5C 130.5,249.5 130.5,248.5 130.5,247.5C 129.5,247.5 128.5,247.5 127.5,247.5C 127.5,246.5 127.5,245.5 127.5,244.5C 123.985,243.957 120.652,242.957 117.5,241.5C 117.5,240.5 117.5,239.5 117.5,238.5C 115.801,238.66 114.134,238.494 112.5,238C 110.991,236.076 108.991,234.909 106.5,234.5C 105.614,233.675 105.281,232.675 105.5,231.5C 102.167,231.5 98.8333,231.5 95.5,231.5C 95.5,230.5 95.5,229.5 95.5,228.5C 90.4889,228.666 85.4889,228.499 80.5,228C 80.0426,227.586 79.7093,227.086 79.5,226.5C 73.7756,226.005 68.4422,224.671 63.5,222.5C 63.5,221.5 63.5,220.5 63.5,219.5C 62.5,219.5 61.5,219.5 60.5,219.5C 60.7254,217.284 59.8921,215.617 58,214.5C 57.5006,208.843 57.3339,203.176 57.5,197.5C 58.5,197.5 59.5,197.5 60.5,197.5C 60.3379,195.473 60.5045,193.473 61,191.5C 62.4866,190.845 63.6533,189.845 64.5,188.5C 66.396,187.534 68.396,187.201 70.5,187.5C 70.5,186.5 70.5,185.5 70.5,184.5C 77.5316,184.17 84.5316,184.503 91.5,185.5C 91.7093,186.086 92.0426,186.586 92.5,187C 101.156,187.43 109.49,188.597 117.5,190.5C 117.5,191.5 117.5,192.5 117.5,193.5C 121.819,192.799 125.486,193.966 128.5,197C 130.134,197.494 131.801,197.66 133.5,197.5C 133.5,198.5 133.5,199.5 133.5,200.5C 135.5,200.5 137.5,200.5 139.5,200.5C 139.5,201.5 139.5,202.5 139.5,203.5C 142.455,205.386 145.789,206.386 149.5,206.5C 149.5,207.5 149.5,208.5 149.5,209.5C 150.5,209.5 151.5,209.5 152.5,209.5C 152.5,210.5 152.5,211.5 152.5,212.5C 155.969,211.887 157.969,213.221 158.5,216.5C 160.995,217.199 163.328,218.199 165.5,219.5C 165.5,220.5 165.5,221.5 165.5,222.5C 168.5,222.5 171.5,222.5 174.5,222.5C 174.5,221.5 174.5,220.5 174.5,219.5C 176.833,219.5 179.167,219.5 181.5,219.5C 181.5,218.5 181.5,217.5 181.5,216.5C 185.5,216.5 189.5,216.5 193.5,216.5C 193.33,215.178 193.663,214.011 194.5,213C 204.828,212.5 215.161,212.334 225.5,212.5C 225.5,211.5 225.5,210.5 225.5,209.5C 226.5,209.5 227.5,209.5 228.5,209.5C 230.269,205.13 231.435,200.463 232,195.5C 232.689,194.643 233.522,193.977 234.5,193.5C 235.327,189.541 235.827,185.541 236,181.5C 236.667,180.833 237.333,180.167 238,179.5C 238.499,173.509 238.666,167.509 238.5,161.5C 237.5,161.5 236.5,161.5 235.5,161.5C 235.5,156.5 235.5,151.5 235.5,146.5C 234.178,146.67 233.011,146.337 232,145.5C 231.502,142.518 231.335,139.518 231.5,136.5C 230.5,136.5 229.5,136.5 228.5,136.5C 227.142,132.288 226.142,127.955 225.5,123.5C 224.5,123.5 223.5,123.5 222.5,123.5C 222.5,121.5 222.5,119.5 222.5,117.5C 221.5,117.5 220.5,117.5 219.5,117.5C 219.5,115.5 219.5,113.5 219.5,111.5C 218.5,111.5 217.5,111.5 216.5,111.5C 216.394,108.892 215.228,106.892 213,105.5C 212.51,104.207 212.343,102.873 212.5,101.5C 211.5,101.5 210.5,101.5 209.5,101.5C 209.5,100.5 209.5,99.5 209.5,98.5C 208.5,98.5 207.5,98.5 206.5,98.5C 206.66,96.8008 206.494,95.1341 206,93.5C 204.294,92.6921 203.461,91.3588 203.5,89.5C 202.5,89.5 201.5,89.5 200.5,89.5C 200.5,88.1667 200.5,86.8333 200.5,85.5C 199.5,85.5 198.5,85.5 197.5,85.5C 197.5,84.5 197.5,83.5 197.5,82.5C 196.178,82.67 195.011,82.3366 194,81.5C 191.54,77.8839 189.374,74.2173 187.5,70.5C 186.5,70.5 185.5,70.5 184.5,70.5C 184.5,69.1667 184.5,67.8333 184.5,66.5C 183.5,66.5 182.5,66.5 181.5,66.5C 181.5,65.5 181.5,64.5 181.5,63.5C 179.005,62.8011 176.672,61.8011 174.5,60.5C 172.65,58.2605 171.65,55.5938 171.5,52.5C 171.833,51.1667 172.167,49.8333 172.5,48.5C 173.855,47.8118 174.855,46.8118 175.5,45.5 Z M 76.5,203.5 C 81.8333,203.5 87.1667,203.5 92.5,203.5C 92.5,204.5 92.5,205.5 92.5,206.5C 96.8333,206.5 101.167,206.5 105.5,206.5C 105.5,207.5 105.5,208.5 105.5,209.5C 108.187,209.336 110.854,209.503 113.5,210C 115.303,212.103 117.636,212.936 120.5,212.5C 120.5,213.5 120.5,214.5 120.5,215.5C 122.591,215.318 124.591,215.652 126.5,216.5C 127.386,217.325 127.719,218.325 127.5,219.5C 128.873,219.343 130.207,219.51 131.5,220C 135.718,224.237 140.718,227.07 146.5,228.5C 146.5,229.5 146.5,230.5 146.5,231.5C 147.5,231.5 148.5,231.5 149.5,231.5C 151.197,235.03 153.531,238.196 156.5,241C 157.448,241.483 158.448,241.649 159.5,241.5C 159.5,242.5 159.5,243.5 159.5,244.5C 164.5,244.5 169.5,244.5 174.5,244.5C 174.5,243.5 174.5,242.5 174.5,241.5C 176.604,241.799 178.604,241.466 180.5,240.5C 183.788,239.133 186.955,237.466 190,235.5C 192.137,234.923 194.304,234.59 196.5,234.5C 196.5,233.5 196.5,232.5 196.5,231.5C 201.833,231.5 207.167,231.5 212.5,231.5C 212.5,232.833 212.5,234.167 212.5,235.5C 205.531,237.685 198.198,238.685 190.5,238.5C 190.5,239.5 190.5,240.5 190.5,241.5C 188.5,241.5 186.5,241.5 184.5,241.5C 184.5,242.5 184.5,243.5 184.5,244.5C 180.744,244.533 177.411,245.533 174.5,247.5C 174.5,248.5 174.5,249.5 174.5,250.5C 169.648,253.675 165.315,257.675 161.5,262.5C 157.7,265.663 153.7,268.33 149.5,270.5C 149.5,271.5 149.5,272.5 149.5,273.5C 146.224,274.938 143.058,276.605 140,278.5C 139.897,296.051 138.73,313.385 136.5,330.5C 135.5,330.5 134.5,330.5 133.5,330.5C 132.121,336.729 131.121,343.063 130.5,349.5C 129.5,349.5 128.5,349.5 127.5,349.5C 127.5,351.5 127.5,353.5 127.5,355.5C 126.5,355.5 125.5,355.5 124.5,355.5C 125.211,358.864 124.044,361.197 121,362.5C 120.517,363.448 120.351,364.448 120.5,365.5C 119.5,365.5 118.5,365.5 117.5,365.5C 117.716,367.681 116.883,369.347 115,370.5C 114.833,369.5 114.667,368.5 114.5,367.5C 115.767,364.623 116.767,361.623 117.5,358.5C 118.5,358.5 119.5,358.5 120.5,358.5C 120.5,356.5 120.5,354.5 120.5,352.5C 121.5,352.5 122.5,352.5 123.5,352.5C 125.307,347.264 126.974,341.93 128.5,336.5C 129.086,336.291 129.586,335.957 130,335.5C 130.173,331.459 130.673,327.459 131.5,323.5C 132.086,323.291 132.586,322.957 133,322.5C 133.667,310.5 133.667,298.5 133,286.5C 128.098,282.82 122.598,281.653 116.5,283C 115.833,283.667 115.167,284.333 114.5,285C 109.177,285.499 103.844,285.666 98.5,285.5C 98.5,284.5 98.5,283.5 98.5,282.5C 94.3652,283.11 90.6986,282.277 87.5,280C 88.5596,278.702 89.7263,277.535 91,276.5C 92.1685,277.009 93.0019,277.842 93.5,279C 103.494,279.5 113.494,279.666 123.5,279.5C 123.5,278.5 123.5,277.5 123.5,276.5C 127.182,276.665 130.848,276.499 134.5,276C 136.525,274.323 138.859,273.323 141.5,273C 142.337,271.989 142.67,270.822 142.5,269.5C 144.5,269.5 146.5,269.5 148.5,269.5C 148.5,268.5 148.5,267.5 148.5,266.5C 149.833,266.5 151.167,266.5 152.5,266.5C 152.5,265.5 152.5,264.5 152.5,263.5C 153.5,263.5 154.5,263.5 155.5,263.5C 155.5,262.5 155.5,261.5 155.5,260.5C 156.5,260.5 157.5,260.5 158.5,260.5C 160.313,251.817 157.98,244.65 151.5,239C 148.46,238.404 145.794,237.237 143.5,235.5C 143.833,232.5 142.5,231.167 139.5,231.5C 139.5,230.5 139.5,229.5 139.5,228.5C 137.801,228.66 136.134,228.494 134.5,228C 133.692,226.294 132.359,225.461 130.5,225.5C 130.5,224.5 130.5,223.5 130.5,222.5C 128.167,222.5 125.833,222.5 123.5,222.5C 123.5,221.5 123.5,220.5 123.5,219.5C 121.5,219.5 119.5,219.5 117.5,219.5C 117.5,218.5 117.5,217.5 117.5,216.5C 113.414,217.154 110.081,215.988 107.5,213C 103.707,213.092 100.373,212.092 97.5,210C 91.5092,209.501 85.5092,209.334 79.5,209.5C 79.5,208.5 79.5,207.5 79.5,206.5C 78.5,206.5 77.5,206.5 76.5,206.5C 76.5,205.5 76.5,204.5 76.5,203.5 Z"/></g>
<g><path style="opacity:0.623" fill="#fefffe" d="M 216.5,45.5 C 221.179,45.3342 225.845,45.5008 230.5,46C 233.58,47.9912 235.246,50.8246 235.5,54.5C 236.5,54.5 237.5,54.5 238.5,54.5C 238.5,55.5 238.5,56.5 238.5,57.5C 239.5,57.5 240.5,57.5 241.5,57.5C 241.5,58.5 241.5,59.5 241.5,60.5C 242.5,60.5 243.5,60.5 244.5,60.5C 246.386,63.4554 247.386,66.7887 247.5,70.5C 248.5,70.5 249.5,70.5 250.5,70.5C 250.5,71.5 250.5,72.5 250.5,73.5C 251.5,73.5 252.5,73.5 253.5,73.5C 253.833,75.5 254.167,77.5 254.5,79.5C 255.5,79.5 256.5,79.5 257.5,79.5C 259.467,82.4107 260.467,85.744 260.5,89.5C 261.5,89.5 262.5,89.5 263.5,89.5C 263.5,91.5 263.5,93.5 263.5,95.5C 264.5,95.5 265.5,95.5 266.5,95.5C 266.5,97.5 266.5,99.5 266.5,101.5C 267.5,101.5 268.5,101.5 269.5,101.5C 269.5,103.833 269.5,106.167 269.5,108.5C 270.822,108.33 271.989,108.663 273,109.5C 274.405,116.366 278.738,119.032 286,117.5C 289.167,117.167 292.333,116.833 295.5,116.5C 296.527,114.976 298.027,114.309 300,114.5C 301.973,114.309 303.473,114.976 304.5,116.5C 310.798,117.496 317.132,117.83 323.5,117.5C 322.887,114.031 324.221,112.031 327.5,111.5C 327.5,110.5 327.5,109.5 327.5,108.5C 328.5,108.5 329.5,108.5 330.5,108.5C 330.5,107.5 330.5,106.5 330.5,105.5C 331.5,105.5 332.5,105.5 333.5,105.5C 333.351,104.448 333.517,103.448 334,102.5C 336.237,99.9876 338.737,97.8209 341.5,96C 343.134,95.5065 344.801,95.3398 346.5,95.5C 346.5,94.5 346.5,93.5 346.5,92.5C 347.5,92.5 348.5,92.5 349.5,92.5C 349.5,91.5 349.5,90.5 349.5,89.5C 351.5,89.5 353.5,89.5 355.5,89.5C 355.5,88.5 355.5,87.5 355.5,86.5C 361.795,84.235 368.128,82.0683 374.5,80C 381.191,79.8309 387.858,79.3309 394.5,78.5C 396.167,75.8333 397.833,75.8333 399.5,78.5C 402.768,79.487 406.102,79.8204 409.5,79.5C 409.5,80.5 409.5,81.5 409.5,82.5C 410.5,82.5 411.5,82.5 412.5,82.5C 412.351,83.552 412.517,84.552 413,85.5C 418.288,91.4065 419.955,98.4065 418,106.5C 415.558,110.145 412.725,113.478 409.5,116.5C 406.749,117.016 404.416,118.183 402.5,120C 397.136,120.171 391.802,120.671 386.5,121.5C 383.85,123.494 380.85,124.494 377.5,124.5C 377.5,125.5 377.5,126.5 377.5,127.5C 375.5,127.5 373.5,127.5 371.5,127.5C 371.5,128.5 371.5,129.5 371.5,130.5C 369.328,131.801 366.995,132.801 364.5,133.5C 364.5,134.5 364.5,135.5 364.5,136.5C 363.5,136.5 362.5,136.5 361.5,136.5C 361.5,137.5 361.5,138.5 361.5,139.5C 363.929,139.585 365.929,140.585 367.5,142.5C 369.743,143.474 372.076,143.808 374.5,143.5C 374.5,144.5 374.5,145.5 374.5,146.5C 383.167,146.5 391.833,146.5 400.5,146.5C 400.5,145.5 400.5,144.5 400.5,143.5C 403.5,143.5 406.5,143.5 409.5,143.5C 409.5,142.5 409.5,141.5 409.5,140.5C 415.13,139.479 420.796,139.313 426.5,140C 427.973,140.71 428.64,141.876 428.5,143.5C 430.5,143.5 432.5,143.5 434.5,143.5C 434.5,144.5 434.5,145.5 434.5,146.5C 435.5,146.5 436.5,146.5 437.5,146.5C 437.435,149.486 438.602,151.82 441,153.5C 441.667,158.167 441.667,162.833 441,167.5C 439.076,169.009 437.909,171.009 437.5,173.5C 436.675,174.386 435.675,174.719 434.5,174.5C 434.5,175.5 434.5,176.5 434.5,177.5C 433.5,177.5 432.5,177.5 431.5,177.5C 431.64,179.124 430.973,180.29 429.5,181C 424.267,183.548 418.6,185.048 412.5,185.5C 412.291,186.086 411.957,186.586 411.5,187C 402.506,187.5 393.506,187.666 384.5,187.5C 384.5,186.5 384.5,185.5 384.5,184.5C 381.535,184.27 380.202,182.603 380.5,179.5C 380.202,176.397 381.535,174.73 384.5,174.5C 384.5,173.5 384.5,172.5 384.5,171.5C 388.315,172.082 391.649,171.248 394.5,169C 399.489,168.501 404.489,168.334 409.5,168.5C 409.5,167.5 409.5,166.5 409.5,165.5C 412.833,165.5 416.167,165.5 419.5,165.5C 419.5,164.5 419.5,163.5 419.5,162.5C 420.5,162.5 421.5,162.5 422.5,162.5C 422.5,161.167 422.5,159.833 422.5,158.5C 418.181,157.799 414.514,158.966 411.5,162C 407.267,162.162 403.267,163.162 399.5,165C 390.5,165.667 381.5,165.667 372.5,165C 372.043,164.586 371.709,164.086 371.5,163.5C 368.5,162.833 365.5,162.167 362.5,161.5C 362.167,160.833 361.833,160.167 361.5,159.5C 357.24,158.691 353.24,157.357 349.5,155.5C 349.5,154.5 349.5,153.5 349.5,152.5C 345.953,151.141 342.786,149.141 340,146.5C 339.333,141.5 339.333,136.5 340,131.5C 341.706,130.692 342.539,129.359 342.5,127.5C 343.833,127.5 345.167,127.5 346.5,127.5C 346.5,126.5 346.5,125.5 346.5,124.5C 347.5,124.5 348.5,124.5 349.5,124.5C 349.5,123.167 349.5,121.833 349.5,120.5C 350.5,120.5 351.5,120.5 352.5,120.5C 352.5,119.5 352.5,118.5 352.5,117.5C 353.5,117.5 354.5,117.5 355.5,117.5C 355.5,116.5 355.5,115.5 355.5,114.5C 357.359,114.539 358.692,113.706 359.5,112C 361.473,111.505 363.473,111.338 365.5,111.5C 365.5,110.5 365.5,109.5 365.5,108.5C 367.5,108.5 369.5,108.5 371.5,108.5C 371.5,107.5 371.5,106.5 371.5,105.5C 374.85,105.665 378.183,105.498 381.5,105C 382.5,104 383.5,103 384.5,102C 388.833,101.667 393.167,101.333 397.5,101C 399.554,99.3179 399.221,97.6512 396.5,96C 393.648,95.0638 391.315,95.7305 389.5,98C 385.514,98.4988 381.514,98.6655 377.5,98.5C 377.5,99.5 377.5,100.5 377.5,101.5C 374.5,101.5 371.5,101.5 368.5,101.5C 368.5,102.5 368.5,103.5 368.5,104.5C 366.167,104.5 363.833,104.5 361.5,104.5C 361.5,105.833 361.5,107.167 361.5,108.5C 359.641,108.461 358.308,109.294 357.5,111C 355.866,111.494 354.199,111.66 352.5,111.5C 352.5,112.5 352.5,113.5 352.5,114.5C 351.5,114.5 350.5,114.5 349.5,114.5C 349.5,115.5 349.5,116.5 349.5,117.5C 347.328,118.801 344.995,119.801 342.5,120.5C 340.353,124.731 338.353,129.064 336.5,133.5C 335.5,133.5 334.5,133.5 333.5,133.5C 333.5,134.5 333.5,135.5 333.5,136.5C 326.167,136.5 318.833,136.5 311.5,136.5C 311.5,135.5 311.5,134.5 311.5,133.5C 304.8,133.17 298.134,133.503 291.5,134.5C 291.291,135.086 290.957,135.586 290.5,136C 287.854,136.497 285.187,136.664 282.5,136.5C 282.337,138.857 282.503,141.19 283,143.5C 283.483,142.552 283.649,141.552 283.5,140.5C 290.13,139.454 296.797,139.287 303.5,140C 304.337,141.011 304.67,142.178 304.5,143.5C 305.5,143.5 306.5,143.5 307.5,143.5C 307.5,144.5 307.5,145.5 307.5,146.5C 308.5,146.5 309.5,146.5 310.5,146.5C 311.104,158.15 311.771,169.816 312.5,181.5C 313.192,182.025 313.692,182.692 314,183.5C 314.17,189.528 314.67,195.528 315.5,201.5C 316.192,202.025 316.692,202.692 317,203.5C 317.499,207.821 317.666,212.154 317.5,216.5C 318.5,216.5 319.5,216.5 320.5,216.5C 320.5,220.5 320.5,224.5 320.5,228.5C 321.5,228.5 322.5,228.5 323.5,228.5C 323.665,232.182 323.499,235.848 323,239.5C 318.42,244.407 313.42,249.074 308,253.5C 307.517,254.448 307.351,255.448 307.5,256.5C 306.5,256.5 305.5,256.5 304.5,256.5C 304.5,257.833 304.5,259.167 304.5,260.5C 303.5,260.5 302.5,260.5 301.5,260.5C 301.5,261.5 301.5,262.5 301.5,263.5C 300.5,263.5 299.5,263.5 298.5,263.5C 298.5,264.5 298.5,265.5 298.5,266.5C 297.5,266.5 296.5,266.5 295.5,266.5C 295.799,268.604 295.466,270.604 294.5,272.5C 291.818,276.596 288.985,280.596 286,284.5C 285.503,286.81 285.337,289.143 285.5,291.5C 284.5,291.5 283.5,291.5 282.5,291.5C 282.5,293.833 282.5,296.167 282.5,298.5C 281.5,298.5 280.5,298.5 279.5,298.5C 279.824,302.555 279.491,306.555 278.5,310.5C 276.889,311.32 276.222,312.654 276.5,314.5C 278.5,314.5 280.5,314.5 282.5,314.5C 283.121,308.063 284.121,301.729 285.5,295.5C 286.5,295.5 287.5,295.5 288.5,295.5C 289.352,289.876 290.685,284.543 292.5,279.5C 293.5,279.5 294.5,279.5 295.5,279.5C 296.815,273.942 299.648,269.276 304,265.5C 305.009,263.975 305.509,262.308 305.5,260.5C 306.5,260.5 307.5,260.5 308.5,260.5C 308.5,259.5 308.5,258.5 308.5,257.5C 309.5,257.5 310.5,257.5 311.5,257.5C 311.5,256.5 311.5,255.5 311.5,254.5C 317.833,254.5 324.167,254.5 330.5,254.5C 330.5,255.5 330.5,256.5 330.5,257.5C 331.5,257.5 332.5,257.5 333.5,257.5C 333.5,259.5 333.5,261.5 333.5,263.5C 334.5,263.5 335.5,263.5 336.5,263.5C 336.5,265.833 336.5,268.167 336.5,270.5C 337.5,270.5 338.5,270.5 339.5,270.5C 340.112,274.696 341.279,278.696 343,282.5C 345,285.167 347,287.833 349,290.5C 349.494,292.134 349.66,293.801 349.5,295.5C 350.5,295.5 351.5,295.5 352.5,295.5C 352.5,297.5 352.5,299.5 352.5,301.5C 353.5,301.5 354.5,301.5 355.5,301.5C 357.386,304.455 358.386,307.789 358.5,311.5C 359.5,311.5 360.5,311.5 361.5,311.5C 361.833,315.5 362.167,315.5 362.5,311.5C 363.675,311.719 364.675,311.386 365.5,310.5C 363.267,308.235 361.1,305.901 359,303.5C 358.506,301.866 358.34,300.199 358.5,298.5C 357.5,298.5 356.5,298.5 355.5,298.5C 355.66,296.801 355.494,295.134 355,293.5C 351.906,289.748 349.239,285.748 347,281.5C 346.333,275.5 346.333,269.5 347,263.5C 349.158,261.667 351.324,259.834 353.5,258C 357.486,257.501 361.486,257.334 365.5,257.5C 365.5,256.5 365.5,255.5 365.5,254.5C 374.839,254.334 384.173,254.5 393.5,255C 394.167,255.667 394.833,256.333 395.5,257C 398.833,257.333 402.167,257.667 405.5,258C 407.303,260.103 409.636,260.936 412.5,260.5C 412.5,261.5 412.5,262.5 412.5,263.5C 414.5,263.5 416.5,263.5 418.5,263.5C 418.5,264.5 418.5,265.5 418.5,266.5C 419.833,266.5 421.167,266.5 422.5,266.5C 422.607,264.097 421.607,262.264 419.5,261C 417.714,260.804 416.381,259.971 415.5,258.5C 413.604,257.534 411.604,257.201 409.5,257.5C 409.5,256.5 409.5,255.5 409.5,254.5C 406.455,254.492 403.455,254.159 400.5,253.5C 400.5,252.5 400.5,251.5 400.5,250.5C 396.167,250.5 391.833,250.5 387.5,250.5C 387.5,249.5 387.5,248.5 387.5,247.5C 377.956,248.978 368.29,249.978 358.5,250.5C 358.5,251.5 358.5,252.5 358.5,253.5C 354.663,253.513 351.33,254.68 348.5,257C 341.563,259.22 336.73,257.053 334,250.5C 331.714,245.489 330.381,240.156 330,234.5C 329.333,233.833 328.667,233.167 328,232.5C 327.502,229.183 327.335,225.85 327.5,222.5C 325.876,222.64 324.71,221.973 324,220.5C 324.038,215.858 323.038,211.525 321,207.5C 320.83,201.804 320.33,196.138 319.5,190.5C 318.914,190.291 318.414,189.957 318,189.5C 317.5,177.171 317.333,164.838 317.5,152.5C 318.5,152.5 319.5,152.5 320.5,152.5C 320.5,151.5 320.5,150.5 320.5,149.5C 325.844,149.334 331.177,149.501 336.5,150C 338.217,151.559 340.217,152.392 342.5,152.5C 342.5,153.5 342.5,154.5 342.5,155.5C 345.466,157.451 348.8,158.784 352.5,159.5C 352.5,160.5 352.5,161.5 352.5,162.5C 354.5,162.5 356.5,162.5 358.5,162.5C 358.5,163.5 358.5,164.5 358.5,165.5C 362.955,166.142 367.288,167.142 371.5,168.5C 371.805,173.762 371.471,178.928 370.5,184C 364.833,184.667 359.167,184.667 353.5,184C 351.697,181.897 349.364,181.064 346.5,181.5C 346.5,180.167 346.5,178.833 346.5,177.5C 344.167,177.5 341.833,177.5 339.5,177.5C 339.5,176.5 339.5,175.5 339.5,174.5C 338.5,174.5 337.5,174.5 336.5,174.5C 337.288,185.293 338.288,195.96 339.5,206.5C 340.5,206.5 341.5,206.5 342.5,206.5C 342.5,210.833 342.5,215.167 342.5,219.5C 343.5,219.5 344.5,219.5 345.5,219.5C 345.992,225.187 347.326,230.521 349.5,235.5C 351.5,235.5 353.5,235.5 355.5,235.5C 355.33,234.178 355.663,233.011 356.5,232C 371.833,231.333 387.167,231.333 402.5,232C 403.167,233 403.833,234 404.5,235C 407.833,235.333 411.167,235.667 414.5,236C 417.054,237.787 419.72,239.287 422.5,240.5C 424.396,241.466 426.396,241.799 428.5,241.5C 428.5,242.5 428.5,243.5 428.5,244.5C 439.913,249.845 444.08,258.845 441,271.5C 438.741,273.246 437.408,275.58 437,278.5C 433.865,281.651 430.032,283.317 425.5,283.5C 425.291,284.086 424.957,284.586 424.5,285C 421.167,285.667 417.833,285.667 414.5,285C 412.347,282.835 409.681,282.002 406.5,282.5C 406.5,281.5 406.5,280.5 406.5,279.5C 404.5,279.5 402.5,279.5 400.5,279.5C 400.5,278.5 400.5,277.5 400.5,276.5C 393.904,274.702 387.071,273.702 380,273.5C 376.167,273.667 372.333,273.833 368.5,274C 368.043,274.414 367.709,274.914 367.5,275.5C 369.168,279.509 371.335,283.176 374,286.5C 374.495,288.473 374.662,290.473 374.5,292.5C 375.5,292.5 376.5,292.5 377.5,292.5C 379.656,296.053 380.989,300.053 381.5,304.5C 382.478,304.977 383.311,305.643 384,306.5C 384.667,309.5 384.667,312.5 384,315.5C 383.29,316.973 382.124,317.64 380.5,317.5C 380.5,319.5 380.5,321.5 380.5,323.5C 379.5,323.5 378.5,323.5 377.5,323.5C 376.801,325.995 375.801,328.328 374.5,330.5C 366.493,330.666 358.493,330.5 350.5,330C 348.747,328.001 347.413,325.835 346.5,323.5C 342.932,323.241 341.599,321.241 342.5,317.5C 341.5,317.5 340.5,317.5 339.5,317.5C 339.539,315.641 338.706,314.308 337,313.5C 336.505,311.527 336.338,309.527 336.5,307.5C 335.5,307.5 334.5,307.5 333.5,307.5C 333.5,305.5 333.5,303.5 333.5,301.5C 332.5,301.5 331.5,301.5 330.5,301.5C 330.5,299.5 330.5,297.5 330.5,295.5C 329.5,295.5 328.5,295.5 327.5,295.5C 327.5,293.167 327.5,290.833 327.5,288.5C 326.167,288.5 324.833,288.5 323.5,288.5C 323.5,286.5 323.5,284.5 323.5,282.5C 322.5,282.5 321.5,282.5 320.5,282.5C 320.66,280.801 320.494,279.134 320,277.5C 318.108,278.617 317.275,280.284 317.5,282.5C 316.5,282.5 315.5,282.5 314.5,282.5C 314.5,283.5 314.5,284.5 314.5,285.5C 313.5,285.5 312.5,285.5 311.5,285.5C 311.662,287.527 311.495,289.527 311,291.5C 309.989,292.337 308.822,292.67 307.5,292.5C 307.5,294.5 307.5,296.5 307.5,298.5C 306.5,298.5 305.5,298.5 304.5,298.5C 304.5,301.5 304.5,304.5 304.5,307.5C 303.5,307.5 302.5,307.5 301.5,307.5C 301.5,311.833 301.5,316.167 301.5,320.5C 300.5,320.5 299.5,320.5 298.5,320.5C 298.5,322.5 298.5,324.5 298.5,326.5C 297.5,326.5 296.5,326.5 295.5,326.5C 295.5,327.833 295.5,329.167 295.5,330.5C 290.36,332.646 285.026,334.646 279.5,336.5C 273.974,334.646 268.64,332.646 263.5,330.5C 263.5,329.167 263.5,327.833 263.5,326.5C 262.5,326.5 261.5,326.5 260.5,326.5C 260.817,323.428 260.484,320.428 259.5,317.5C 256.802,314.771 256.969,312.104 260,309.5C 260.499,304.845 260.666,300.179 260.5,295.5C 261.5,295.5 262.5,295.5 263.5,295.5C 263.335,292.482 263.502,289.482 264,286.5C 267.438,279.958 270.605,273.291 273.5,266.5C 274.5,266.5 275.5,266.5 276.5,266.5C 276.5,264.5 276.5,262.5 276.5,260.5C 277.5,260.5 278.5,260.5 279.5,260.5C 279.34,258.801 279.506,257.134 280,255.5C 283.512,252.309 286.678,248.809 289.5,245C 290.448,244.517 291.448,244.351 292.5,244.5C 292.343,243.127 292.51,241.793 293,240.5C 295.833,237 299,233.833 302.5,231C 301.861,226.879 301.195,222.713 300.5,218.5C 299.914,218.291 299.414,217.957 299,217.5C 298.829,212.467 298.329,207.467 297.5,202.5C 296.914,202.291 296.414,201.957 296,201.5C 295.667,194.167 295.333,186.833 295,179.5C 294.333,178.833 293.667,178.167 293,177.5C 292.5,171.175 292.334,164.842 292.5,158.5C 290.167,158.5 287.833,158.5 285.5,158.5C 285.667,169.838 285.5,181.172 285,192.5C 284.586,192.957 284.086,193.291 283.5,193.5C 282.833,197.833 282.167,202.167 281.5,206.5C 280.914,206.709 280.414,207.043 280,207.5C 279.144,213.324 277.811,218.99 276,224.5C 274.076,226.009 272.909,228.009 272.5,230.5C 271.675,231.386 270.675,231.719 269.5,231.5C 269.662,233.527 269.495,235.527 269,237.5C 266.376,240.416 264.542,243.75 263.5,247.5C 262.5,247.5 261.5,247.5 260.5,247.5C 260.66,249.199 260.494,250.866 260,252.5C 256.495,255.349 254.328,259.016 253.5,263.5C 252.5,263.5 251.5,263.5 250.5,263.5C 248.833,266.847 247.166,270.18 245.5,273.5C 244.534,275.396 244.201,277.396 244.5,279.5C 243.5,279.5 242.5,279.5 241.5,279.5C 241.5,281.5 241.5,283.5 241.5,285.5C 240.5,285.5 239.5,285.5 238.5,285.5C 239.036,288.665 238.203,291.331 236,293.5C 235.548,296.877 234.882,300.211 234,303.5C 233.586,303.957 233.086,304.291 232.5,304.5C 231.939,313.989 230.606,323.155 228.5,332C 230.796,341.828 231.962,351.995 232,362.5C 232.667,363.167 233.333,363.833 234,364.5C 234.605,368.784 235.938,372.784 238,376.5C 239.493,382.134 240.66,387.8 241.5,393.5C 242.5,393.5 243.5,393.5 244.5,393.5C 244.5,395.833 244.5,398.167 244.5,400.5C 245.5,400.5 246.5,400.5 247.5,400.5C 247.201,402.604 247.534,404.604 248.5,406.5C 251.778,411.078 254.612,416.078 257,421.5C 257.49,422.793 257.657,424.127 257.5,425.5C 258.5,425.5 259.5,425.5 260.5,425.5C 260.5,427.5 260.5,429.5 260.5,431.5C 261.5,431.5 262.5,431.5 263.5,431.5C 263.5,432.833 263.5,434.167 263.5,435.5C 264.5,435.5 265.5,435.5 266.5,435.5C 266.5,437.5 266.5,439.5 266.5,441.5C 267.5,441.5 268.5,441.5 269.5,441.5C 269.5,444.5 269.5,447.5 269.5,450.5C 263.666,452.375 257.666,452.875 251.5,452C 250.62,450.644 250.286,449.144 250.5,447.5C 249.5,447.5 248.5,447.5 247.5,447.5C 247.539,445.641 246.706,444.308 245,443.5C 244.505,441.527 244.338,439.527 244.5,437.5C 243.5,437.5 242.5,437.5 241.5,437.5C 241.5,435.5 241.5,433.5 241.5,431.5C 240.5,431.5 239.5,431.5 238.5,431.5C 238.5,429.5 238.5,427.5 238.5,425.5C 237.5,425.5 236.5,425.5 235.5,425.5C 235.5,423.167 235.5,420.833 235.5,418.5C 234.167,418.5 232.833,418.5 231.5,418.5C 231.5,416.5 231.5,414.5 231.5,412.5C 230.5,412.5 229.5,412.5 228.5,412.5C 227.275,408.25 226.109,403.917 225,399.5C 223.544,396.002 221.877,392.668 220,389.5C 218.188,381.975 216.854,374.308 216,366.5C 215,365.833 214,365.167 213,364.5C 212.667,356.167 212.333,347.833 212,339.5C 209.075,335.107 209.075,330.774 212,326.5C 212.333,318.5 212.667,310.5 213,302.5C 214.011,301.663 215.178,301.33 216.5,301.5C 216.5,297.5 216.5,293.5 216.5,289.5C 217.5,289.5 218.5,289.5 219.5,289.5C 219.335,286.482 219.502,283.482 220,280.5C 222.103,278.697 222.936,276.364 222.5,273.5C 223.5,273.5 224.5,273.5 225.5,273.5C 225.338,271.473 225.505,269.473 226,267.5C 229.556,261.713 233.389,256.047 237.5,250.5C 238.099,247.026 239.432,244.026 241.5,241.5C 242.5,241.5 243.5,241.5 244.5,241.5C 244.5,239.5 244.5,237.5 244.5,235.5C 245.5,235.5 246.5,235.5 247.5,235.5C 248.844,232.626 250.01,229.626 251,226.5C 252.011,225.663 253.178,225.33 254.5,225.5C 254.5,223.5 254.5,221.5 254.5,219.5C 255.5,219.5 256.5,219.5 257.5,219.5C 257.5,217.167 257.5,214.833 257.5,212.5C 258.5,212.5 259.5,212.5 260.5,212.5C 260.5,209.5 260.5,206.5 260.5,203.5C 261.5,203.5 262.5,203.5 263.5,203.5C 265.448,192.725 266.448,181.725 266.5,170.5C 266.415,158.848 265.415,147.515 263.5,136.5C 262.5,136.5 261.5,136.5 260.5,136.5C 260.418,130.857 259.418,125.524 257.5,120.5C 256.5,120.5 255.5,120.5 254.5,120.5C 254.5,118.5 254.5,116.5 254.5,114.5C 253.5,114.5 252.5,114.5 251.5,114.5C 250.362,109.947 249.029,105.613 247.5,101.5C 246.5,101.5 245.5,101.5 244.5,101.5C 244.5,99.5 244.5,97.5 244.5,95.5C 243.5,95.5 242.5,95.5 241.5,95.5C 239.533,92.5893 238.533,89.256 238.5,85.5C 237.5,85.5 236.5,85.5 235.5,85.5C 235.5,84.5 235.5,83.5 235.5,82.5C 232.221,81.9694 230.887,79.9694 231.5,76.5C 230.5,76.5 229.5,76.5 228.5,76.5C 228.5,75.5 228.5,74.5 228.5,73.5C 227.5,73.5 226.5,73.5 225.5,73.5C 225.649,72.448 225.483,71.448 225,70.5C 221.329,68.1127 219.496,64.7794 219.5,60.5C 218.5,60.5 217.5,60.5 216.5,60.5C 216.5,59.5 216.5,58.5 216.5,57.5C 213.107,57.6247 211.774,55.958 212.5,52.5C 212.833,51.1667 213.167,49.8333 213.5,48.5C 215.213,48.1207 216.213,47.1207 216.5,45.5 Z"/></g>
<g><path style="opacity:0.592" fill="#fefffe" d="M 189.5,361.5 C 192.85,361.335 196.183,361.502 199.5,362C 200.337,363.011 200.67,364.178 200.5,365.5C 201.5,365.5 202.5,365.5 203.5,365.5C 203.5,368.5 203.5,371.5 203.5,374.5C 204.5,374.5 205.5,374.5 206.5,374.5C 206.335,377.85 206.502,381.183 207,384.5C 208.576,387.894 210.242,391.228 212,394.5C 212.498,397.482 212.665,400.482 212.5,403.5C 213.5,403.5 214.5,403.5 215.5,403.5C 214.907,406.596 215.907,408.929 218.5,410.5C 218.987,413.796 220.154,416.796 222,419.5C 222.495,421.473 222.662,423.473 222.5,425.5C 223.5,425.5 224.5,425.5 225.5,425.5C 226.5,428.833 227.5,432.167 228.5,435.5C 229.5,435.5 230.5,435.5 231.5,435.5C 231.5,441.167 231.5,446.833 231.5,452.5C 226.5,452.5 221.5,452.5 216.5,452.5C 216.5,450.833 216.5,449.167 216.5,447.5C 215.167,447.5 213.833,447.5 212.5,447.5C 212.657,446.127 212.49,444.793 212,443.5C 208.969,439.342 206.302,435.009 204,430.5C 203.503,427.854 203.336,425.187 203.5,422.5C 202.5,422.5 201.5,422.5 200.5,422.5C 200.5,420.167 200.5,417.833 200.5,415.5C 199.5,415.5 198.5,415.5 197.5,415.5C 197.66,413.801 197.494,412.134 197,410.5C 194.652,406.615 192.652,402.615 191,398.5C 188.947,391.688 187.447,384.688 186.5,377.5C 185.914,377.291 185.414,376.957 185,376.5C 184.501,372.848 184.335,369.182 184.5,365.5C 185.5,365.5 186.5,365.5 187.5,365.5C 187.527,363.801 188.194,362.467 189.5,361.5 Z"/></g>
</svg>
